# This PCD file was generated using the MATLAB® pcwrite function
# from Computer Vision Toolbox®.
# .PCD v.7 - Point Cloud Data file format
VERSION .7
FIELDS x y z
SIZE 4 4 4
TYPE F F F
COUNT 1 1 1
WIDTH 1095
HEIGHT 1
VIEWPOINT 0 0 0 1 0 0 0
POINTS 1095
DATA ascii
1740.696063105731128 -853.745870774191076 478.489078097873289
1834.110702244239519 -840.005407096766248 485.517192000377008
1935.584520670572829 -844.729141212745958 478.235738841869193
2029.639320031920533 -842.109620165469096 481.509422643860773
2164.802476532605397 -816.339114597865546 470.631731617207436
2197.415969249779209 -832.884909445674339 485.164118025703374
2346.734361478365372 -846.385681527944712 477.625087796724756
2424.743903459821468 -851.334930528913219 491.852379935128340
2543.996712831439254 -851.330923221472517 480.633094667376895
2624.385990415300512 -825.771235602242655 484.109065055847168
2731.049773206209011 -816.605151367187545 475.059174788625626
2836.472054292270514 -816.094125324241759 476.111656084041954
2936.985074361165516 -824.447369654973386 487.831330736478151
3008.346977233886719 -833.714457750320435 479.312162160873413
3155.041415007217893 -848.768694670304058 494.459919058758260
3225.923868574334392 -851.346373841002787 491.374491777847311
3355.472907331582064 -840.838800041283662 485.332839833791240
3402.998225347437256 -843.071823422271450 491.867075652572566
1742.263131165485220 -783.488040650496032 446.272907512212953
1824.188442633591421 -783.785725849992900 449.719373873953600
1934.730397696267573 -784.448352533946604 456.304055050726674
1996.839394236487124 -784.175587571512096 453.636226543917132
2132.548112540409420 -781.551078007139040 434.117372710129303
2261.936846486917148 -782.305637583039584 442.230389973605270
2299.584067177939232 -781.204840386664159 434.825226256897395
2428.378946314102450 -781.373408390925533 436.104055238381420
2546.789655412946558 -781.610961914062500 437.777941022600430
2645.745705881426602 -781.333462622857837 437.761884381694188
2731.769337559098403 -781.368657749077443 438.529501489167728
2823.532014557386901 -783.081680493119393 449.784015913550093
3174.088261457753561 -783.518594312774098 454.541705431014236
3408.191984938952828 -783.138691888158860 457.215417560123115
1741.392553800366386 783.461234224759664 446.630924367380658
1820.006191971176122 789.717455872986079 454.581894767461847
1931.102500552222864 789.345091216418155 458.071652652455043
2024.445618839939470 792.072420956978021 457.147423185509638
2151.427517651236485 794.967255128258671 458.470905813941329
2235.492731573515812 792.992691213153307 454.827209868346074
2299.083324323381476 781.202844238281273 434.814403533935547
2432.478876838907127 781.371570609466403 436.134839509662811
2546.791259765625000 781.539428710937500 437.582422892252623
2613.604706913592054 800.631393616458013 464.920003255208314
2724.469313210588098 794.970214223474045 456.644507617485260
2824.360979154587312 784.633327208247806 453.977132182643061
2957.611174901326649 805.390909989674924 475.440590778986632
3174.098695727589075 784.148764796325509 456.601742440914961
3277.061536287006675 783.312033402292400 476.993422658819895
3366.683450824850297 806.911572988592638 481.121394893846116
3432.604672806740382 786.239848887038079 467.523372936850649
3499.507125946969609 791.895589377663327 458.015534880667019
3629.004115016330161 797.689683782799534 466.634210437040736
3739.350911954554249 789.129398790478376 463.966335699810259
3825.277313891074755 784.395939449612229 465.639262247428633
1740.748857446882994 854.802845582461373 478.369181653754197
1835.946392281447743 850.857908611056132 491.579791646064109
1935.069825177103667 852.934705081000061 480.855639426818186
2015.987967905371988 852.842268895621260 485.610899722937404
2166.229191706730944 824.343573702298727 471.625657184307386
2198.073944413034496 850.018540874280461 495.559231165835740
2349.142719838810990 839.333205299815859 475.657088181068161
2414.547568873355431 850.018540874280461 497.342386988589624
2573.262811735431569 845.399614544525662 479.124434936089017
2633.336692578865041 848.678631002252700 487.187139222116173
2745.275086490774356 846.638967468470014 480.742430807380572
2820.730819153271113 845.608092603065984 480.820865878098289
2916.358978271484375 843.503842989603640 500.222072045008360
3008.346978187561035 833.714459657669067 479.312162518501282
3152.852851924189963 856.169400318286989 496.622097167968775
3229.155117936350962 851.610728996647026 491.353867150248504
3353.442133884803752 851.506008694793991 490.156294464525615
3430.066717466188038 847.734403744523320 492.311635913783164
3496.507211762356746 855.335361701215675 507.523166893534551
3616.049346984419117 857.692169441914871 507.094217402662082
3724.448728039490106 873.196189734535551 504.664861686568713
3802.209764667585659 891.075750612745082 510.859159581801464
3771.787240592700073 -901.662361085876910 613.671261336452289
3839.330336570739746 -948.768465204672339 608.094433665275574
1743.619034688980946 -828.315458766749657 573.236866247458579
1842.688504111442171 -842.637052092199610 559.685012520519194
1924.485548184017034 -845.773836974313099 586.985076153405316
2030.898806966775055 -855.745500243857464 596.076397872588586
2132.158377118633325 -855.824658421324216 600.227851006496167
2237.865286067149555 -853.868075303935825 606.743868957432255
2308.412611036784256 -851.243380175452103 603.397069859986800
2415.479731778920723 -850.289072230242255 611.589731157196184
2521.512220876654283 -854.777716393281480 602.278751625681139
2636.122722757273550 -855.754986183712958 613.585827329114522
2729.997725000000173 -853.983757675781249 617.557116777343708
2802.699838012435976 -850.217747786296854 576.079003283354041
2915.152253110965376 -859.374694458738759 623.003921234679069
3029.872162986288458 -851.466374030080829 579.930517910289154
3170.263139948498520 -859.212115921787699 622.168855976125997
3225.634284055519856 -854.006879214432047 596.168079703943818
3332.159257678033555 -856.716029260737173 620.949587734307784
3430.061929799599966 -856.682904520458806 619.734517434612485
3485.812526933663321 -852.358649745954722 583.206037093736086
3636.505181884765534 -851.549591064453125 580.680002393220548
3739.687542683148422 -864.385707796578913 609.038898335723843
1748.734900051992099 -784.048606004063572 597.183719347738361
1833.301003335904625 -783.895426876805459 594.881205634109165
1902.883079721829290 -784.613811548794274 611.961141248517606
2288.621236313868394 -786.100403500299421 622.359843901474164
1747.871602472953100 786.903591056334449 594.156570688279430
1833.928674738725249 784.055465321171596 594.790455398685253
1902.700514146498108 785.320446307842531 611.162615155840285
2290.534224843591346 787.839118895491879 621.866526037696872
1742.462571257021182 843.338952688959921 566.145174600598466
1842.541517070695363 844.528060464298051 558.591769997590518
1925.323343242217788 848.016049145820261 585.846420211170766
2032.349513479334519 855.869240828478610 596.059299880167828
2128.470125020889100 855.446861248050368 598.375743366860206
2238.947816079564291 852.994899132535124 606.293159075298831
2308.740711893354273 853.225457668304443 602.659203926722171
2420.446375671045644 850.125600292695935 610.124659703430552
2514.360507491132921 853.166798465439228 597.456812113703563
2642.753215164103949 847.681083558097725 611.272770311466616
2728.922759567481990 853.944426307802360 617.556051918262256
2802.837807702851023 850.217957613760973 575.935652026795537
2909.621402662627588 859.418094972363974 623.049462973665982
3029.592985548966681 851.588646741915568 580.619978775780169
3169.983893734285175 859.191256819100204 622.197826517039289
3228.393564666970633 853.765816035583953 595.358054613544937
3330.993849203620357 856.851545328489465 620.899267793037552
3434.856286799578811 854.357870561909294 593.681505676642360
3521.111720685916680 848.357471294655170 602.367229337314143
3629.911035915673438 851.093324125087747 584.327966189054905
3739.978377251190523 867.807629602867223 590.873631814425607
3823.105629450158176 908.930334936214422 528.166386085220552
3778.240786903782919 914.710357344778004 566.397552811471996
3830.907537286931984 945.444932483032062 600.804558484227869
3861.776005002683178 -956.432161094460639 666.176044691099492
3887.131812543801061 -961.684832993875830 711.747646195686798
1951.922927856445312 -854.891205812111934 638.623131580841800
2051.136777089989664 -857.450445486151693 690.734087861102580
2122.910775963928245 -833.012338574561682 663.676490874445449
2224.598016737171747 -806.946349547294176 631.199357578838317
2311.694116485252835 -796.048902704474585 630.010405808352402
2427.485182883522612 -795.910862038352320 630.811037375710271
2502.570955465768293 -802.851362155593961 630.237288846314414
2655.563589344853881 -795.370708852574467 633.298445107280372
2744.024516340615264 -821.812813634457825 632.983006905818343
2848.012985145962830 -844.331230812620220 656.759653162825771
2896.812088550339467 -858.248637995097056 655.926679720023799
3023.788402833248711 -851.109136034425660 681.111661611352474
3143.835999042373714 -824.361439586015990 675.250572521600702
3233.480740201975095 -808.070845876131443 644.372871428132271
3321.225963050764221 -821.782946071373431 632.275459926264489
3442.198460088245611 -828.066868740342102 632.678937668015010
3529.647451811079463 -843.114971493252824 641.976269566761403
3634.612997731854648 -839.098946057899866 685.161630230998526
3716.158168274110267 -859.427018179994320 703.226169228913932
3782.202218191964221 -870.728027343750000 722.126918247767890
1732.915454101562545 -781.720031738281250 626.842163085937500
1919.084197998046875 -781.919202743037999 632.744897165606062
2138.982057837041793 -785.475281677778639 682.531793074416441
2240.944935508917752 -785.725037545604550 636.321625200671178
2295.470727108915980 -785.606619815042336 632.041114037264720
2500.001893028846098 -785.560203200120213 636.717682354266799
2659.911069979591502 -785.931950457253834 636.358864467884246
2726.900596837773264 -785.585333496306248 641.380108281360435
2832.127084755511532 -785.505108287033522 672.829055677494239
2884.348645662006675 -785.944722493489621 720.898761414645037
3164.891437922297428 -784.806824349068279 685.773784369391365
3230.742401353890727 -785.394831970491850 654.203189059212832
3305.344510388819799 -786.382271945769617 640.651957914189211
3436.388473198974680 -785.574342209904444 644.499344504512806
3528.992674525147777 -785.497815837806570 659.943323376247918
3626.128601660469030 -785.524117354776763 698.899237080088596
1732.915454101562545 781.720031738281250 626.842156982421898
1918.991793193514468 781.903528607080830 632.658109634641619
2138.150281906127930 788.195837399055222 681.227677180849241
2240.745733930455117 788.196665679258217 635.244632313231932
2298.700317501097743 786.904844801555328 631.927502269892784
2424.662297483350358 795.973063484567092 630.747491555135753
2502.108441162109557 791.468252944946244 633.801626205444336
2658.174005865852905 787.831625644563587 635.456697591145826
2726.654747585409950 787.927366627708466 640.307702245646851
2831.640903053440070 787.427022271806322 672.470283012200639
2884.335429575251510 786.312415579726462 720.429885104241521
3164.704589965213017 786.780204355420210 684.928976485978296
3231.251825049188938 788.619184763857561 652.413265977986384
3305.221058444722530 787.844109163680855 640.339238794763332
3434.694120434543493 787.490470658277331 642.186879449645289
3534.198617285718228 787.532004976022108 652.859578857727229
3626.416656375678940 788.895512423397122 683.308254821722699
3706.952726496540890 786.069159301986815 704.154265498578184
1952.617541973407469 855.027304624899784 638.505427042643191
2051.057592899283009 857.439654352247089 690.600384584407266
2120.217688833593002 836.739213783565219 663.576095133402987
2202.038672408640650 822.380325200648940 630.330903600473903
2358.053007238051578 821.585693359375000 625.278758329503717
2450.093575613839221 821.843279157366055 626.358154296875000
2501.027112023305108 822.193919036348007 626.220780712063060
2639.285002952398372 824.086158929869157 626.066573741824072
2750.136223942715333 835.645073789370372 630.549960140989128
2852.127376815970365 856.284318536665978 653.762808245813062
2896.624370709143932 858.375678957704281 655.663227668715649
3023.961477355956958 851.154869003295858 680.364160079956036
3132.685394352178719 841.026676853074150 672.413014816576947
3236.741077933835186 821.745975681068899 639.546568077136726
3330.127533276875965 834.413662274678586 629.358400106430054
3445.609360779582858 839.013710629156321 630.128587170593164
3530.119143943887593 849.819083499655449 639.991246372698470
3633.499077108768688 851.775254574402538 671.874050021503990
3734.232341500614439 858.897850550962289 681.017365873529684
3784.746412194293498 883.632938550866129 705.836336882218120
3847.608965929492115 954.466543110522139 663.775511068212836
3886.926431290064102 961.565689728565758 710.963309983473550
3847.188885252117871 -958.447422684330604 779.607410919971926
3912.063629222612235 -965.202904114684316 768.787731522733907
1910.249694824218750 -846.769866943359375 751.496643066406250
2055.674961532161888 -849.085062508436408 776.632548245808948
2087.297062800480944 -815.100768456092283 749.768001556396484
2940.418628042566070 -849.513545047654134 779.302599706612000
3038.844499769822505 -852.801232085070978 771.796530791337204
3114.239793911638117 -817.345262409078714 772.470509496228487
3678.626684838598976 -795.879708426339334 726.506434178614313
3739.364175005513061 -813.489246223290706 772.897066379437319
3799.100984416269057 -860.553729545458395 798.839260270750742
2098.940023177440708 -785.303051489710242 755.873959930775982
2868.501871744791515 -784.069976806640625 733.125101725260379
2916.851490422385268 -785.665432210741074 772.527859755427130
3130.330914201666019 -785.121973855958231 776.929326747734990
3674.709722222222354 -785.272047254774293 729.780653211805543
3729.145017343431846 -785.513848441875666 777.054134131157753
2098.644593744949816 785.768978540559829 756.291231279921817
2868.501871744791515 784.069976806640625 733.125101725260379
2920.718356256692914 786.712989536178497 779.077699256017581
3130.432120643367853 785.389224634273774 775.439515096616219
3675.322048187255859 788.085977554321289 728.850544548034691
3737.755187715396914 793.005939869849840 776.402321561461804
3785.970329470750585 795.559624090427292 820.100450283143573
1910.249694824218750 846.769866943359375 751.496643066406250
2055.430185589519624 849.422972006985219 776.414008901004763
2084.577825975048654 824.519416749939410 743.357726577640506
2940.500635675711692 862.401484657918218 772.435287228279776
3039.623177441048483 852.700983068445225 771.185344765911168
3111.948281892030536 821.878124091864493 775.655674812290499
3743.176523415439078 859.904488919729260 753.200824025165616
3800.272449885866990 871.330743200985012 793.367434591913366
3846.873951470674001 958.797381386828079 778.523367013504298
3911.691332828579561 965.151563815440454 768.036028137367111
3871.194310634410158 -923.541846352798984 866.602224312576595
3943.319845055381847 -961.534872457930987 864.139480364852261
4017.925084212019556 -969.557348942112299 896.310350036621116
2060.859430185596921 -859.736234417915739 869.008186529372665
2090.100070529513687 -795.446755303276859 844.864248063829223
2963.631250247387470 -814.991361921236717 845.787177599857955
2999.345608368282228 -848.335854747346389 883.671792044379117
3115.603117705979457 -847.453077873425968 878.595465227266800
3778.976231762486805 -793.244891826923094 827.899069500784549
3827.908047714288841 -823.578733890935496 870.321643035923557
3884.974954450088262 -888.179896054756568 919.324745636525563
2095.268640136718659 -784.670248413085915 896.031182861328148
2944.383851947206495 -786.113819397968541 843.422780283681163
3127.513080193014503 -785.515635052849234 826.569812729779414
3776.033638619087924 -785.281101536106462 831.385824903097841
3808.421830395635425 -786.772586922073060 878.869586532103540
2090.746953901076267 793.895667878207746 851.433937325382885
2951.931065150669838 788.949566952432065 847.151615659284516
2989.514971221653923 793.777360062050661 900.542879411815534
3130.088676008597758 791.480958968874006 852.535761757502428
3777.751724080490476 789.386727078891226 829.733082069771172
3817.184278154736148 790.898301778087102 872.879231235807765
2061.119824341770709 859.803940986636803 870.288809915665752
2083.200195312500000 816.300573730468727 830.656274414062523
2973.600118337583808 866.293790706918230 838.055803661504115
3001.265555362026134 868.936651215843199 878.503762529942719
3115.555324279156139 849.819802447446818 879.905419387030861
3846.151791714034971 881.151191190750751 869.694678257631836
3886.211216517857338 889.629636209952764 917.377199522387059
3871.851373331436207 957.296001914321209 841.736051647868408
3947.745230619993436 967.731272800583042 860.549161604578671
4017.568126232456962 969.435153273801575 896.015982815455232
3938.200276747325915 -914.919857030266940 960.085484610948015
4057.619426042900614 -972.472363970081005 975.649856294611027
4120.721157421834505 -979.427521915931948 985.734886636123179
4245.007731841566965 -975.717037463135284 997.407324685648632
4313.459002463695469 -974.982836812833966 996.793498298451709
4436.563834133015916 -975.764721017038596 977.883645943341662
4505.019690687391630 -972.642177717420736 997.424457533094596
1963.146361443851220 -850.243357357649188 1011.686087657899861
2024.853076111889550 -853.534472356322908 995.870529572208056
2087.055726550874169 -806.285005115327408 985.078413100469675
3031.542006785995454 -847.536338728117585 990.092544567669393
3130.439090363633568 -849.295425234214804 982.976175591634842
3874.686913808187001 -835.623868624369265 933.367232640584348
3907.303629421658115 -876.426977471245664 973.847036810980853
2094.963333129882812 -784.717627598689205 981.582842019888062
2976.010535606971189 -784.934814453125000 976.820693317641599
2983.466882428552253 -784.948239579160031 1008.529398600260379
3161.163899739583485 -788.756551106770871 1009.465779622395871
3836.061439997033176 -788.281069984918872 925.886768968799402
2093.319527895395822 788.948600788456133 983.077897166477783
2976.996089612023297 784.713296146716061 983.685403080309811
3003.854775799962681 789.524696213042716 1018.409360600088917
3148.774042302911766 793.950347900390625 954.256164550781250
3836.126323784722445 788.402017550998266 925.915558539496487
1962.724455555542136 850.150678071833795 1011.450593281948272
2024.501320062681771 853.502631250239006 996.398967855913384
2083.435353405070600 818.092017983490564 992.216749659124389
3031.756704866145355 850.980119934334880 987.950999793279493
3130.278030952596509 852.522926011259642 987.303419892743364
3876.177027652138349 838.665368812962583 933.484875006424772
3913.970176826718216 882.451168501837060 969.283462561540091
3997.955269531249996 901.540934570312515 1012.023047851562524
3959.219817911330665 966.024350036757028 945.260425049371861
4059.191670590485046 974.384809985743573 974.621868640583216
4120.352343058480983 979.538015798566448 986.019523537843838
4244.801562671835200 975.735047360005638 997.662197548079575
4311.969098663031218 975.058746211182324 997.613059252250764
4436.916856444717268 975.481723864902278 977.665446186704912
4504.801832056113199 972.484316796460575 997.254354267039389
3945.271430121527828 -889.137641059027828 1030.567070855034672
4063.098742463343115 -953.178453192653478 1064.168541271204504
4093.004315719792430 -977.010846454183934 1074.895977839223860
4242.088322697697549 -987.548320476237905 1035.421927909354736
4321.130756546540397 -986.372652647925179 1041.711985180387046
4422.779356260557506 -978.440936939136350 1085.900839315878329
4551.673494331532311 -959.808495240175603 1043.687358178160139
4606.687212562077548 -941.809104670494776 1097.806656742821588
1959.741756615324448 -850.041417920819185 1038.235301698427975
2028.082802934417714 -844.360720481199110 1064.340153015053829
2087.400834634270268 -806.236688963124493 1095.172617952588553
3027.942053851047149 -825.235702254810008 1078.921559227588659
3127.814231699778247 -861.059601554506344 1083.002724382887209
3954.889398239365619 -824.977937880472950 1077.674414591573623
4004.405053755407607 -879.776346953623033 1104.913718301741710
2095.360383862891922 -786.033799109180336 1077.401366663142880
2978.344177246093750 -784.136856079101562 1069.139129638671875
2999.935158769027566 -786.141489011767931 1075.450507042146228
3176.886215375048323 -785.372902730148780 1075.646904168578430
3184.113947134597765 -786.133117419868654 1109.092480929392650
3928.764606694911890 -787.125234935849107 1089.974253706741820
2094.680606364000596 787.772959331387369 1078.891860076416606
2978.322814941406250 784.135269165039062 1069.048767089843750
3009.819588717367878 789.825886766320536 1078.299815076462664
3176.661070221724913 785.430300139237033 1074.920782040620225
3184.263976567653572 786.071466209391474 1109.816216541783433
3939.640487209204821 788.399929679075058 1088.871578795577761
3981.352014160156159 790.734017944335960 1124.268475341796830
1959.769062478038222 850.032995449906934 1038.217181936375482
2026.887098927209081 844.740538346792277 1063.647277761208443
2081.922117925994826 821.360510071711701 1109.032798653218379
3040.862121821384790 862.951011268765342 1076.898455956818452
3127.049318536293868 861.335929590645605 1082.780831007826464
3955.557664927869610 883.999500287247997 1058.111838765663606
4013.097546976222020 886.933188358661823 1088.360424315831096
4618.695160590277737 909.682193558304448 1102.560721390335630
4072.054057390261733 968.137373753083011 1064.955440325614745
4092.929861878356405 976.914363073219647 1074.818765711533615
4242.507105049807251 987.562453935731128 1033.942921764445828
4317.180268873001296 987.261048038947138 1035.767917909892049
4425.152855063384777 980.673455004422181 1076.492587107532472
4551.883819001128359 959.602719092589837 1043.852452933363111
4606.415849806454389 942.435582213378552 1097.740967433985134
4068.142288208007812 -910.709201812744141 1157.627548217773438
4101.959986493189717 -951.347735470019416 1180.687860869379392
4275.473278737207693 -943.490440713414955 1215.726456069743563
4323.359676101392324 -952.414090990468708 1181.279411220109296
4431.015941124005622 -948.481056016358593 1173.866259092704468
4491.928895192603704 -932.220408413508153 1208.321990052314732
4657.830123488967729 -923.384242054118204 1148.812522063384222
4707.721267714496207 -911.071415437306882 1197.052507252143414
1955.601401052167375 -840.394533875168008 1189.598921580981141
2051.619700253036171 -838.564929559991128 1188.728014474405200
2091.479475560133324 -806.556763126897181 1182.599803224655261
3035.337579511946842 -828.038882600658098 1168.102248462721491
3143.412145097346638 -857.904955932389612 1171.064901303933993
3197.267718120398968 -804.014253991004011 1202.684988690642058
3969.380038174715992 -789.228786121715189 1128.458091042258502
4015.235582047237585 -837.193346235371564 1168.164760382471513
4676.037670617815820 -887.488253889412704 1162.160777826418780
4712.286139087142146 -876.102376991343249 1198.082090217376390
1839.907552348097624 -704.381201130070053 1203.840651169868352
1975.194013203660006 -696.785074312393022 1181.749814386237176
1994.647684733072992 -701.000885009765625 1179.416870117187500
2099.839285714285779 -788.864998953683084 1126.473702566964221
3012.318533170021055 -788.387149099576277 1131.467426881951724
3190.403711966664105 -787.749048451908266 1140.369990829003200
3963.977485409177007 -786.384797913017792 1157.568002286327783
3998.280121334357318 -786.023761699446254 1201.609847467693726
1780.536560058593750 -593.619384765625000 1187.136962890625000
1829.078632161663108 -655.336045352440465 1208.561345301570782
1968.174924767535686 -677.231204931286811 1185.225266166355368
1990.358673095703125 -678.257797241210938 1179.416870117187500
1758.785836682929130 -528.814901310528285 1186.565008985188570
1808.485457121567833 -545.531482674482959 1197.366043143741081
1902.922501997514246 -525.445399215449243 1182.527096052547677
1762.080823434985177 -447.764681312659263 1188.314066062567008
1869.597790234831564 -429.010266855263296 1203.125905289418597
1887.747272965175625 -459.399506479566639 1180.886036592371283
1737.949300471322886 -337.607452721510128 1188.401785881362230
1877.770991446569269 -349.099287312280069 1184.235421728384608
1882.666618732033612 -343.243197659002931 1179.589272156667221
1719.361517811426438 -237.826923604243404 1188.373818653582475
1872.852785885387448 -244.287978742796213 1181.909700046419630
1884.192597360321997 -273.084732055664062 1179.393162582859759
1705.986433090702121 -139.714546495868319 1188.507246940366713
1849.494263694134361 -140.506429278732099 1181.946118263944754
1881.891479492187500 -181.810089111328125 1179.416870117187500
1699.094496922667986 -30.564050775459233 1189.138054053331871
1829.866614561814458 -35.764347863804637 1182.743472612821051
1699.984266012821536 60.408368975808173 1189.015337755121209
1824.829266685186894 55.198668785814966 1191.509409335597411
1708.437048581567069 160.971720984430590 1188.459270817218339
1836.768312693480766 164.878915547486059 1183.829918775301394
1723.043941902714778 259.707321627313206 1188.327095654024106
1871.488047684933008 264.214440500427656 1183.202383743664996
1882.529628329806883 293.618333180745424 1179.513287862141851
1741.394498883928463 358.465573137555793 1188.295677176339268
1875.075417634348469 369.322446261501966 1190.615741431881361
1882.982573424877728 359.831981217780083 1179.572729824351654
1767.317324382763218 469.911606550383510 1188.547885304818692
1871.608966291443267 459.318920324656574 1199.741082309691365
1889.048627353919301 472.589693452096071 1181.953031718092006
1758.259700023520054 530.012858750551800 1186.488525459188395
1799.064683833177469 572.891016897547615 1194.628014406182047
1907.288387408271774 536.882357612585452 1182.168233950678996
1835.791031613317273 678.638310838195821 1208.775612401598210
1969.776800784072520 680.325563463861499 1184.291210373012973
1993.099209255642336 689.559607611762203 1179.416870117187500
1838.506768366150482 721.759431358556071 1193.474500377073809
1975.886535644531250 712.985677865835328 1180.897634652944816
1991.427856445312500 713.000000000000000 1179.416870117187500
2095.838982379444587 797.522313259769589 1182.407410123764294
3022.499686619020849 793.530797310595290 1166.622851317783670
3198.028714701463741 797.100948425835895 1192.866362426706019
3964.122757092166466 786.428156678404093 1157.751480264941620
3996.538452622365639 787.239163009973595 1188.419406038221950
1955.999231319616229 840.384986197594344 1189.718438176825430
2051.635734422918631 838.553514022168542 1188.333215625976209
2084.669509586138247 821.451399490296126 1184.642548451781749
3046.128300949622826 860.068017548058378 1163.101347103024864
3144.389730408704963 857.539409459228864 1171.590191344550021
3183.015817002118638 845.091112660553449 1216.427649546477824
4025.360501750450567 866.599135209372434 1174.129836006572759
4664.801544563138123 895.410734028718934 1152.314959093989046
4716.697846085026868 891.649866540473454 1204.082129831841485
4069.964843750000000 917.148559570312500 1150.334594726562500
4101.921156323159266 951.672797718546008 1180.032887432605094
4224.955322265625000 962.605651855468750 1172.073465983072992
4325.302587890624636 965.531646728515625 1154.805505371093659
4441.651145241477025 955.022078080610754 1164.885398171164752
4540.210837624289525 938.589964433149817 1187.682325883345129
4656.587985173606285 931.941338783339688 1148.471698047520022
4695.104750961158970 917.675298029799478 1184.991114392480313
4078.072509765625000 -895.693115234375000 1229.345214843750000
4107.548513423290387 -920.033647419409590 1273.905924533808729
4273.445772849297100 -932.999746452738009 1244.298029856665835
4325.298125195990906 -907.902375984854416 1290.525941208751419
4432.331267260808090 -896.876477916627664 1297.336671515272883
4497.133275409465568 -913.877692078225436 1253.123253428959060
4636.189039963942378 -903.219151423527592 1251.541541466346189
4746.418706997957997 -893.090370282259869 1234.673078016801355
1964.403925310101386 -825.858680055852574 1272.955899422628818
2061.886157760417518 -830.489998296177532 1280.223120537205887
2103.370260474762290 -812.318966736207585 1290.245359884983827
3056.769753040225623 -809.316817804399534 1279.071727573052158
3132.147204576481272 -829.045540638712055 1287.851808025440960
3203.491665187026683 -812.603466946261733 1273.285008044120559
4045.864913950705159 -828.879709735703386 1276.904171311092796
4098.022564606555534 -885.889671244692181 1321.775233825554096
4445.289089626736313 -886.669955783420164 1321.085286458333258
4527.394746668198422 -882.558545280905378 1314.972304400275789
4635.013671875000000 -873.548143888774689 1307.759861996299378
4765.823251382650596 -881.528907136675230 1252.758687775103908
4826.439273214021341 -856.439227165782881 1281.237933815189308
4935.172234614501576 -817.056940318852867 1295.275239215044394
4984.696014647326592 -792.585645586692976 1298.735896920995174
1873.548314980545683 -693.209091447186097 1230.025521196924274
1900.345315297444586 -699.697089149838348 1245.293935321626122
2028.213885434183567 -760.961620747062966 1316.729796633413798
2144.446114532218417 -787.809061854338893 1319.837727696442471
3059.821232722355944 -788.747229942908689 1323.208571213942378
3226.310752263144877 -788.323488265749006 1321.551073831225267
3978.205159505208485 -781.793172200520871 1227.344604492187500
4018.492286369903923 -781.816782160976118 1277.179846071879638
4970.607003804126180 -784.087504866855625 1300.838399650224574
5036.059741475420196 -743.801705977105826 1300.439779239015252
1860.498699190291063 -645.579419847829058 1235.857390517488511
1905.114346112531848 -648.805163319785152 1261.889451424920708
5075.196314800216896 -678.950227423365391 1306.266639004749550
5082.188802666703850 -680.002112057046702 1301.512328372349202
1845.955505349349778 -536.571582050819529 1254.714829007628850
1882.457041422526117 -584.636805216471316 1259.001897176106695
1776.211505964690559 -409.783296173694112 1238.183040843290428
1837.390480108428392 -433.118910309864077 1255.634125335871886
1766.331795479910625 -332.769301409040168 1244.585119047618946
1813.743996103228937 -336.118839854444047 1266.107148234555780
1756.849837642705097 -234.684188157781364 1250.377965023643128
1814.379784372946233 -244.416596532735781 1270.728019905656083
1756.429521185862541 -132.436331011842952 1257.782209371375302
1797.662400247726282 -149.675670570225236 1268.627314194747214
1751.399751383463581 -30.612049905747778 1257.289734497070413
1792.390211507041613 -10.034167726715278 1270.104804105014182
1751.890986098044777 57.147623302799246 1257.188888533826912
1790.991634923330821 81.900248866347795 1271.583120026203460
1749.512819157090235 155.748537806577474 1251.372906174770606
1796.536291333217150 163.445063717041563 1269.764860092114986
1754.879714571681916 264.336259680040655 1245.447167653439237
1819.308572112025786 269.773133158846122 1267.316785233160317
1770.637524764503496 352.111841448186112 1244.720457816237968
1825.724963769997203 363.544125040995198 1258.128050010384641
1778.530270840259391 421.867538776803542 1237.455309279421499
1835.400101287929147 448.701492103791793 1256.125692413542083
1848.797956617570208 555.131537889725678 1253.305140728828746
1886.019047648761898 596.878477248901731 1260.403320702501105
1866.225076590528488 668.484722722995116 1232.445244479893972
1907.993578856932572 668.076442778134378 1255.228017460702631
5074.016179049172933 687.001622234521960 1304.099200534108377
5082.207297392110377 680.160200290905209 1301.626356884735287
1877.652465820312500 714.805847167968750 1225.373718261718750
1967.542523552389639 797.404833625344622 1305.531657499425592
2025.844965607061795 763.913753717774057 1317.312868014159903
2116.764436863148603 798.693835763174661 1290.712690837297941
3047.807487005870371 795.892133204246534 1272.613319002672597
3211.660792725743249 800.959425521708908 1269.504855672641497
3978.825500488281250 781.624816894531250 1228.515655517578125
4018.319145478752944 782.998960723557843 1273.538944297767102
4967.763146628463801 800.845056208923324 1298.065568495920161
5024.019390242765439 756.991778284445672 1300.191826180291400
1961.489670298457895 836.514454162198717 1257.921516767514277
2062.318601941552515 830.712081696231621 1279.836301309979035
2089.999595771471377 828.683439313803888 1295.782278709360298
3067.874850042935122 827.929163965685575 1284.201834579993829
3132.465587623262309 828.981071981306172 1288.010209636563332
3192.276558718697288 828.899124470891593 1280.681113777203564
4046.594758775499031 831.653526965482683 1275.164452305546547
4102.765874489717135 898.151047150326804 1310.169396150107332
4230.686401367187500 902.179214477539062 1317.505035400390625
4343.253112792968750 898.737014770507812 1314.023361206054688
4444.232482910156250 890.887107849121094 1314.635681152343750
4540.002724095395024 891.696346885279581 1297.289011101973756
4645.532869037829187 892.980455900493439 1268.198248612253337
4758.028765760073838 886.352286352306805 1245.210073262584501
4826.718991282622483 856.432855149796978 1281.244154561963114
4917.208333067695094 825.436600069422639 1293.760237284878485
4108.205405463788338 927.303190868777051 1260.961861341813119
4214.542426215277374 934.685757107204836 1254.254652235243157
4322.070149739583030 936.047180175781250 1242.900126139322992
4421.955200195312500 929.608200073242188 1243.566711425781250
4528.155110677083030 919.750244140625000 1244.731058756510492
4628.136718750000000 913.496353149414062 1230.160491943359375
4108.969016801664111 -892.576765230783394 1330.606924187281038
4225.364857066761033 -892.637154319069623 1330.346768465909008
4312.062049278845734 -891.754582331730717 1327.158297025240472
2053.347048581301351 -807.817907610510133 1339.001251804474350
2143.625734845608349 -812.262673069698508 1344.822024236322022
2215.385954884466628 -804.235597167624178 1405.208466416105239
3074.710376061628722 -805.934841461713290 1340.208808500176929
3088.704158151386764 -797.516023244289386 1381.608258784212012
3218.741447485638218 -802.069667855706257 1360.739824633805938
4066.448805790471852 -804.578665605285323 1387.065794932354493
4094.826710637697488 -853.486507767676585 1352.768308967033590
4232.038945065269218 -826.223492199861539 1382.899132322158493
4325.983123090930349 -842.749664077185116 1367.883931324894320
4428.882312593005736 -849.838019476996578 1357.174828907800020
4532.897801717122093 -850.254510879516602 1349.252962748209711
4620.200062897245516 -832.441931773040210 1354.212865797139784
4730.200458233172867 -817.958697979266844 1348.846038035857418
4811.648294270833503 -815.511726888020803 1335.532869466145939
4901.094116210937500 -795.102512359619141 1330.189552307128906
2043.405708975429661 -774.309055344610329 1344.062532647627222
2131.466595830476308 -767.860934116471867 1376.981820269767013
2224.544670600868358 -773.116514317772726 1392.058604765687051
2288.132283528645985 -761.206207275390625 1418.249409993489508
3069.418034632356466 -781.028767293624014 1354.459768731165241
3089.680707285840072 -768.648513972063483 1410.371421724905758
3232.113697891140873 -776.797105815161672 1379.597558865801147
3977.599853515625000 -748.271240234375000 1409.821594238281250
4027.242526997657023 -771.843907461123081 1382.814065989163737
4088.941138290777417 -764.642497737233271 1423.602491425304834
4258.371582031250000 -787.304870605468750 1423.045694986979242
4326.600870768229470 -784.369852701822879 1418.710937500000000
4432.696132812499854 -778.901394042968718 1412.379003906250091
4533.204901512633114 -772.809537846991361 1404.844175947473332
4620.112680288461888 -761.129173865685061 1402.176541841947028
4716.889174731809362 -749.303024064249030 1394.007034529500970
4828.993224736501361 -723.354943269808587 1385.754642283422754
4933.733661073626536 -737.223431673916934 1351.200032552083258
5017.875693696120834 -726.306037008351268 1331.874526872305978
4854.323079427083030 -633.248970262932062 1420.571852620442769
4926.223375738217328 -634.540603025630730 1394.449803591136970
5029.432074620232015 -669.176349263838688 1345.610855856172520
4853.771210969571257 632.028961331973505 1420.637439345687199
4925.606403825609959 634.095300613033601 1395.015507399791886
5029.656346407939964 669.555113689831501 1345.436129499677463
2044.528081664766432 778.551076346393529 1344.049548784181979
2134.090711382516020 773.032214868473147 1369.497118571993724
2221.825640490045316 783.504773983397513 1397.511841750608255
2289.173583984375000 761.678393554687545 1417.030883789062500
3070.507603319846567 787.398047362989928 1350.365479462471058
3089.278661325104167 780.250598841660917 1398.722678616244139
3227.890465989435143 784.886424744774104 1374.435344256609142
3977.600952148437500 748.272888183593750 1409.822875976562500
4039.689470435236217 781.136588079814828 1388.685781204035720
4115.755291913006658 791.779507081020711 1420.277392766650564
4238.434192708333285 799.644812825520830 1406.217003580729170
4319.601754324777175 795.860327584402853 1404.750769478934217
4440.693317522321195 788.921255929129416 1402.048856026785643
4531.577616373698220 775.542353312174441 1403.220807393391851
4622.905924479166970 767.714940954137774 1397.474934895833258
4715.219648088727808 755.067735944475430 1390.293518066406250
4827.776719835069343 759.384278474030680 1365.038126627604242
4941.684902909873017 763.366907092108249 1337.107917232789760
5008.637099095394660 739.331206311677647 1330.079714483963926
2063.140791151258782 820.706778914840129 1331.585131186026047
2139.948342327345472 823.030000162388887 1348.085951470224927
2184.977891281188022 812.165197802155376 1382.538152521306756
3075.173474233085017 812.556794612779527 1331.521159600774126
3211.002676299124232 812.613776004675628 1329.677723277698760
4075.712474405268495 819.434407291974253 1372.722477724712462
4095.183983126512430 859.546147124639788 1347.839658732108319
4231.488505045573220 839.939381408691361 1370.865467325846339
4326.143443325109729 848.999587744997257 1364.115459241365215
4432.953328450520530 853.287897745768191 1357.278238932291742
4533.407812499999636 849.925369262695312 1351.526123046875000
4611.904083251953125 839.477565765380859 1351.778415679931641
4726.845471833881675 827.764163368626669 1343.325484426398134
4793.927314226017188 819.355958450672233 1336.649899504905534
2256.034005460887329 -793.545533622609128 1435.757776314472721
4144.496736444978524 -790.586463341346189 1427.057225936498298
4193.167907714843750 -790.483612060546875 1426.600555419921875
2174.569480084358474 -757.425848778258000 1428.948792477871621
2231.918823590383909 -746.592744775441929 1457.041875889916582
2326.398600145484579 -753.373661419535551 1482.967890766859227
2398.960326409363915 -735.388016963462178 1514.140277512258763
3073.255219959077294 -755.941731770833371 1430.486008417038647
3112.496063777585732 -752.612609700891994 1472.943580966718855
3243.509423031395727 -750.910387216136769 1474.709249173677790
3971.396099975676407 -719.757094284973846 1498.202819507505637
4011.019688131238127 -749.727407311434831 1454.322879932851720
4146.392147891171589 -761.287140769928897 1438.201835436698730
4209.589514243463782 -751.076826649179225 1481.991291500965872
4329.884861267719316 -755.246083682345329 1472.585712236227437
4433.972561621851128 -743.108390867248090 1472.921952595082303
4533.819160587880106 -726.353439752568192 1475.302497653012779
4625.011732313368157 -709.600593990749758 1472.405270046657961
4716.126397235577315 -700.216394042968773 1449.297701322115472
4660.349750974584822 -656.562102665829684 1514.003555266950798
4734.405204669120394 -656.638327344131199 1480.561092888206076
4822.585960066856387 -646.975935473532672 1442.189696825814053
4881.552849264706310 -631.622493968290428 1425.212675206801578
2267.627360026041515 706.064941406250000 1484.494547526041742
2333.096586339614078 709.844146728515625 1521.701491411994539
3962.070844626913185 707.169014568718126 1516.605686981823965
4541.806431361606883 700.486598423549140 1517.143886021205390
4658.751343162727608 654.856439528758528 1512.794081341650099
4734.007134550440242 656.027473683962967 1479.704764387393652
4820.272968698055593 647.136681276686659 1442.573666316905019
4881.448960248161711 631.902810489430180 1425.272425034467005
2174.941998901367242 757.414789810180650 1429.352295837402380
2234.770853283415363 754.590053242203226 1453.272039370805487
2327.279213558627816 755.004648488488556 1481.254789679514261
2399.177797099379859 735.408318374673627 1514.413892047772606
3073.118826729910779 756.039408365885379 1430.878749302455390
3112.691119142063144 753.167101044015794 1472.912360841641657
3243.020585080410456 751.930026142309771 1474.088269118721655
3973.773233113643983 722.900094545534557 1493.473746909498686
4010.694060932839875 749.319662699314904 1454.499544297453667
4149.683989492526052 764.181670878044315 1438.102913257547698
4209.452810731738282 750.472083850750664 1482.708117474842538
4330.162862723213948 763.998746163504507 1455.728543526785643
4437.951784823802882 749.846249844165527 1459.568985310006610
4532.666230799788536 737.848964885129817 1455.494868908898297
4613.191169984878798 727.163300544984850 1447.509163148941525
4690.361328125000000 719.713110351562477 1430.399926757812409
2356.055102107848143 -713.814618729595281 1545.670716364192913
2437.038450792223102 -722.825073865163972 1564.739039792782705
2521.866100957121489 -709.123824181704663 1595.342548808051106
2582.234985351562500 -689.735979352678555 1618.897617885044610
3144.037709288954375 -715.760093887776407 1566.315946001183420
3257.293467486475038 -714.374654782931771 1564.541060727060767
3284.882873535156250 -703.804267883300781 1556.320938110351562
3956.307214025133817 -700.967886020283458 1550.432723432460534
3993.282511393229015 -703.776367187500000 1565.354064941406250
4241.904080565048389 -707.029303182154649 1564.091098223271729
4330.400049603174921 -708.172432066902275 1558.472363668774733
4431.560506184895530 -700.368538411458303 1549.720583089192814
4515.296403556034420 -695.797878923087296 1533.954964473329710
2371.108032226562500 -681.038894653320312 1551.968811035156250
2460.118372443645512 -683.003859682989741 1604.846841601243796
2529.960359556484946 -679.364011331293796 1616.737359241046761
2589.471799115598060 -684.227298620975375 1620.975429254176788
3154.313714531030655 -682.369650165686494 1610.749291237820444
3270.884934599176631 -680.851424494400362 1609.447641457242980
3293.341003417968750 -678.966613769531250 1609.060668945312500
3937.669230889076516 -675.278694230524479 1594.641552750949359
4144.504056490384755 -674.745915339543217 1609.905977689302972
4233.210610884979360 -677.206700942095608 1608.552199471097083
4354.096260007748242 -652.956424429396975 1611.979349940276279
4432.158679279053104 -645.185922613770572 1609.632820150778798
4524.232726748669847 -651.972349149336878 1574.456131441086427
4611.828296026972566 -656.717148720276668 1538.595065138442578
4370.266357421875000 610.163604736328125 1624.215698242187500
2366.679691619357982 706.141647356031172 1546.709215196367040
2441.502566261874108 690.294205014039790 1596.360038088331521
2528.776461124001798 698.846355816555047 1595.075804656987884
2589.368357512910279 684.325571997690986 1620.890601206634074
3148.992753942021409 697.318558175223188 1589.742390413947987
3264.985827809932744 695.563453680014277 1590.535900796857504
3288.882250976562318 692.140710449218773 1581.281530761718841
3945.608115033203831 686.163137465553859 1574.486399902520134
3989.355590820312500 698.435302734375000 1576.799224853515625
4148.309448242187500 675.257975260416629 1608.639648437500000
4236.861599541856776 685.876229708562619 1594.570919916003959
4366.662426440746458 628.876766056209362 1613.965674462256402
4430.504563442008475 644.795485517160500 1610.177549392978108
4519.290363997314671 650.679673875057460 1575.618722073645131
4609.651696995531893 655.121583524113703 1537.391388427504808
2346.689535573189914 719.980383525057391 1543.618304181703934
2444.917344115735432 733.471164789184286 1555.080392559224492
2507.565236531394476 723.721305013968049 1599.199148082112742
3142.522978835809226 725.765277439805345 1555.837661933273466
3253.287640789445504 723.584102190964131 1554.095380973947613
3281.802246093750000 712.446746826171875 1536.997436523437500
3967.013803040747462 716.338112266390908 1535.525200099571066
4001.136474609375000 714.458526611328125 1542.463684082031250
4238.485771855221174 721.448529902590963 1543.428162702729423
4312.983764648437500 714.034515380859375 1552.559814453125000
4385.924316406250000 718.157226562500000 1531.344482421875000
2561.798584630819732 -712.369622711154761 1634.605295718294883
2629.279665462387584 -697.115828051805352 1666.918702003632461
3172.158352164335156 -694.686598075452707 1636.300349509069065
3259.547847678444668 -694.576899441805722 1634.682147216796920
2479.149652654474266 -684.147717562588809 1625.829231955788373
2533.343372367513439 -667.682222092065558 1651.974587273300358
2631.364310574828778 -643.848702117248536 1683.178194320925513
2725.977162347173817 -655.856259945356783 1692.258861931999718
2826.611151769301614 -644.033566596259902 1707.640058196054952
2921.654537304630594 -631.533797080389263 1719.000969711433072
2999.783544459049153 -623.942476823996572 1723.114606088936625
3163.372886455164462 -648.616128462019674 1685.207115931028056
3239.213848397053425 -657.542315139854963 1685.691488441306774
3292.627545882244704 -633.324267212225436 1701.977971135353528
3424.345428466796875 -617.890609741210938 1716.125152587890625
3566.492356654575815 -609.492707170758877 1723.670245361328170
3642.228503988390912 -611.435589856299316 1721.060198061934216
3730.183841566897172 -615.079624979268260 1714.159077294282952
3842.715535867308517 -623.809348419669163 1703.608572936406290
3927.801314298337275 -645.976042903232383 1673.024426540871900
4031.520735520583003 -651.541433125387016 1683.521993712667609
4138.181285949621270 -661.558622674982416 1657.086478092998959
4207.806155214585488 -667.541474779232772 1639.686840963854365
4367.264532399841301 -616.896427441045034 1659.520960775759704
4391.543512547348655 -641.609309984611741 1632.156280332623055
2579.710205078125000 -494.733428955078125 1699.274780273437500
2629.254427384777046 -569.695424460984668 1712.736379537335324
2688.342945510606114 -572.641482746337601 1722.592559139812238
4254.789438100961888 -577.022944523738033 1720.091308593750000
4344.665317336161024 -553.986494416643836 1704.004130369538643
2578.709625244140625 -399.574441042813362 1713.001487038352252
2588.766879405146028 -448.669413757324207 1716.241331747303775
4338.425449731996196 -429.301021302437562 1689.736482412670057
4397.042000304476460 -409.621007755140056 1666.820910766285806
2572.215339263198985 -339.461881238179501 1715.734175497957040
4325.839381416851211 -334.850143371418824 1693.571920833485592
4391.387098006619453 -349.819433472278718 1675.305362281258567
2562.802011263572695 -235.714758339574786 1718.988687676898508
4328.790983531396705 -219.423130644319201 1696.346455834617018
4391.694019074135213 -221.542049164467670 1680.957010125775696
2557.521910661653692 -135.744411048750777 1720.933859736339855
4331.403204595438183 -134.448317155354147 1701.398891977163430
4389.452031772514601 -142.673602605071295 1685.107287792848638
2555.192004876268129 -24.976453327912122 1721.832395370381164
4302.030580012676182 -37.856293272745084 1707.394300242159943
4388.907573559423327 -28.974843430563020 1686.943974468744727
2555.546776961426986 56.870740913971424 1721.670691027203929
4311.730104863448105 74.972588375064007 1704.541052173957723
4389.071722073533238 63.113360144745286 1686.445538247721743
2558.501058695357642 159.096473164641111 1720.635231891257263
4337.231197014761165 173.011478323833217 1698.504120161735273
4389.678612811630046 159.716650435424270 1684.406419990093582
2564.657332248526473 260.163530361263156 1718.366949263622246
4321.704659867848932 261.313874441175585 1694.577291316860737
4393.330335517516687 262.444582546926995 1678.442769028697512
2574.321182901825523 358.166117048941544 1714.940019218842508
2582.032385253906341 405.541573660714278 1720.523042515345878
4327.256507283743304 367.099074052528181 1693.837523049724950
4392.549241946939219 368.935090787855870 1673.780685469551827
2574.713657924107338 448.690187726701993 1703.790797642299140
2591.442475641635156 463.250860360314960 1715.544804180918163
4334.093751543565304 449.748548582054923 1691.992918764200795
4401.146513661776225 428.476878847676460 1659.280094308468506
2634.192934062362383 579.817170290449099 1711.033300191665148
2694.221139704139659 585.978427738819278 1721.157163971836098
3568.723982625932877 609.191357057486016 1724.230492435284532
3624.694606663310879 610.082468576310134 1720.982670668032597
3681.022216796875000 610.983947753906250 1714.955444335937500
4151.357595136089003 605.442737210181463 1719.205755418346826
4212.781516335227025 596.816422895951746 1714.694735440340992
4353.441566665846949 576.278028206709223 1690.840615551778455
2479.209254909206265 684.101182267472495 1625.861917031777921
2533.241438670566367 670.204747616140480 1650.143815837133843
2630.515333838874994 657.088990500399973 1677.653188017114189
2728.598723312612492 662.715100894097873 1689.110952613789323
2826.585724703910273 644.089715269342150 1707.716909204325020
2921.840293842888059 631.497785075016964 1718.934168304572040
3000.141649114830670 623.907421121121615 1723.153996193493867
3164.716755859375098 654.089918983861025 1680.033186163651408
3240.432264213102371 661.058861842459123 1681.216944788080809
3293.037946658329020 632.980939943014505 1701.851267858613255
3424.362091064453125 617.890701293945312 1716.124191284179688
3522.781933593750182 618.182580566406273 1710.725781249999955
3662.084566384826303 613.125194096260088 1721.356152745443978
3729.896514753295378 615.143109891782842 1714.290111606807841
3840.677512378269967 623.756278345022224 1703.855094827743869
3927.649853969036030 645.362384018116586 1673.646992358426132
4031.056206637067589 651.516958019287927 1683.435651014890482
4139.051828003600349 661.806632005275560 1655.343098654475853
4205.273782688904248 669.466706907825710 1636.921114501240481
4371.111300534955262 624.166350884007329 1653.577166211187659
4391.073066918893346 641.426850844568435 1632.349231473715690
2559.358277926738538 714.410905685158923 1632.539046620934869
2673.501632940573927 -610.716246683089480 1730.441130591220599
2731.429955998042260 -600.492139436584580 1746.476638036316444
2829.419680873853395 -638.042026236991433 1743.611615710467731
2929.403126123636412 -645.453551036237627 1739.857711795468731
3038.351421480144381 -629.744222672114688 1740.200118192266473
3127.496817665034996 -625.474448592881458 1740.588810661537309
3231.324043909363354 -627.046332158927385 1749.878392239737423
3333.074170154205603 -617.952966778094947 1744.500280829481881
3427.682462738877348 -615.914501114617792 1745.496569689178159
3524.930506962652998 -616.359704801163275 1741.364255432776190
3624.371626431987352 -621.478973317313603 1740.226283092503763
3728.072274404883501 -631.696197372579945 1739.832486656572428
3813.081373409737353 -634.116612917169959 1733.294540823843818
3925.528979630119920 -613.603313553804696 1744.509573898746567
4025.550119937045110 -606.751128261529175 1737.316479729217235
4110.298871208639866 -597.241790771484375 1731.485689051010922
2675.488256992104198 -573.401865632600106 1728.451234159490014
2715.696242136444653 -569.180045198551056 1737.586342715874935
2840.029614980493989 -564.461068554080043 1767.575961344296275
2929.538622817805845 -556.514760274548507 1783.421655965850505
3030.478154599840764 -547.072875000105569 1795.317853214031857
3131.093443705391564 -538.979566728500004 1802.860954533971835
3231.119454761593715 -531.906449228389988 1807.195377726260404
3331.516977755856715 -526.470992437162181 1808.763792637571896
3431.466207624887829 -520.944740354539476 1808.199964005505535
3531.328567167062829 -516.210012577708540 1805.735314295636954
3629.563346194444875 -512.208934325587506 1801.177129399439764
3728.344143956264816 -518.106972604912016 1794.214450706410616
3829.859856464123368 -516.577676122288608 1787.463242891814843
3932.519915314422178 -512.176597106389067 1776.516717263639748
4031.141500012930919 -508.771050689820242 1766.074429439002188
4142.282164139664019 -504.442704725745386 1754.729831236314340
4222.049463321936855 -500.606089193591913 1746.018477096248716
4319.381354134185131 -501.844673437898621 1737.166507145217338
2580.315643310546875 -391.558193206787109 1725.625030517578125
2592.649436598557713 -410.270032833784057 1728.560044821714655
2724.332246668198422 -434.215400247012894 1767.756344065946678
2831.591074625650890 -442.275745391845703 1790.033050537109375
2924.350504557291515 -447.114671071370424 1803.635696411132812
3037.959745519301578 -454.717915254480715 1814.622357536764639
3128.559112548828125 -456.140657424926758 1820.324653625488281
3223.325585937499909 -469.141090901692735 1822.171622721354197
3328.311309814453125 -471.016723632812500 1822.810424804687500
3432.536523437499909 -460.402465820312500 1822.841833496093841
3532.870396205357338 -443.212140764508945 1821.598807198660779
3667.265910581469143 -485.732016700660154 1808.791186343259824
3739.411336821567147 -486.430812733584105 1797.698285712227062
3829.506734182668424 -482.933799288993669 1789.337783325550163
3929.930303108179032 -478.712886442038950 1780.559522418884626
4030.635713919274167 -474.676971795443251 1770.547626103769517
4138.913169067626768 -470.228670722760171 1758.917057349395918
4232.402016687874493 -467.075692619940241 1749.162155613754749
4319.014761965453545 -446.783027707654526 1743.224963199516651
2574.559345245361328 -339.877602259318053 1728.063278961181595
2624.401328346946229 -340.875398809259593 1746.708831787109375
2732.152131111391100 -341.889431861139087 1778.358114919354875
2831.730834960937500 -334.004267011369961 1799.834315708705390
2929.568990071614735 -353.836023966471373 1812.994578043619867
3010.566497802734375 -360.209026336669922 1821.128524780273438
3638.308733258928442 -366.851231166294667 1823.900896344866169
3730.301489257812591 -346.582983398437477 1819.726232910156341
3829.478393554687500 -340.923320770263672 1813.073822021484375
3930.842585637019056 -329.987736628605774 1805.066077599158689
4056.697354403409008 -337.889112992720186 1791.908802379261260
4146.237972861842536 -337.928365607010676 1781.920358758223756
4246.475000000000364 -341.899139404296875 1769.478002929687591
4323.115509625394225 -333.995756092540375 1756.401790919926952
2565.331931340144365 -238.784168857672285 1731.308206755809351
2619.609493132560601 -235.059805100963956 1752.405619959677324
2731.540113366168498 -241.967459637185812 1784.880477241847757
2823.046671549479015 -237.300031026204437 1804.265482584635492
2929.329345703125000 -255.076237071644186 1819.286931818181756
3771.474609375000000 -259.248992919921875 1822.440917968750000
3814.541259765625000 -242.645227432250977 1820.500305175781250
3934.055957031249818 -237.402684529622405 1810.608129882812591
4050.865458170572765 -240.808923085530608 1799.041798909505133
4127.766523881392459 -240.974295876242905 1791.020918412642004
4253.433593750000000 -246.668767293294280 1775.960734049479242
4319.173033384518931 -243.194881795722750 1763.069720580199146
2559.990425971685454 -138.985018636043520 1733.277502688159529
2618.387946633731644 -142.399301416733692 1755.812514361213289
2729.246900475543498 -150.647375355596125 1788.011766516644002
2830.328389485677235 -145.497270584106445 1809.243347167968750
2907.812011718750000 -153.457965850830078 1820.810607910156250
3838.080973307291515 -145.283803304036468 1822.638407389322992
3921.557996961805657 -139.994698418511291 1815.571004231770758
4051.712207031249818 -133.105055236816412 1803.408093261718705
4150.527099609375000 -140.946704319545205 1792.760620117187500
4262.156250000000000 -141.871292114257812 1779.433715820312500
4316.534547542190921 -141.013939033578595 1767.731008722966408
2557.461047940065782 -25.970546252157789 1734.177612966571360
2627.502520161290249 -36.334031608285322 1760.889892578125000
2726.968742819393356 -43.640378163421701 1789.697366153492567
2831.525278727213390 -41.404862419179885 1811.401240030924555
2906.243652343750000 -48.554895609271369 1822.783162434895758
3854.333658854166515 -46.873235068385348 1822.884643554687500
3931.843641493055657 -31.727592748281772 1816.628553602430657
4044.169592815896522 -39.341458271988934 1805.857825237771749
4119.241954510986034 -1.905298305286475 1798.428284985789560
4262.808984375000364 -8.557467885249986 1782.060156250000091
4315.538197803792173 -31.767264241001545 1770.261355287620063
2557.825079615336563 54.768142213783108 1734.109319112387084
2616.475848162615875 66.369816956696681 1756.896647135416742
2727.511608886718932 69.628279685974121 1789.763140869140670
2834.088971819196558 71.676720482962466 1811.782557896205390
2903.916259765625000 74.868317286173507 1822.416503906250000
3851.970296223958485 79.360961914062500 1822.985229492187500
3933.593212890625182 66.621078491210938 1816.346923828125000
4045.530500139509058 63.992734909057617 1805.486057826450860
4137.010033017113528 64.291940234956286 1796.093331473214221
4315.558494872674601 57.234714134323340 1769.862786937828787
2560.814345524228884 160.430813781146355 1732.911544405180848
2624.078116861979197 157.625219217936205 1757.166361490885492
2728.348229449728478 160.219274106233030 1787.534763502038004
2826.713936941964221 160.494316101074219 1808.152117047991169
2913.243432617187409 156.572227478027344 1821.319580078125000
3834.175323486328125 159.358346939086914 1822.306854248046875
3935.801904296874909 158.759064483642589 1813.723095703124955
4054.168599446614735 165.015614827473968 1802.213989257812500
4145.633932674631978 165.584861755371094 1792.355906767003717
4262.156250000000000 141.871292114257812 1779.433715820312500
4317.093212705351107 162.454486471901845 1767.181141858925002
2567.088330028249402 261.630102280333290 1730.699236580495153
2621.152066617398759 258.619084951039895 1751.566871436866450
2727.191213507401244 259.262578060752446 1782.949013157894797
2827.550878906250091 255.045665740966797 1804.195092773437409
2929.329345703125000 255.076237071644186 1819.286931818181756
3771.474609375000000 259.248992919921875 1822.440917968750000
3808.942535400390625 257.254297256469727 1820.274261474609375
3933.343444824218750 260.554361343383789 1809.561172485351562
4060.560458096590992 261.892944335937500 1796.695456764914752
4132.772280485733972 259.177247420601248 1789.228271484375000
4260.558349609375000 261.047973632812500 1773.573364257812500
4320.130912237736993 264.436458274522977 1762.128947261896656
2576.087946662647028 353.852437801489089 1727.534125124528146
2590.367383415316453 394.100698777187006 1729.404835642119906
2724.639623181573370 361.090998156317369 1774.984387627963315
2834.987626509232996 359.497693148526253 1798.584367231889246
2929.614648437499909 354.464164225260390 1812.971940104166606
3012.998465401785779 356.519452776227695 1821.647478376116169
3639.073730468750000 371.791320800781250 1823.612274169921875
3740.366238064236313 358.972652859157961 1818.143839518229242
3835.223795572916515 361.378170437282961 1810.979722764756843
3937.574811662946558 348.774906703404042 1803.036464146205390
4054.882500542534672 360.269953409830748 1790.108500162760492
4150.600652521306984 363.157861882990062 1778.995050603693244
4245.411621093750000 366.528111049107167 1767.117082868303669
4324.447679322247495 361.636520505547082 1753.102679822378605
2618.598135653408917 448.073307661576678 1733.774283114346645
2724.702219317036452 467.528395129788294 1764.097770444808475
2829.134613037109375 471.837961832682311 1786.384582519531250
2929.441830842391482 467.276214599609375 1802.119867739470010
3030.848260176809163 462.025371350740159 1813.231772974917703
3128.900218290440989 461.295315013212303 1819.723783605239078
3266.459311208417148 509.005738078174488 1816.861733994725682
3334.006662525850061 507.303717875761151 1810.266120533662615
3431.853629700544388 501.898091686781015 1808.852880246337463
3531.222125923410658 496.631338334877626 1806.412803585859137
3630.153279216262945 491.837057084319440 1802.095707175350299
3733.202653928663040 487.428365054938297 1796.102860947906038
3832.819230121534019 489.558901764725306 1785.803164678418170
3931.756757743956769 487.931496007529688 1775.871673843276767
4036.251496457524809 488.890882479941865 1767.745860634498513
4140.460018542863509 487.768740259514175 1756.894796992636202
4225.062690614664461 486.809009930489651 1747.136533068062135
4317.276823299298485 484.136127410476831 1739.502222251864396
2675.414423407903541 576.016690759028506 1728.554781597436659
2718.815166866069831 578.387066823590089 1740.277376887662740
2837.620738902018275 565.569502479436892 1767.736578120543072
2928.775577981928564 554.139766622227057 1782.349260023551778
3029.700620636765052 544.177360537516506 1794.127343400576592
3130.425071372065304 533.054178696810936 1800.419172819649702
3230.604222837187535 532.059496977005324 1806.752451541527762
3332.994289065471094 549.111366947733814 1798.586531261885057
3430.929259220934455 555.723074244259919 1788.125775752793970
3529.831219806578702 550.515195535489170 1786.301980782541250
3629.996613169945704 529.844838694930900 1798.700546592953515
3731.533141937636174 523.678117899526114 1794.563151041666742
3824.715089571262524 521.464058402045225 1791.406873936716693
3935.295750180036521 521.884681829527153 1783.695992615769001
4012.000878194080542 524.826081852317429 1773.956716337525677
4127.017715383784889 559.350909395701365 1747.399181172595036
4198.584757486979470 545.482615152994754 1742.926773071289062
4338.934037285219347 523.203786721183519 1728.903067536675962
2665.077097314035655 612.468902587890625 1727.519880767561517
2744.970491340361605 644.557294362998846 1735.818921192582820
2844.939062581561302 658.523047942095673 1733.746665903614030
2927.923296520872100 645.942499946362204 1739.080079421739129
3038.930395648527337 629.652726213526648 1739.553535694485163
3127.384903491316436 625.511377703340941 1740.486761318157278
3230.776708455072821 627.510486799203932 1749.438891164888219
3330.028256482158667 619.028746353952556 1745.044479547423634
3428.739137202468100 618.767982360269457 1748.545393134856795
3527.375542292950740 618.837054725022881 1743.873681041032341
3624.430372160624756 621.943510660311063 1738.568451392941370
3726.575731084118161 632.851729468776739 1738.396161306720842
3811.597961994684283 636.978361533580255 1730.539860345710849
3926.928236850472331 625.250195170557731 1735.529417525890267
4017.687377929687500 618.828352864583280 1729.616532389322856
3170.372070312500000 -408.858627319335938 1827.024902343750000
3246.596028645833485 -419.487243652343750 1827.920878092447992
3335.981556285511488 -433.405997536399127 1827.178977272727252
3430.352186414930657 -418.201805962456604 1827.443210177951414
3518.708821614583485 -392.107055664062500 1827.455240885416742
3052.082946777343750 -333.506065368652344 1826.595153808593750
3124.625427246093750 -346.872390747070312 1829.935587565104242
3229.051653180803442 -348.542513166155118 1833.332449776785779
3337.673076923077133 -341.154864971454344 1834.902146559495122
3440.933980305989735 -336.418795267740904 1833.922851562500000
3532.670263671875091 -334.366769409179710 1831.267785644531159
3622.406494140625000 -315.027614048549083 1828.611101422991169
3692.604736328125000 -303.667755126953125 1825.800170898437500
2961.871826171875000 -215.751754760742188 1825.491333007812500
3028.192972819010265 -248.889963785807282 1829.605377197265625
3129.707499186197765 -245.875127156575530 1836.256154378255133
3234.895263671875000 -242.803665161132812 1839.963595920138914
3336.654876708984375 -239.895561218261719 1840.882888793945312
3425.565562855113512 -237.353185480291188 1840.066162109375000
3530.198754882812409 -239.730085754394537 1836.818469238281295
3625.255712890625091 -243.444564819335938 1832.546142578125000
3720.853131975446558 -222.888421194893965 1827.839529854910779
2947.105285644531250 -125.086795806884766 1826.469818115234375
3016.926269531250000 -142.414747238159180 1832.718770345052008
3118.593750000000000 -140.739602406819671 1839.579091389973883
3228.118310546874909 -135.271271514892589 1843.585595703124909
3339.402832031250000 -137.831888580322271 1844.470300292968659
3430.781933593750182 -138.252146911621082 1843.428124999999909
3533.029968261718750 -128.615607261657715 1840.809188842773438
3636.802124023437500 -143.259988149007171 1835.703328450520758
3724.375634765624909 -147.027929687500006 1830.402148437500045
3799.941894531250000 -103.445652008056641 1826.763427734375000
2955.981977982954504 -40.035263057072186 1828.819258256392004
3034.995418772978155 -41.850209404463932 1836.012372185202139
3133.412402343749818 -39.410307320413807 1842.086775716145894
3230.602033342634058 -43.414331715190521 1845.257158551897419
3334.053059895833485 -36.305759924746070 1846.212044270833303
3436.132699819711434 -41.403072609991490 1845.004986102764406
3532.761408025568016 -37.433339482411085 1842.225963245738740
3627.903253728693016 -45.069075095186840 1838.031283291903492
3729.016268643465992 -39.984076438296036 1832.148337624289752
3805.126342773437500 -36.325657652019061 1827.110941569010492
2954.689139229910779 70.711332048688618 1828.596226283482110
3031.304850260416515 71.804359753926590 1835.619272867838617
3130.795831853693016 70.980501348322093 1841.831609552556756
3229.850854492187409 71.318140411376959 1845.200903320312591
3329.116889105902828 70.594630347357850 1846.177666558159672
3429.443115234375000 69.729100121392150 1845.099975585937500
3528.225616455078125 69.039780139923096 1842.308151245117188
3619.607596261160779 65.276138850620811 1838.401262555803669
3728.601946149553442 62.832118988037109 1832.095319475446331
3800.247721354166515 70.807538986206055 1827.240254720052008
2965.269775390625000 141.004526774088532 1827.971638997395758
3025.642028808593750 156.810589472452790 1832.962524414062500
3129.056002103365245 159.214790931114777 1839.508836012620122
3230.752216045672867 165.471563485952515 1842.807748647836434
3326.602050781250000 156.342944145202637 1843.872879028320312
3420.449804687500091 162.715422821044911 1842.946643066406295
3526.140950520833485 159.762319776746949 1840.068576388888914
3630.286132812500000 158.968249850802948 1835.517035590277828
3727.305603027343750 160.881139755249023 1829.738037109375000
3798.582519531250000 116.095046997070312 1825.904663085937500
2961.871826171875000 215.751754760742188 1825.491333007812500
3031.919788707386488 248.768195412375718 1829.954112659801240
3125.570312500000000 254.525215148925781 1835.740753173828125
3233.629255022321558 257.388706752232167 1839.293736049107110
3337.251770019531250 273.096042633056641 1839.147521972656250
3435.871622721354015 264.484069824218750 1838.609415690104242
3528.806005859375091 266.931906127929665 1835.580273437499955
3643.599324544270985 263.262095133463561 1830.769165039062500
3702.472900390625000 261.292579650878906 1827.358764648437500
3056.472493489583485 338.907938639322936 1826.657023111979242
3138.121375450721189 353.585777869591368 1830.049222506009528
3240.422607421875000 366.661380343967039 1832.503824869791742
3328.768595377604015 369.872055053710938 1832.921875000000000
3411.635223388671875 366.223327636718750 1832.534606933593750
3520.705535888671875 361.556385040283203 1829.889373779296875
3608.069580078125000 337.711181640625000 1827.953002929687500
3230.479248046875000 436.684432983398438 1825.938781738281250
3338.571695963541515 443.377995808919252 1826.318440755208258
3423.538378906249818 436.930920410156261 1825.873828125000045