# This PCD file was generated using the MATLAB® pcwrite function
# from Computer Vision Toolbox®.
# .PCD v.7 - Point Cloud Data file format
VERSION .7
FIELDS x y z
SIZE 8 8 8
TYPE F F F
COUNT 1 1 1
WIDTH 1740
HEIGHT 1
VIEWPOINT 0 0 0 1 0 0 0
POINTS 1740
DATA ascii
-0.710807323455811 -0.928229212760925 0.079607695341110
-0.630824923515320 -0.924092292785645 0.078540116548538
-0.527970075607300 -0.913723707199097 0.080467313528061
-0.446846246719360 -0.912430882453918 0.083942323923111
-0.704818248748779 -0.860481381416321 0.041975736618042
-0.624686956405640 -0.872252941131592 0.067934960126877
-0.527238130569458 -0.870523691177368 0.062491059303284
-0.443208694458008 -0.854394912719727 0.051319062709808
-0.338862657546997 -0.809101343154907 0.035198062658310
-0.258825063705444 -0.830048918724060 0.047592818737030
-0.120343208312988 -0.850816369056702 0.044717937707901
-0.039176702499390 -0.848231554031372 0.055211722850800
0.074591159820557 -0.853705048561096 0.046927481889725
0.162681341171265 -0.831033349037170 0.048932760953903
0.266242265701294 -0.809792757034302 0.039979338645935
0.376065969467163 -0.819159507751465 0.042226821184158
0.480599641799927 -0.828114390373230 0.056379914283752
0.545971155166626 -0.824573874473572 0.043965309858322
0.700057506561279 -0.856498599052429 0.064727932214737
0.769732236862183 -0.847791433334351 0.055886685848236
0.901745796203613 -0.841886639595032 0.051399439573288
0.950715303421021 -0.842362046241760 0.056940436363220
-0.708852052688599 -0.783432602882385 0.011837363243103
-0.631243109703064 -0.783702731132507 0.015084892511368
-0.525358915328979 -0.784284472465515 0.021660298109055
-0.458242893218994 -0.784540891647339 0.021535098552704
-0.317156314849854 -0.781537890434265 0.000000000000000
-0.201025962829590 -0.781157612800598 0.000259995460510
-0.163388252258301 -0.782103061676025 0.006955295801163
-0.033779859542847 -0.781316399574280 0.001804560422897
0.036771535873413 -0.781507849693298 0.002765804529190
0.189444780349731 -0.781318902969360 0.003591775894165
0.268572807312012 -0.781390309333801 0.004350960254669
0.372556924819946 -0.782979488372803 0.015179008245468
0.725142955780029 -0.783499717712402 0.020419120788574
0.959246397018433 -0.783119797706604 0.023092836141586
-0.710100769996643 0.783427000045776 0.012115657329559
-0.633097410202026 0.789488315582275 0.020095437765121
-0.523893237113953 0.789630293846130 0.023942172527313
-0.456270337104797 0.784090161323547 0.018470406532288
-0.340400695800781 0.802418351173401 0.030342787504196
-0.243345260620117 0.801260709762573 0.026848882436752
-0.163969993591309 0.782188057899475 0.007046103477478
-0.032171249389648 0.781332612037659 0.001780152320862
0.034947872161865 0.781553268432617 0.002748668193817
0.161909818649292 0.801502227783203 0.031986832618713
0.267057895660400 0.796016454696655 0.023831337690353
0.374922037124634 0.784616708755493 0.019695907831192
0.501351594924927 0.803962469100952 0.041083514690399
0.521412849426270 0.807932257652283 0.041726648807526
0.725153207778931 0.784167647361755 0.022479146718979
0.898309946060181 0.802133321762085 0.045863240957260
0.978909969329834 0.787318229675293 0.035217732191086
1.044975042343140 0.789786696434021 0.020943760871887
1.175369024276733 0.799238562583923 0.034681737422943
1.288637638092041 0.788978934288025 0.029352962970734
1.376331806182861 0.784414887428284 0.031516671180725
-0.704345583915710 0.862372517585754 0.042319327592850
-0.625379681587219 0.878558039665222 0.071030825376511
-0.526621460914612 0.885172605514526 0.070093542337418
-0.445943117141724 0.868370056152344 0.059909015893936
-0.286117792129517 0.817704200744629 0.036659121513367
-0.256859540939331 0.846429228782654 0.056402742862701
-0.135586500167847 0.848546385765076 0.043647766113281
-0.044033050537109 0.846429228782654 0.058134794235229
0.119476079940796 0.833733439445496 0.041775196790695
0.170381784439087 0.847889423370361 0.051649451255798
0.261429309844971 0.854524970054626 0.048477739095688
0.355952739715576 0.843189239501953 0.045934677124023
0.467413425445557 0.843522787094116 0.066099494695663
0.559401512145996 0.833733439445496 0.045189559459686
0.700771808624268 0.856386303901672 0.064203739166260
0.773093223571777 0.851719498634338 0.056807547807693
0.887787342071533 0.851894855499268 0.054198026657104
0.977706909179688 0.847654223442078 0.058529883623123
1.045151472091675 0.855362892150879 0.073382765054703
1.164719343185425 0.857325792312622 0.072792083024979
1.270957231521606 0.871823549270630 0.069557100534439
1.334025621414185 0.894714474678040 0.081471532583237
-0.709909796714783 0.928427100181580 0.079417973756790
-0.631447792053223 0.926038265228271 0.078642696142197
-0.530371904373169 0.918513774871826 0.080894261598587
-0.446787357330322 0.913155317306519 0.084120184183121
-0.730482101440430 -0.932425618171692 0.138353794813156
-0.629245162010193 -0.937424659729004 0.101836949586868
-0.531879186630249 -0.926276445388794 0.103045731782913
-0.442340135574341 -0.926920413970947 0.138070434331894
1.317895650863647 -0.892226934432983 0.179591685533524
1.386774539947510 -0.946295738220215 0.174273878335953
-0.710296750068665 -0.828562498092651 0.138974636793137
-0.624112248420715 -0.840375542640686 0.129879683256149
-0.535904169082642 -0.844424486160278 0.146982461214066
-0.427925348281860 -0.855672836303711 0.162108749151230
-0.329816818237305 -0.855508089065552 0.163866370916367
-0.229389905929565 -0.854491829872131 0.176678866147995
-0.147407531738281 -0.851578593254089 0.167552024126053
-0.043999910354614 -0.850037336349487 0.176345318555832
0.068916797637939 -0.854517698287964 0.167961686849594
0.176974534988403 -0.856365799903870 0.179514557123184
0.277610540390015 -0.854009985923767 0.184306055307388
0.350714206695557 -0.850335836410522 0.144133180379868
0.455326557159424 -0.859423637390137 0.189087659120560
0.575629711151123 -0.851652860641479 0.147778481245041
0.656761884689331 -0.855146765708923 0.159957796335220
0.771095991134644 -0.853969216346741 0.161919027566910
0.880121469497681 -0.856798291206360 0.186773031949997
0.978566408157349 -0.856528520584106 0.185357660055161
1.031990528106689 -0.854896426200867 0.164862602949142
1.167920589447021 -0.851530671119690 0.146860092878342
1.285486221313477 -0.863305926322937 0.172521978616714
-0.706249594688416 -0.784067273139954 0.163587421178818
-0.629877805709839 -0.783943414688110 0.159951955080032
-0.552391529083252 -0.784358382225037 0.174919456243515
-0.160324096679688 -0.786081433296204 0.188237279653549
-0.706776857376099 0.787251353263855 0.160186380147934
-0.631728291511536 0.784289717674255 0.159722656011581
-0.552404403686523 0.785023570060730 0.174233108758926
-0.158411264419556 0.787858009338379 0.187743932008743
-0.711445450782776 0.843472719192505 0.131685107946396
-0.622139096260071 0.843727111816406 0.128494948148727
-0.535593390464783 0.847026228904724 0.145330995321274
-0.427685976028442 0.856459856033325 0.161078721284866
-0.332655191421509 0.855311632156372 0.162780910730362
-0.227800607681274 0.853360056877136 0.176174908876419
-0.147482633590698 0.853251576423645 0.166894644498825
-0.043244361877441 0.849858880043030 0.174569338560104
0.063892602920532 0.853140115737915 0.163909286260605
0.183000087738037 0.847564101219177 0.176803559064865
0.276939630508423 0.853983998298645 0.184250801801682
0.350844383239746 0.850376844406128 0.144014984369278
0.450356006622314 0.859515309333801 0.189075320959091
0.575773477554321 0.851762890815735 0.148198395967484
0.656801462173462 0.855180382728577 0.159941941499710
0.771216154098511 0.853975534439087 0.162118583917618
0.876664876937866 0.856639981269836 0.184700459241867
0.983730077743530 0.854280233383179 0.158734947443008
1.058732986450195 0.850057244300842 0.168508440256119
1.162491321563721 0.850895285606384 0.153823167085648
1.282579660415649 0.863370776176453 0.155796974897385
1.337337255477905 0.904815077781677 0.139738529920578
-0.730606198310852 0.932550072669983 0.138874858617783
-0.630547523498535 0.937536716461182 0.101139932870865
-0.531863331794739 0.926325321197510 0.102774888277054
-0.442412853240967 0.927135825157166 0.138854175806046
1.381336927413940 0.945099115371704 0.166273564100266
-0.783518314361572 -0.942049384117126 0.281947284936905
-0.747789263725281 -0.940554618835449 0.237710684537888
-0.631716370582581 -0.947863936424255 0.237479299306870
-0.522465705871582 -0.940041065216064 0.243189185857773
-0.450162529945374 -0.937919735908508 0.242982715368271
1.399930715560913 -0.956156134605408 0.223835974931717
1.431115627288818 -0.958702087402344 0.255627185106277
-0.508190751075745 -0.853342771530151 0.203986555337906
-0.409005641937256 -0.857453346252441 0.259341388940811
-0.332468986511230 -0.835536360740662 0.231658011674881
-0.241826057434082 -0.811460018157959 0.198762923479080
-0.157228946685791 -0.795262455940247 0.196081370115280
-0.044205665588379 -0.802039146423340 0.195344537496567
0.049878597259521 -0.802634596824646 0.196090608835220
0.194560050964355 -0.795558929443359 0.199007064104080
0.276164531707764 -0.813400983810425 0.198345392942429
0.373687267303467 -0.836931586265564 0.219704061746597
0.443224191665649 -0.857843637466431 0.222075372934341
0.565396785736084 -0.850907444953918 0.242222040891647
0.683182477951050 -0.831594228744507 0.246955722570419
0.770400762557983 -0.806917786598206 0.213490277528763
0.862543582916260 -0.819507360458374 0.198637098073959
0.982955217361450 -0.824610114097595 0.198873966932297
1.071128606796265 -0.842711091041565 0.205535858869553
1.175994873046875 -0.839955329895020 0.245568484067917
1.246361732482910 -0.848277091979980 0.272047966718674
1.325407505035400 -0.866644144058228 0.276572555303574
-0.726586222648621 -0.781701087951660 0.192719072103500
-0.673805117607117 -0.781701087951660 0.192721515893936
-0.529861330986023 -0.781900286674500 0.198622256517410
-0.315053462982178 -0.785445213317871 0.252794295549393
-0.228368759155273 -0.785564541816711 0.205105453729630
-0.159890651702881 -0.785749912261963 0.198393851518631
0.051056385040283 -0.785541296005249 0.202595144510269
0.205946207046509 -0.785893440246582 0.202051371335983
0.261859178543091 -0.785655379295349 0.205433994531631
0.372894763946533 -0.785461068153381 0.231887489557266
0.429385185241699 -0.785792589187622 0.280635923147202
0.707258939743042 -0.784649133682251 0.273396342992783
0.764595270156860 -0.785283088684082 0.222520202398300
0.852371215820312 -0.786227345466614 0.206808418035507
0.981836795806885 -0.785556197166443 0.209903031587601
1.069144487380981 -0.785489201545715 0.222926229238510
1.170530796051025 -0.785484671592712 0.261508673429489
1.221220731735229 -0.786450147628784 0.289520531892776
-0.726586222648621 0.781738996505737 0.192719072103500
-0.673805117607117 0.781738996505737 0.192721515893936
-0.529953718185425 0.781922459602356 0.198535472154617
-0.314958572387695 0.788400530815125 0.250519603490829
-0.226776123046875 0.788048028945923 0.203584879636765
-0.158832550048828 0.787405252456665 0.198138624429703
-0.035773515701294 0.795932412147522 0.196581691503525
0.050088644027710 0.791669011116028 0.199551194906235
0.204486608505249 0.787496089935303 0.201237827539444
0.262538433074951 0.788163304328918 0.204416900873184
0.372905254364014 0.787564873695374 0.232069939374924
0.428669691085815 0.786548137664795 0.279292792081833
0.706524133682251 0.786279439926147 0.272533088922501
0.764097452163696 0.788483023643494 0.221449226140976
0.850710630416870 0.787850975990295 0.206308633089066
0.981694698333740 0.787362337112427 0.207633465528488
1.075146675109863 0.787766933441162 0.217270225286484
1.169563055038452 0.788568973541260 0.245611041784286
1.247126340866089 0.787726163864136 0.270130962133408
-0.508081436157227 0.853410363197327 0.203881770372391
-0.409454345703125 0.857436776161194 0.259111851453781
-0.336526870727539 0.839630365371704 0.232027858495712
-0.255384445190430 0.823019742965698 0.198590248823166
-0.157092571258545 0.821842789649963 0.191042214632034
-0.048967123031616 0.821564793586731 0.191568762063980
0.050807237625122 0.822186827659607 0.192115157842636
0.167930126190186 0.824111104011536 0.191692858934402
0.287337064743042 0.830827593803406 0.195129126310349
0.373966693878174 0.853117465972900 0.215610772371292
0.443186998367310 0.858468055725098 0.221590369939804
0.565423727035522 0.851063609123230 0.240063756704330
0.676454782485962 0.842736840248108 0.241214483976364
0.774980783462524 0.822324633598328 0.208448201417923
0.869035959243774 0.832356810569763 0.195658773183823
0.984907865524292 0.835733175277710 0.196287006139755
1.071342468261719 0.849494338035583 0.203639060258865
1.175454378128052 0.851513266563416 0.233659952878952
1.270491600036621 0.857099533081055 0.248479276895523
1.326469421386719 0.871826410293579 0.265421241521835
-0.783604860305786 0.942044019699097 0.282005399465561
-0.748075962066650 0.940543651580811 0.237843126058578
-0.631681919097900 0.947852373123169 0.237187534570694
-0.523822784423828 0.940135002136230 0.243006199598312
-0.450118660926819 0.937984943389893 0.242315620183945
1.386652946472168 0.953529238700867 0.224880188703537
1.430964469909668 0.958642363548279 0.255095988512039
-0.806160569190979 -0.945605754852295 0.354029148817062
-0.762337088584900 -0.951289892196655 0.327351421117783
-0.634588360786438 -0.951678276062012 0.340938955545425
-0.533910512924194 -0.945539593696594 0.339003473520279
-0.456151723861694 -0.941052794456482 0.336637526750565
1.397179365158081 -0.958102941513062 0.343767970800400
1.462873458862305 -0.965187907218933 0.334964841604233
-0.538695812225342 -0.846750974655151 0.317374080419540
-0.397366523742676 -0.852650761604309 0.340886682271957
-0.369114875793457 -0.825763106346130 0.338583320379257
0.490491390228271 -0.849114894866943 0.344943314790726
0.567898511886597 -0.855084180831909 0.344157785177231
0.658275127410889 -0.823227167129517 0.336020380258560
1.281986236572266 -0.812512159347534 0.331562131643295
1.339724779129028 -0.842295765876770 0.366418629884720
-0.350005626678467 -0.785284161567688 0.321751385927200
0.413123130798340 -0.784051060676575 0.291970938444138
0.467828512191772 -0.785643815994263 0.338343650102615
0.681385278701782 -0.785103082656860 0.342806726694107
1.208388328552246 -0.784182548522949 0.295343607664108
1.273580789566040 -0.785457611083984 0.336677700281143
1.321827411651611 -0.785924911499023 0.387599080801010
-0.350301027297974 0.785787940025330 0.322168678045273
0.413123130798340 0.784088850021362 0.291970938444138
0.471711874008179 0.786728620529175 0.344902306795120
0.681486606597900 0.785408139228821 0.341316908597946
1.208707809448242 0.783872485160828 0.296961039304733
1.281400680541992 0.792637705802917 0.335112005472183
1.326790094375610 0.794760584831238 0.380504101514816
-0.538695812225342 0.846788763999939 0.317374080419540
-0.397659778594971 0.853083252906799 0.340723067522049
-0.370891332626343 0.829741716384888 0.339809626340866
0.490525722503662 0.862405896186829 0.337773531675339
0.569529771804810 0.854943871498108 0.344185918569565
0.655417442321777 0.827733635902405 0.337887376546860
1.285602331161499 0.858598828315735 0.312851160764694
1.345708608627319 0.869889497756958 0.355423301458359
-0.805485129356384 0.945665121078491 0.353340119123459
-0.762419462203979 0.951170563697815 0.327036112546921
-0.636660456657410 0.951928853988647 0.342994600534439
-0.535875678062439 0.945548295974731 0.337464898824692
-0.456104159355164 0.940995454788208 0.334851711988449
1.396932601928711 0.958528757095337 0.342777580022812
1.462524652481079 0.965174317359924 0.334188848733902
-1.482715606689453 -0.907478094100952 0.480898231267929
-1.412322402000427 -0.938772797584534 0.485297769308090
-0.911302566528320 -0.948287129402161 0.466852337121964
-0.848602533340454 -0.952104926109314 0.429105490446091
-0.735692262649536 -0.959558963775635 0.440915316343307
-0.633861541748047 -0.954084277153015 0.440531164407730
-0.527220487594604 -0.951284885406494 0.443062454462051
-0.461933732032776 -0.949339389801025 0.443318754434586
1.413424253463745 -0.917609214782715 0.424241572618484
1.480786085128784 -0.956282258033752 0.431919425725937
1.562817573547363 -0.969507098197937 0.456786602735519
-0.394011020660400 -0.860407352447510 0.428944557905197
-0.375725269317627 -0.849239230155945 0.439343184232712
0.505025863647461 -0.797921538352966 0.404778987169266
0.543280839920044 -0.844711780548096 0.442129343748093
0.666099548339844 -0.847607731819153 0.444112569093704
1.375320196151733 -0.819515943527222 0.433085411787033
1.429193258285522 -0.887055039405823 0.479038268327713
-0.353677034378052 -0.784651279449463 0.461908608675003
0.495438337326050 -0.786094903945923 0.409300178289413
0.678567647933960 -0.785496711730957 0.392447203397751
1.310330152511597 -0.784051060676575 0.405996292829514
1.354398727416992 -0.786521434783936 0.437177509069443
2.741572380065918 -0.593947410583496 0.485609561204910
2.760774612426758 -0.548237204551697 0.470207184553146
2.785959720611572 -0.438802510499954 0.468249112367630
2.802304744720459 -0.333298206329346 0.468232244253159
2.812364101409912 -0.239430859684944 0.468212693929672
2.817849636077881 -0.158864513039589 0.468193501234055
2.820561885833740 -0.111388221383095 0.468232899904251
2.818211078643799 -0.061355043202639 0.472942918539047
2.822134017944336 -0.031806066632271 0.468206495046616
2.819111347198486 0.093065515160561 0.468329817056656
2.821746349334717 0.058379024267197 0.468207091093063
2.817512989044189 0.166966140270233 0.468214601278305
2.820248126983643 0.124834083020687 0.468175202608109
2.809824943542480 0.267210394144058 0.468235403299332
2.799793720245361 0.352086097002029 0.468227654695511
2.781845092773438 0.460481315851212 0.468263715505600
2.755804538726807 0.562018156051636 0.473297029733658
-0.358198404312134 0.793914556503296 0.417311340570450
0.499161481857300 0.788311958312988 0.408843904733658
0.535509824752808 0.793496012687683 0.456594377756119
0.681143045425415 0.791499853134155 0.418413192033768
1.310330152511597 0.784088850021362 0.405996292829514
1.365878343582153 0.790830373764038 0.436150103807449
-1.482701301574707 0.907533049583435 0.480931133031845
-1.471252679824829 0.910280823707581 0.481949716806412
-0.393715381622314 0.860468506813049 0.430836290121078
-0.378672599792480 0.858581662178040 0.444104522466660
0.517803907394409 0.864633440971375 0.394372314214706
0.546602010726929 0.868461012840271 0.436102479696274
0.666565895080566 0.849855422973633 0.445791631937027
1.391666889190674 0.879956483840942 0.428296774625778
1.431542396545410 0.888541698455811 0.478167325258255
-1.408546328544617 0.940625309944153 0.485690683126450
-0.910915017127991 0.948260664939880 0.466639667749405
-0.848735570907593 0.952065825462341 0.428715258836746
-0.734420061111450 0.959537267684937 0.439573138952255
-0.633895039558411 0.954124808311462 0.440599352121353
-0.525899887084961 0.951412320137024 0.445514768362045
-0.461937546730042 0.949363589286804 0.443250209093094
1.413755893707275 0.952342152595520 0.399007290601730
1.488254070281982 0.966895461082458 0.426013141870499
1.562880039215088 0.969430088996887 0.456864088773727
-1.610722541809082 -0.903267025947571 0.571825504302979
-1.529189825057983 -0.934548974037170 0.537332773208618
-1.426295518875122 -0.947630286216736 0.509217262268066
-1.333949685096741 -0.947906017303467 0.533426046371460
-1.229169368743896 -0.950855135917664 0.556750655174255
-1.127649307250977 -0.951684832572937 0.561220526695251
-1.026691436767578 -0.952278614044189 0.537208795547485
-0.939493656158447 -0.956293702125549 0.512427330017090
-0.841642141342163 -0.963059306144714 0.525125384330750
-0.736969590187073 -0.958050251007080 0.537448644638062
-0.628847956657410 -0.955485939979553 0.537001013755798
-0.529096364974976 -0.954502701759338 0.539842128753662
-0.465411305427551 -0.953176617622375 0.541370868682861
1.483972549438477 -0.910131573677063 0.524424672126770
1.578146457672119 -0.964076995849609 0.539292335510254
1.658241748809814 -0.979085803031921 0.549197435379028
1.772558212280273 -0.976474404335022 0.562748789787292
1.852731704711914 -0.974794983863831 0.563164591789246
1.972474098205566 -0.976050734519958 0.546143770217896
2.050133228302002 -0.972999930381775 0.558780789375305
2.126325130462646 -0.933194041252136 0.589992284774780
-1.610121130943298 -0.883456230163574 0.568999052047729
-1.563717603683472 -0.888169407844543 0.511891245841980
-0.495196223258972 -0.849666237831116 0.575935125350952
-0.456160902976990 -0.851884961128235 0.571944355964661
-0.375552415847778 -0.849055886268616 0.553079366683960
0.577351093292236 -0.844935774803162 0.556557655334473
0.675334215164185 -0.851453661918640 0.549103498458862
1.387853622436523 -0.789250254631042 0.491638332605362
1.452877521514893 -0.869705915451050 0.532746195793152
1.523914575576782 -0.888797998428345 0.587092161178589
-0.353982210159302 -0.784698724746704 0.547460198402405
0.518487930297852 -0.784605860710144 0.509176135063171
0.531007051467896 -0.784928083419800 0.559411168098450
0.712218284606934 -0.788737654685974 0.575343251228333
1.387115955352783 -0.788262128829956 0.491764158010483
-1.895532846450806 -0.609804987907410 0.582289218902588
-1.870172977447510 -0.643360495567322 0.588275432586670
2.701434612274170 -0.636525750160217 0.552566528320312
2.729930400848389 -0.607758402824402 0.502626538276672
-1.982467412948608 -0.492453008890152 0.560274600982666
-1.950000524520874 -0.535146594047546 0.568345427513123
2.716619968414307 -0.569651961326599 0.573045849800110
2.734454154968262 -0.532155156135559 0.545969128608704
-2.019072532653809 -0.432321369647980 0.551763772964478
-1.973834514617920 -0.479386985301971 0.586006522178650
2.752095699310303 -0.442476153373718 0.548394203186035
-2.045586109161377 -0.338802725076675 0.550319671630859
2.764656066894531 -0.343101918697357 0.552940249443054
-2.061761617660522 -0.236421585083008 0.550773620605469
2.782276153564453 -0.240180984139442 0.537611126899719
-2.071766614913940 -0.139016807079315 0.551233410835266
2.786515235900879 -0.130478635430336 0.543965578079224
-2.073887825012207 -0.029547894373536 0.555485367774963
2.784717082977295 -0.041796393692493 0.553523540496826
-2.075757265090942 0.058142449706793 0.551917076110840
2.785402297973633 0.059777680784464 0.551592946052551
-2.069838047027588 0.162138909101486 0.551148176193237
2.786598682403564 0.157278522849083 0.541654825210571
-2.059076070785522 0.256095856428146 0.550731062889099
2.775273323059082 0.274260222911835 0.546406269073486
-2.039666175842285 0.368551164865494 0.550297260284424
2.762364864349365 0.362079501152039 0.552483916282654
-2.014956235885620 0.441134661436081 0.552373886108398
-1.973463058471680 0.502635359764099 0.562402367591858
2.744547843933105 0.475263416767120 0.552412986755371
-1.932130098342896 0.559820294380188 0.572880864143372
2.713351726531982 0.586954116821289 0.566432833671570
2.733237743377686 0.601639986038208 0.499505430459976
-1.888816833496094 0.619057178497314 0.583958506584167
-1.870271086692810 0.643198728561401 0.588228583335876
2.701485157012939 0.636626482009888 0.552587032318115
2.724257946014404 0.614201426506042 0.511115550994873
-0.355625867843628 0.788967490196228 0.548955321311951
0.517411231994629 0.785592079162598 0.499941676855087
0.548169612884521 0.788311600685120 0.575893878936768
0.699828386306763 0.793969273567200 0.520133614540100
1.387180805206299 0.788420915603638 0.491793006658554
-1.615416049957275 0.899572014808655 0.573799014091492
-1.538856744766235 0.897963404655457 0.526222348213196
-1.474632024765015 0.909531474113464 0.501096129417419
-0.495653390884399 0.849557518959045 0.575582981109619
-0.456303596496582 0.851887941360474 0.572129011154175
-0.377161502838135 0.854157805442810 0.554343700408936
0.577489614486694 0.848774909973145 0.554294943809509
0.675450563430786 0.854280233383179 0.552850484848022
1.459541082382202 0.877060174942017 0.530311465263367
1.542024850845337 0.899779677391052 0.576039314270020
-1.592207908630371 0.916349411010742 0.563770294189453
-1.528432369232178 0.939579963684082 0.538895964622498
-1.425554513931274 0.948095560073853 0.509597659111023
-1.334197878837585 0.947919130325317 0.533231377601624
-1.228914499282837 0.950863361358643 0.556850194931030
-1.127856373786926 0.951795339584351 0.561646103858948
-1.026616573333740 0.952343940734863 0.537189006805420
-0.939976215362549 0.956326842308044 0.512621641159058
-0.842480897903442 0.963052153587341 0.528521180152893
-0.740873336791992 0.958294749259949 0.534740567207336
-0.628911614418030 0.955532550811768 0.536755919456482
-0.533310413360596 0.954631924629211 0.542864203453064
-0.465407490730286 0.953203916549683 0.541316628456116
1.504984617233276 0.965786457061768 0.506670832633972
1.582228183746338 0.969884157180786 0.536386966705322
1.658178329467773 0.979202628135681 0.549423336982727
1.771858215332031 0.976573705673218 0.563051700592041
1.851545810699463 0.974894523620605 0.563824415206909
1.971994400024414 0.975877285003662 0.546337366104126
2.050320625305176 0.972826123237610 0.558770060539246
2.126471996307373 0.933901190757751 0.590135335922241
-1.588780403137207 -0.896650552749634 0.613448739051819
-1.575093030929565 -0.895390629768372 0.626219511032104
-1.418795108795166 -0.943630099296570 0.624073266983032
-1.335665106773376 -0.954904317855835 0.635292053222656
-1.207485437393188 -0.961743354797363 0.610656857490540
-1.156698703765869 -0.962725400924683 0.607007622718811
-1.026779770851135 -0.958043813705444 0.651517748832703
-0.893568158149719 -0.947774767875671 0.669098615646362
-0.828061103820801 -0.944829940795898 0.667693495750427
-0.745353460311890 -0.942611336708069 0.669554233551025
-0.642506003379822 -0.941019415855408 0.672186374664307
-0.542875528335571 -0.940811991691589 0.673514008522034
-0.465277791023254 -0.946499943733215 0.647258996963501
1.496325969696045 -0.889118671417236 0.596444487571716
1.596672058105469 -0.932000994682312 0.615775942802429
1.641134738922119 -0.975584506988525 0.640691041946411
1.782569885253906 -0.987768650054932 0.599676609039307
1.860874652862549 -0.986550807952881 0.606753349304199
1.965275287628174 -0.978710770606995 0.652845025062561
2.097997188568115 -0.961314916610718 0.605088353157043
2.152704715728760 -0.943454861640930 0.658704996109009
2.220460891723633 -0.896584749221802 0.682481408119202
-1.719440579414368 -0.813711285591125 0.620548248291016
-1.631639838218689 -0.864995360374451 0.629830956459045
-1.564814805984497 -0.882577776908875 0.648689508438110
-0.494495034217834 -0.849662184715271 0.605122089385986
-0.448537111282349 -0.849184870719910 0.618238568305969
-0.367886304855347 -0.822748661041260 0.648321032524109
0.577263593673706 -0.823722481727600 0.644011497497559
0.676381111145020 -0.861381769180298 0.649732232093811
0.721942186355591 -0.790078401565552 0.625115513801575
1.499776363372803 -0.824975490570068 0.634815812110901
1.538278818130493 -0.847999095916748 0.671292901039124
-1.800783514976501 -0.730169057846069 0.606648445129395
-1.734652996063232 -0.757228732109070 0.648001432418823
-1.654209375381470 -0.765980005264282 0.679182171821594
-0.353585243225098 -0.786014914512634 0.643278837203979
0.550938129425049 -0.786117792129517 0.641312837600708
0.718170166015625 -0.787927985191345 0.603201866149902
0.731030702590942 -0.785672545433044 0.655811548233032
1.478007793426514 -0.787043929100037 0.654709339141846
1.527193069458008 -0.788738012313843 0.685730814933777
-1.888806223869324 -0.605911016464233 0.597861766815186
-1.848033547401428 -0.671345949172974 0.594424724578857
-1.742823839187622 -0.649216413497925 0.675793766975403
2.685570716857910 -0.659683823585510 0.633215188980103
-1.916898727416992 -0.534769415855408 0.609768390655518
-1.833544254302979 -0.531954050064087 0.664070606231689
-1.762645602226257 -0.571872234344482 0.686834931373596
2.715125083923340 -0.563187122344971 0.624145627021790
2.725365161895752 -0.518978714942932 0.621904015541077
-1.989867091178894 -0.431909620761871 0.594274044036865
-1.952341318130493 -0.454158663749695 0.614660024642944
-1.856662750244141 -0.454692274332047 0.669237852096558
2.739660739898682 -0.433601409196854 0.640194416046143
-1.997241377830505 -0.328991532325745 0.605618357658386
-1.934966802597046 -0.336855441331863 0.642739057540894
-1.861285209655762 -0.335403710603714 0.679921865463257
2.742068767547607 -0.345607012510300 0.639160633087158
-2.019280910491943 -0.234749764204025 0.601092934608459
-1.914439439773560 -0.207556739449501 0.664902687072754
-1.869738101959229 -0.213750571012497 0.685914993286133
2.751184463500977 -0.241131216287613 0.632835745811462
-2.015613794326782 -0.156262859702110 0.610174894332886
-1.939906597137451 -0.167232215404510 0.655903100967407
-1.880295991897583 -0.187637418508530 0.687984347343445
2.746981620788574 -0.115059413015842 0.668013930320740
-2.031905651092529 -0.003429111326113 0.601243495941162
-1.932836294174194 -0.032131057232618 0.664873480796814
2.752666473388672 -0.042978994548321 0.651788234710693
-2.020493030548096 0.021829707548022 0.610710024833679
-1.926155805587769 0.071385324001312 0.667865872383118
2.750558853149414 0.085430704057217 0.656947612762451
-2.014502525329590 0.162945583462715 0.610482811927795
-1.927358627319336 0.188537493348122 0.660298705101013
-1.874756336212158 0.204186052083969 0.685697793960571
2.745855808258057 0.126824811100960 0.671496629714966
-2.016082525253296 0.252792030572891 0.601581931114197
-1.921716928482056 0.245365098118782 0.657706975936890
-1.867189288139343 0.228929042816162 0.685455441474915
2.750018119812012 0.268152832984924 0.629516482353210
-1.997171401977539 0.358193933963776 0.601590037345886
-1.932181358337402 0.363304287195206 0.641362547874451
-1.858973979949951 0.366652339696884 0.678231954574585
2.740437507629395 0.368709057569504 0.645309686660767
-1.988851070404053 0.433248460292816 0.594767451286316
-1.949583292007446 0.462847203016281 0.614080786705017
-1.845480203628540 0.484642446041107 0.670659661293030
2.738133430480957 0.448251873254776 0.635305285453796
-1.909973740577698 0.554214239120483 0.606738090515137
-1.833364248275757 0.558071851730347 0.655188322067261
-1.760367393493652 0.580031156539917 0.685147523880005
2.712213993072510 0.574225664138794 0.632555007934570
2.723793506622314 0.527916789054871 0.618773579597473
-1.885212182998657 0.617793083190918 0.593133807182312
-1.838509798049927 0.683984756469727 0.596447348594666
-1.737729310989380 0.667177319526672 0.674449682235718
2.685537815093994 0.659815311431885 0.633592247962952
-1.796928405761719 0.734761476516724 0.607780218124390
-1.735454559326172 0.760798096656799 0.645145058631897
-1.654748201370239 0.766228675842285 0.679255247116089
-0.354264974594116 0.787791848182678 0.644769310951233
0.560846090316772 0.789839744567871 0.644168972969055
0.716933965682983 0.790081143379211 0.600595712661743
0.730535507202148 0.785660386085510 0.653695821762085
1.485920190811157 0.788217306137085 0.651135802268982
1.526618719100952 0.789958477020264 0.682089447975159
-1.701143980026245 0.827042579650879 0.622678875923157
-1.624900102615356 0.870223164558411 0.627192735671997
-1.576020240783691 0.894551753997803 0.626980304718018
-1.461894750595093 0.903222322463989 0.683188676834106
-0.494482994079590 0.849687099456787 0.605102419853210
-0.448751926422119 0.849293470382690 0.617959618568420
-0.370640754699707 0.830166220664978 0.646555900573730
0.589029312133789 0.862688541412354 0.640701293945312
0.675881624221802 0.861571073532104 0.649483442306519
1.500781297683716 0.884766578674316 0.614004254341125
1.554552078247070 0.885604739189148 0.654870152473450
2.168987274169922 0.909897804260254 0.668226957321167
2.220461368560791 0.896622419357300 0.682481884956360
-1.519426822662354 0.922836422920227 0.613520264625549
-1.417699575424194 0.945527791976929 0.620602846145630
-1.332550883293152 0.954908370971680 0.636038184165955
-1.208791136741638 0.961718440055847 0.611568093299866
-1.155671238899231 0.962594389915466 0.607979655265808
-1.025935649871826 0.958430051803589 0.649884581565857
-0.893658757209778 0.947799205780029 0.669148445129395
-0.828545570373535 0.944854259490967 0.667748212814331
-0.744825005531311 0.942574739456177 0.669684171676636
-0.642586231231689 0.941120743751526 0.672077536582947
-0.542806863784790 0.940843343734741 0.673591613769531
-0.465304970741272 0.946688532829285 0.646522879600525
1.612627506256104 0.967399358749390 0.602689862251282
1.640932083129883 0.975463628768921 0.640692472457886
1.783239841461182 0.987768650054932 0.598811030387878
1.858302593231201 0.987256526947021 0.601717352867126
1.966934204101562 0.981122374534607 0.643322348594666
2.098144054412842 0.961087584495544 0.605180501937866
2.152306556701660 0.944107770919800 0.658471822738647
-1.421865463256836 -0.899536490440369 0.704285979270935
-1.334736824035645 -0.912529587745667 0.714391469955444
-1.230111241340637 -0.916219472885132 0.729857087135315
-1.130455255508423 -0.919728636741638 0.734368205070496
-1.029333233833313 -0.920911192893982 0.735086441040039
-0.929960250854492 -0.917436599731445 0.739786148071289
-0.828554034233093 -0.914465785026550 0.744003415107727
-0.702230334281921 -0.934065103530884 0.697898149490356
-0.622909784317017 -0.933025360107422 0.698431611061096
-0.561546564102173 -0.933178424835205 0.698602795600891
-0.456923484802246 -0.916334152221680 0.741515159606934
1.609173774719238 -0.899415016174316 0.701872229576111
1.652893066406250 -0.951253414154053 0.746529102325439
1.790239334106445 -0.957730412483215 0.753480315208435
1.863426208496094 -0.950786232948303 0.753596425056458
1.969826221466064 -0.950525999069214 0.736342310905457
2.038433074951172 -0.934023380279541 0.769721269607544
2.203601360321045 -0.924940228462219 0.709947466850281
2.252317428588867 -0.912476897239685 0.756608843803406
-1.612835168838501 -0.810195207595825 0.701623678207397
-1.505841970443726 -0.792520284652710 0.742314577102661
-1.427002906799316 -0.797117352485657 0.761322736740112
-1.328209280967712 -0.803316831588745 0.777973651885986
-1.242184638977051 -0.804901719093323 0.781413197517395
-1.154837727546692 -0.803876280784607 0.769931077957153
-1.029640078544617 -0.826979875564575 0.785545706748962
-0.946957349777222 -0.835332512855530 0.785733461380005
-0.826269388198853 -0.885128617286682 0.786705493927002
-0.742093443870544 -0.885987162590027 0.787084698677063
-0.661606192588806 -0.885145306587219 0.789836525917053
-0.497628808021545 -0.840207219123840 0.753728747367859
-0.399224758148193 -0.839350223541260 0.756851792335510
-0.357875585556030 -0.807109832763672 0.747055292129517
0.584832191467285 -0.826565623283386 0.735138893127441
0.681744337081909 -0.860665917396545 0.731391310691833
0.741945981979370 -0.817165970802307 0.763317704200745
1.503269433975220 -0.789037585258484 0.698828101158142
1.566016674041748 -0.836811542510986 0.733721733093262
2.259996414184570 -0.877133965492249 0.760645508766174
-1.682864427566528 -0.701741456985474 0.692392349243164
-1.614795446395874 -0.775090932846069 0.704611539840698
-1.544880390167236 -0.783344268798828 0.729199528694153
-1.435160636901855 -0.785680294036865 0.737597227096558
-1.322009801864624 -0.754742383956909 0.771377205848694
-1.250098466873169 -0.767999887466431 0.784090757369995
-1.162776112556458 -0.775881409645081 0.767726540565491
-0.609452128410339 -0.704225540161133 0.769501566886902
-0.565902709960938 -0.711110472679138 0.782603383064270
-0.472430467605591 -0.697189927101135 0.747108459472656
-0.349106073379517 -0.788846015930176 0.692351222038269
0.563373088836670 -0.788368225097656 0.697344899177551
0.741458177566528 -0.787730097770691 0.706247448921204
1.508314371109009 -0.786441922187805 0.712891101837158
1.544521093368530 -0.786053538322449 0.761995792388916
-1.695652723312378 -0.639896035194397 0.697521567344666
-1.631931781768799 -0.639324665069580 0.722200036048889
-1.533584117889404 -0.632833480834961 0.757379055023193
-1.440524458885193 -0.647803664207458 0.779429197311401
-1.366303086280823 -0.682698607444763 0.786177754402161
-0.620355010032654 -0.654928207397461 0.774241209030151
-0.502883195877075 -0.672666549682617 0.763344764709473
-0.475618124008179 -0.681105613708496 0.746844649314880
2.689540386199951 -0.636481285095215 0.694996833801270
-1.784430742263794 -0.519898295402527 0.693713545799255
-1.734646558761597 -0.545856475830078 0.707891583442688
-1.630153417587280 -0.560105800628662 0.744527578353882
-1.517846345901489 -0.542693972587585 0.778739571571350
-1.479875087738037 -0.571132779121399 0.786125659942627
-0.691045403480530 -0.529937148094177 0.752345323562622
-0.662284016609192 -0.536386728286743 0.757823109626770
-0.550391435623169 -0.521818280220032 0.752939701080322
2.710835933685303 -0.546718955039978 0.716410636901855
2.720168113708496 -0.495008945465088 0.750578880310059
-1.793063759803772 -0.443104177713394 0.698902368545532
-1.734853148460388 -0.433822304010391 0.722119092941284
-1.620124340057373 -0.442738503217697 0.759418249130249
-1.521400690078735 -0.457178205251694 0.785315036773682
-0.689320445060730 -0.438373923301697 0.754079461097717
-0.605698704719543 -0.444359540939331 0.774111270904541
-0.569683670997620 -0.436788529157639 0.754255652427673
2.697620868682861 -0.469793587923050 0.773735523223877
2.722778320312500 -0.464105278253555 0.771101117134094
-1.796537399291992 -0.340730667114258 0.706748247146606
-1.731557488441467 -0.351025342941284 0.730016708374023
-1.617632150650024 -0.352431356906891 0.766191959381104
-1.552563428878784 -0.303343504667282 0.786315917968750
-0.710996150970459 -0.337588518857956 0.754279136657715
-0.581166863441467 -0.387919157743454 0.785768151283264
-0.570331811904907 -0.347838282585144 0.749085307121277
2.737906932830811 -0.345125854015350 0.748582601547241
-1.813424348831177 -0.221436455845833 0.711298108100891
-1.728845119476318 -0.241984948515892 0.741535544395447
-1.632410645484924 -0.260542511940002 0.771680116653442
-1.564672350883484 -0.282103449106216 0.785590887069702
-0.729583978652954 -0.237807989120483 0.754251241683960
-0.584838509559631 -0.206172630190849 0.749857425689697
-0.573175311088562 -0.256584703922272 0.747099757194519
2.718197822570801 -0.245995089411736 0.782435417175293
2.725488662719727 -0.253752410411835 0.750067234039307
-1.822810649871826 -0.124564073979855 0.716826558113098
-1.721607685089111 -0.138196229934692 0.755936145782471
-1.642437219619751 -0.142399728298187 0.780933022499084
-0.742959022521973 -0.139695629477501 0.754384636878967
-0.599569678306580 -0.140440508723259 0.747835397720337
-0.572814226150513 -0.156753659248352 0.745294332504272
2.717646598815918 -0.142439424991608 0.781408429145813
2.731317996978760 -0.118421673774719 0.724254369735718
-1.830018043518066 -0.023590695112944 0.715639114379883
-1.725496053695679 -0.032399911433458 0.756676912307739
-1.642853021621704 -0.028940007090569 0.783190965652466
-0.749850988388062 -0.030545126646757 0.755015492439270
-0.619078993797302 -0.035745423287153 0.748620986938477
2.716769695281982 -0.048811040818691 0.784570813179016
2.725284576416016 -0.045483458787203 0.748917818069458
-1.823872685432434 0.077591985464096 0.717690467834473
-1.731690645217896 0.078814044594765 0.754033923149109
-1.642809629440308 0.070611700415611 0.782646894454956
-0.748961210250854 0.060427293181419 0.754892826080322
-0.624116301536560 0.055217593908310 0.757386803627014
2.716452121734619 0.066821791231632 0.786058306694031
2.726048469543457 0.088632285594940 0.744154691696167
-1.829320788383484 0.195832073688507 0.710019469261169
-1.718168020248413 0.149049237370491 0.756761789321899
-1.638849735260010 0.148002579808235 0.781869173049927
-0.740508556365967 0.160990655422211 0.754336714744568
-0.612177252769470 0.164897844195366 0.749707341194153
2.717481613159180 0.166888207197189 0.782138109207153
2.733146667480469 0.125883579254150 0.717787027359009
-1.808175563812256 0.226678252220154 0.712059617042542
-1.729470729827881 0.241698980331421 0.741356849670410
-1.633619546890259 0.260413467884064 0.771271467208862
-1.561393737792969 0.284606605768204 0.786004066467285
-0.725901603698730 0.259726256132126 0.754204630851746
-0.590536355972290 0.226737216114998 0.752598404884338
-0.571652293205261 0.280659496784210 0.747448801994324
2.718451976776123 0.252525836229324 0.782132983207703
2.725983142852783 0.280864357948303 0.751298785209656
-1.798583984375000 0.355312556028366 0.704899311065674
-1.731300115585327 0.364122062921524 0.729291677474976
-1.622503519058228 0.367015779018402 0.764050602912903
-1.548761844635010 0.360487431287766 0.784596920013428
-0.707551002502441 0.358484506607056 0.754173040390015
-0.584185004234314 0.398109316825867 0.780755639076233
-0.571463942527771 0.364352375268936 0.751868963241577
2.740036964416504 0.358133345842361 0.743548631668091
-1.798280954360962 0.460537999868393 0.694975614547729
-1.732046604156494 0.450413733720779 0.721526503562927
-1.617517828941345 0.461286246776581 0.758853077888489
-1.523653745651245 0.467691391706467 0.783882975578308
-0.687116861343384 0.450177490711212 0.754203677177429
-0.648040413856506 0.484379678964615 0.763940215110779
-0.565978765487671 0.463317394256592 0.752160191535950
2.716331005096436 0.499886512756348 0.747349739074707
2.721653938293457 0.474770963191986 0.766029953956604
-1.784915566444397 0.519391059875488 0.693321585655212
-1.733996391296387 0.550839900970459 0.706861138343811
-1.626345038414001 0.572667717933655 0.742939352989197
-1.528595685958862 0.577565550804138 0.772256255149841
-1.470025777816772 0.593051075935364 0.785787105560303
-0.691019296646118 0.530060887336731 0.752341628074646
-0.654487013816833 0.568824410438538 0.759130835533142
-0.543093204498291 0.535850644111633 0.749553084373474
2.706894874572754 0.567072510719299 0.706359982490540
2.723269462585449 0.513432621955872 0.702657699584961
-1.692854642868042 0.660176277160645 0.694617271423340
-1.635084152221680 0.663205146789551 0.715731382369995
-1.532726049423218 0.663817644119263 0.748077392578125
-1.437116265296936 0.666394591331482 0.774451971054077
-1.348034143447876 0.698960423469543 0.784562587738037
-0.613444328308105 0.678588628768921 0.774514555931091
-0.505885481834412 0.672709941864014 0.764307022094727
-0.474538564682007 0.684665679931641 0.746903300285339
2.686250686645508 0.647733449935913 0.695516109466553
-1.614545106887817 0.775376319885254 0.704712867736816
-1.536257028579712 0.785338878631592 0.732129693031311
-1.428465247154236 0.795302510261536 0.757732391357422
-1.328565001487732 0.802931189537048 0.777972340583801
-1.245828032493591 0.802908062934875 0.779649853706360
-1.156064271926880 0.801547765731812 0.769754528999329
-1.027010798454285 0.807143926620483 0.785437703132629
-0.956274867057800 0.808464288711548 0.785117626190186
-0.611237645149231 0.721904039382935 0.758705735206604
-0.578135609626770 0.716694235801697 0.785486578941345
-0.472483396530151 0.713005185127258 0.746720194816589
-0.353106737136841 0.797541260719299 0.748284935951233
0.573554277420044 0.793549776077271 0.732500195503235
0.749083280563354 0.797119855880737 0.758743762969971
1.508352279663086 0.786508560180664 0.712836265563965
1.543583631515503 0.787088036537170 0.751805782318115
-1.600178480148315 0.816223621368408 0.704770922660828
-1.534342765808105 0.828846693038940 0.725204944610596
-1.429340481758118 0.842059135437012 0.751146197319031
-1.302014589309692 0.819920897483826 0.785277366638184
-1.232354998588562 0.814322233200073 0.787405371665955
-1.132029294967651 0.889013648033142 0.772042989730835
-1.034740090370178 0.892708897590637 0.773826360702515
-0.928268074989319 0.897267580032349 0.771018981933594
-0.829462051391602 0.896221041679382 0.773015379905701
-0.738716840744019 0.895603537559509 0.774445772171021
-0.630928874015808 0.900341272354126 0.769646883010864
-0.508069157600403 0.859270215034485 0.759831547737122
-0.440981626510620 0.889298558235168 0.770730495452881
-0.364714145660400 0.821688532829285 0.746960282325745
0.594777822494507 0.859647989273071 0.731014013290405
0.681994915008545 0.860466957092285 0.731561541557312
0.727856397628784 0.848863363265991 0.757408499717712
1.576391696929932 0.866599798202515 0.739996433258057
1.626479625701904 0.905655384063721 0.763372302055359
2.209011077880859 0.896893978118896 0.711233854293823
2.263432025909424 0.891857266426086 0.765666604042053
-1.385596156120300 0.915246605873108 0.696672439575195
-1.328168630599976 0.920253276824951 0.706241726875305
-1.228273510932922 0.928174257278442 0.714455127716064
-1.132101774215698 0.931085109710693 0.718549013137817
-1.028843641281128 0.929894328117371 0.721709728240967
-0.931551098823547 0.928949594497681 0.721182227134705
-0.828326821327209 0.924329519271851 0.726817727088928
-0.699367880821228 0.935314774513245 0.695341825485229
-0.622527956962585 0.933658957481384 0.696991920471191
-0.561526417732239 0.933685421943665 0.697538852691650
-0.460219383239746 0.924498081207275 0.724580049514771
1.619147777557373 0.920220851898193 0.702104330062866
1.652968883514404 0.951683163642883 0.745906710624695
1.771894931793213 0.962291955947876 0.739047884941101
1.871349334716797 0.965617179870605 0.721155762672424
1.973556518554688 0.959050416946411 0.722684621810913
2.078781604766846 0.939950585365295 0.753990769386292
2.202064514160156 0.933612346649170 0.709488153457642
2.240918636322021 0.919932246208191 0.745784163475037
-0.444640159606934 -0.889839172363281 0.792294621467590
1.658488750457764 -0.920011758804321 0.839754462242126
1.773547172546387 -0.924019932746887 0.841599464416504
1.856628894805908 -0.916491866111755 0.840938687324524
1.967877388000488 -0.895992517471313 0.866892218589783
2.043051242828369 -0.911049008369446 0.825825810432434
2.170492649078369 -0.903388619422913 0.821983337402344
2.297233581542969 -0.893100738525391 0.800578355789185
-1.281787633895874 -0.812413334846497 0.791113257408142
-1.218696713447571 -0.810492515563965 0.795672535896301
-1.137144684791565 -0.812755823135376 0.800966143608093
-1.031732201576233 -0.815739035606384 0.807872176170349
-0.929387807846069 -0.818326830863953 0.812247872352600
-0.825193285942078 -0.819925785064697 0.817545175552368
-0.727944135665894 -0.818279266357422 0.825385212898254
-0.650094628334045 -0.803678154945374 0.849890708923340
-0.519275426864624 -0.821890115737915 0.852952480316162
-0.409769773483276 -0.852231979370117 0.835926771163940
-0.363557100296021 -0.826874971389771 0.863640904426575
0.603861808776855 -0.806432008743286 0.840372800827026
0.670254468917847 -0.828731536865234 0.854110360145569
0.749551296234131 -0.815363407135010 0.842137932777405
1.596874713897705 -0.828805327415466 0.842771291732788
1.648916244506836 -0.885736584663391 0.887339472770691
1.987951755523682 -0.887001395225525 0.887490630149841
2.072898387908936 -0.882843375205994 0.881298661231995
2.178469181060791 -0.875313401222229 0.872769713401794
2.310486316680908 -0.884600639343262 0.813764929771423
2.366209030151367 -0.860638141632080 0.843364953994751
2.471212863922119 -0.823531270027161 0.859950900077820
2.530266284942627 -0.796010732650757 0.864395022392273
-1.304920911788940 -0.699937820434570 0.793819904327393
-1.227358818054199 -0.740324378013611 0.798492550849915
-1.130631923675537 -0.736413121223450 0.815276026725769
-1.029339432716370 -0.748526453971863 0.825746417045593
-0.927272319793701 -0.748412251472473 0.840247273445129
-0.833643317222595 -0.746341824531555 0.856956005096436
-0.722640514373779 -0.756082892417908 0.866974115371704
-0.601504802703857 -0.743237376213074 0.876749157905579
-0.561060547828674 -0.730783820152283 0.868869185447693
-0.425987482070923 -0.760759830474854 0.881728172302246
-0.304974794387817 -0.787796378135681 0.885717868804932
-0.276219367980957 -0.787416696548462 0.885554194450378
0.610875844955444 -0.788728356361389 0.889086008071899
0.777365207672119 -0.788304567337036 0.887428522109985
1.569531440734863 -0.781797885894775 0.843038558959961
2.515283584594727 -0.784580469131470 0.861834049224854
2.581495761871338 -0.750296354293823 0.866307616233826
2.624549865722656 -0.697267889976501 0.866799950599670
-1.406265258789062 -0.627021431922913 0.795589447021484
-1.327027678489685 -0.644336700439453 0.807484269142151
-1.231724858283997 -0.652772784233093 0.822832345962524
-1.129248142242432 -0.653965950012207 0.836376428604126
-1.037090182304382 -0.645137071609497 0.847839117050171
-0.934661269187927 -0.645026087760925 0.857994079589844
-0.841548442840576 -0.651536703109741 0.865755677223206
-0.734959006309509 -0.641607880592346 0.875260472297668
-0.640207052230835 -0.641387462615967 0.875494003295898
-0.552030324935913 -0.652463555335999 0.821861743927002
2.600873947143555 -0.652264833450317 0.879544019699097
2.630125045776367 -0.643856406211853 0.864994287490845
-1.483517646789551 -0.504679083824158 0.791261196136475
-1.423432469367981 -0.546124100685120 0.799961090087891
-1.323725461959839 -0.548589468002319 0.818079829216003
-1.231592893600464 -0.538051247596741 0.832374334335327
-1.130567312240601 -0.544534087181091 0.844648361206055
-1.035868167877197 -0.543210148811340 0.854934930801392
-0.937759876251221 -0.536712288856506 0.864174723625183
-0.806188941001892 -0.542435050010681 0.875179767608643
-0.688485860824585 -0.520020365715027 0.883930683135986
-0.654215335845947 -0.557656049728394 0.864237785339355
-0.575110197067261 -0.572030901908875 0.826153397560120
2.657691001892090 -0.535163044929504 0.864740610122681
-1.494176387786865 -0.423638612031937 0.793979406356812
-1.426009893417358 -0.433401674032211 0.807547450065613
-1.334405660629272 -0.449497848749161 0.822766542434692
-1.239066958427429 -0.451270461082458 0.836667060852051
-1.139538884162903 -0.446519762277603 0.848808050155640
-1.029989838600159 -0.458258867263794 0.859548568725586
-0.912816762924194 -0.447628587484360 0.870351910591125
-0.806545615196228 -0.430997788906097 0.880147099494934
-0.707752943038940 -0.438724100589752 0.886589288711548
-0.612674474716187 -0.432672977447510 0.821192264556885
2.699532032012939 -0.436364144086838 0.850039720535278
2.723000049591064 -0.421138763427734 0.813020586967468
-1.507303476333618 -0.306008011102676 0.797413229942322
-1.430016517639160 -0.308285474777222 0.813765764236450
-1.332376122474670 -0.311998903751373 0.832853078842163
-1.236817955970764 -0.322009027004242 0.846101284027100
-1.126037359237671 -0.339929223060608 0.856516957283020
-1.035028100013733 -0.343567579984665 0.865607738494873
-0.927499651908875 -0.348054260015488 0.874184846878052
-0.836831927299500 -0.351354092359543 0.881083965301514
-0.723217487335205 -0.348587304353714 0.886658191680908
-0.637503623962402 -0.336812376976013 0.830942869186401
2.703513622283936 -0.358259916305542 0.860767483711243
2.729331016540527 -0.329627186059952 0.828470826148987
-1.585231542587280 -0.234777405858040 0.792557001113892
-1.536862134933472 -0.260934799909592 0.801264047622681
-1.435541152954102 -0.266404360532761 0.822637915611267
-1.350017428398132 -0.242298096418381 0.837977290153503
-1.232252120971680 -0.227079614996910 0.853271126747131
-1.125340700149536 -0.236905500292778 0.863089203834534
-1.032187819480896 -0.236461549997330 0.870144367218018
-0.924394011497498 -0.237890467047691 0.877420186996460
-0.801539182662964 -0.240620449185371 0.887253999710083
-0.730764508247375 -0.255579590797424 0.879939079284668
-0.635349512100220 -0.243557170033455 0.836589217185974
2.707460880279541 -0.254142284393311 0.853078961372375
2.724623680114746 -0.275150328874588 0.820544362068176
-1.586904406547546 -0.137346133589745 0.796312093734741
-1.525347232818604 -0.136322095990181 0.810543298721313
-1.420621633529663 -0.141418784856796 0.830326437950134
-1.333234548568726 -0.144734397530556 0.843299388885498
-1.238142490386963 -0.128370493650436 0.854948759078979
-1.124440550804138 -0.136410698294640 0.865193724632263
-1.028260231018066 -0.137488067150116 0.872034192085266
-0.928158879280090 -0.147223442792892 0.878486037254333
-0.813671350479126 -0.136215284466743 0.888078689575195
-0.712993502616882 -0.144311636686325 0.824194788932800
-0.654509902000427 -0.145381554961205 0.835408568382263
2.684385299682617 -0.143829464912415 0.875320196151733
-1.589645862579346 -0.040265914052725 0.797412037849426
-1.522644400596619 -0.036749277263880 0.812811732292175
-1.433426856994629 -0.037857107818127 0.829845547676086
-1.339592099189758 -0.032100569456816 0.844030618667603
-1.232885241508484 -0.034084819257259 0.856461048126221
-1.127881050109863 -0.032615952193737 0.865721464157104
-1.028387904167175 -0.049665406346321 0.872711658477783
-0.925257086753845 -0.036911278963089 0.879525542259216
-0.828595757484436 -0.040444344282150 0.887238383293152
-0.712974905967712 -0.030998105183244 0.812246799468994
-0.662599086761475 -0.017936633899808 0.838151693344116
2.687513828277588 -0.024300429970026 0.869284033775330
-1.587078928947449 0.071630857884884 0.797756791114807
-1.522988796234131 0.060674428939819 0.812549829483032
-1.430727839469910 0.063460238277912 0.830179333686829
-1.339853286743164 0.067995838820934 0.843729019165039
-1.234733819961548 0.066784463822842 0.856270670890808
-1.128733754158020 0.070673607289791 0.865548849105835
-1.019988536834717 0.073011554777622 0.873170495033264
-0.925996422767639 0.061260104179382 0.879362106323242
-0.823919773101807 0.068723566830158 0.887637257575989
-0.713055014610291 0.056945450603962 0.811693310737610
-0.662170290946960 0.074279062449932 0.838659048080444
2.697212219238281 0.049153603613377 0.849458336830139
-1.585254192352295 0.159368827939034 0.795959830284119
-1.522532582283020 0.159824341535568 0.810424804687500
-1.430567622184753 0.166037365794182 0.827960610389709
-1.334840536117554 0.161405578255653 0.842716932296753
-1.236273765563965 0.154612809419632 0.854512572288513
-1.128510951995850 0.160242423415184 0.864492058753967
-1.035722374916077 0.169193595647812 0.871123194694519
-0.927654743194580 0.156016409397125 0.878426074981689
-0.809141755104065 0.161610528826714 0.888081908226013
-0.718218207359314 0.170501455664635 0.838665127754211
-0.653299450874329 0.162375032901764 0.835860848426819
2.685012340545654 0.148813396692276 0.874179482460022
-1.586718678474426 0.249440163373947 0.791456103324890
-1.531692981719971 0.270159184932709 0.800157427787781
-1.435117483139038 0.286905050277710 0.817867398262024
-1.334001898765564 0.287788301706314 0.837441682815552
-1.246633410453796 0.299182891845703 0.848733544349670
-1.125254988670349 0.259346693754196 0.862541079521179
-1.036079645156860 0.262896686792374 0.869276165962219
-0.921077847480774 0.265078663825989 0.877252221107483
-0.805272698402405 0.258800387382507 0.886525034904480
-0.730533599853516 0.274048149585724 0.882853269577026
-0.629756212234497 0.269850194454193 0.833162426948547
2.706376075744629 0.265557527542114 0.856898784637451
2.728275299072266 0.288123130798340 0.821749329566956
-1.507896184921265 0.363157838582993 0.794236183166504
-1.416813850402832 0.325213998556137 0.814670920372009
-1.330391645431519 0.323157101869583 0.829895496368408
-1.227091550827026 0.333223909139633 0.844677448272705
-1.125839114189148 0.340971112251282 0.856627464294434
-1.038769960403442 0.344520598649979 0.865358114242554
-0.932025790214539 0.359554111957550 0.873071074485779
-0.837202548980713 0.359467476606369 0.880701422691345
-0.720939993858337 0.366755127906799 0.887588381767273
-0.626435995101929 0.363145530223846 0.823290824890137
2.705213546752930 0.380141675472260 0.855286955833435
2.726958751678467 0.353621929883957 0.831587195396423
-1.491365551948547 0.460936665534973 0.792202591896057
-1.420638442039490 0.452099949121475 0.807465672492981
-1.334387660026550 0.451363384723663 0.822631001472473
-1.236184954643250 0.469765663146973 0.836093783378601
-1.130984783172607 0.474669337272644 0.848433852195740
-1.030659437179565 0.472814887762070 0.858774900436401
-0.933721899986267 0.482297867536545 0.867259621620178
-0.797414779663086 0.455659687519073 0.879995465278625
-0.702655673027039 0.462239325046539 0.885771751403809
-0.614086389541626 0.448465138673782 0.821825504302979
2.691039085388184 0.458585292100906 0.853789329528809
2.723103046417236 0.421788990497589 0.812020421028137
-1.422011137008667 0.558521270751953 0.799193263053894
-1.315785884857178 0.568192005157471 0.817832946777344
-1.228617072105408 0.570476889610291 0.830626368522644
-1.126257658004761 0.576785206794739 0.843045353889465
-1.050892710685730 0.565821051597595 0.851943492889404
-0.933533787727356 0.554682970046997 0.863491773605347
-0.822137117385864 0.561197042465210 0.872938394546509
-0.686559319496155 0.527766227722168 0.883637070655823
-0.659005045890808 0.574126243591309 0.871071338653564
-0.569851875305176 0.590322136878967 0.827139377593994
2.614063739776611 0.597615838050842 0.888804316520691
2.649085521697998 0.561519026756287 0.865398645401001
-1.407066583633423 0.632376909255981 0.794796347618103
-1.327081561088562 0.658878803253174 0.803621172904968
-1.232675433158875 0.670797109603882 0.819079518318176
-1.123436331748962 0.681517124176025 0.834492921829224
-1.033999443054199 0.675234913825989 0.845464110374451
-0.926069259643555 0.676097750663757 0.856278657913208
-0.827764868736267 0.660031199455261 0.866185069084167
-0.732626318931580 0.666267156600952 0.873756051063538
-0.624467372894287 0.669251322746277 0.876728892326355
-0.552765607833862 0.674193978309631 0.813167095184326
2.601030826568604 0.653856873512268 0.879331231117249
2.627824783325195 0.659964919090271 0.865459918975830
-1.283737301826477 0.717778205871582 0.791832923889160
-1.219866633415222 0.808191418647766 0.795330524444580
-1.152829647064209 0.807794094085693 0.797719717025757
-1.030501008033752 0.807808876037598 0.801928758621216
-0.957836747169495 0.807082295417786 0.806476831436157
-0.829929709434509 0.769308209419250 0.845319390296936
-0.701741814613342 0.805357575416565 0.823711752891541
-0.620538592338562 0.775076389312744 0.865912914276123
-0.559481501579285 0.740893483161926 0.882754921913147
-0.429120302200317 0.764871716499329 0.882357835769653
-0.332229852676392 0.798722624778748 0.856564760208130
-0.276226758956909 0.787455916404724 0.885548114776611
0.598843812942505 0.795898795127869 0.838448405265808
0.620918512344360 0.810903191566467 0.890202164649963
0.762715339660645 0.800978302955627 0.835382342338562
1.569348335266113 0.783016920089722 0.839387416839600
2.509481906890869 0.805128216743469 0.863190054893494
2.567501068115234 0.763314247131348 0.865836143493652
-1.281944632530212 0.811798214912415 0.791016936302185
-1.218418002128601 0.814618349075317 0.796205997467041
-1.132548689842224 0.814343690872192 0.802206873893738
-1.031808018684387 0.816747426986694 0.808694720268250
-0.925476074218750 0.818813443183899 0.812620282173157
-0.824627876281738 0.819967269897461 0.817441582679749
-0.730130791664124 0.818952083587646 0.825628280639648
-0.669500827789307 0.814534664154053 0.837500452995300
-0.510880470275879 0.839850068092346 0.831082940101624
-0.411098241806030 0.853995203971863 0.834229826927185
-0.370699882507324 0.833723425865173 0.866507291793823
0.613844633102417 0.831967711448669 0.838181376457214
0.670316219329834 0.828696489334106 0.854285240173340
0.737453222274780 0.828717947006226 0.849819660186768
1.597587108612061 0.831588387489319 0.841045022010803
1.653770923614502 0.898122429847717 0.875971317291260
1.781741142272949 0.902198076248169 0.883382439613342
1.890108585357666 0.899873971939087 0.878518462181091
1.982460498809814 0.891966581344604 0.880501866340637
2.084243774414062 0.893342256546021 0.861802816390991
2.177788734436035 0.890136361122131 0.844704508781433
2.303723335266113 0.889279246330261 0.806524038314819
2.366735458374023 0.860549807548523 0.843471288681030
2.462734699249268 0.827459812164307 0.859181880950928
1.659203052520752 0.927319884300232 0.826832056045532
1.752849578857422 0.933244585990906 0.824756979942322
1.873124599456787 0.936066150665283 0.808777570724487
1.973009586334229 0.929627180099487 0.809444069862366
2.079209804534912 0.919769167900085 0.810608506202698
2.179191112518311 0.913515210151672 0.796037912368774
1.659358024597168 -0.892538547515869 0.896495103836060
1.757425785064697 -0.892939805984497 0.896411061286926
1.856391906738281 -0.892055630683899 0.893061757087708
-0.400260925292969 -0.807073831558228 0.905727505683899
-0.310178518295288 -0.812368869781494 0.907485485076904
-0.238783836364746 -0.805554986000061 0.967218995094299
0.615478992462158 -0.789737343788147 0.895189881324768
0.634229183197021 -0.802475214004517 0.929684996604919
0.769795894622803 -0.802050709724426 0.926617264747620
1.609847545623779 -0.797200322151184 0.951459884643555
1.638145923614502 -0.838233232498169 0.931630373001099
1.777649879455566 -0.823561549186707 0.951248764991760
1.862723827362061 -0.842739343643188 0.934173941612244
1.966804027557373 -0.848370432853699 0.925064563751221
2.071280956268311 -0.851446986198425 0.915273904800415
2.159190654754639 -0.835770726203918 0.918781995773315
2.270408153533936 -0.819241523742676 0.915587663650513
2.358615398406982 -0.815463781356812 0.902285933494568
2.448248386383057 -0.796837687492371 0.895789027214050
-0.489078521728516 -0.771741867065430 0.893352389335632
-0.416043043136597 -0.778551340103149 0.909894227981567
-0.331881999969482 -0.766523718833923 0.942861199378967
-0.237605571746826 -0.774451255798340 0.950421690940857
-0.175964117050171 -0.762419223785400 0.987628221511841
0.615143537521362 -0.785258054733276 0.905217528343201
0.635182619094849 -0.771646618843079 0.961084604263306
0.783168315887451 -0.776778221130371 0.945474982261658
1.578018665313721 -0.771866917610168 0.948469042778015
1.633336544036865 -0.764261484146118 0.988936901092529
1.809425830841064 -0.787285923957825 0.988923072814941
1.863387107849121 -0.785173535346985 0.985108613967896
1.969149589538574 -0.780153393745422 0.978756427764893
2.069786071777344 -0.774333596229553 0.971429347991943
2.162445545196533 -0.761730670928955 0.968896269798279
2.261963367462158 -0.749677658081055 0.960598707199097
2.374297618865967 -0.724334239959717 0.952606320381165
2.470097541809082 -0.732679486274719 0.922892928123474
2.563292503356934 -0.729790568351746 0.898025751113892
2.408156394958496 -0.625466942787170 0.987263202667236
2.473621845245361 -0.619877219200134 0.955400228500366
2.560671806335449 -0.639192819595337 0.910216212272644
2.403203487396240 -0.517562866210938 0.983407378196716
2.483430862426758 -0.538927078247070 0.965811491012573
2.583974361419678 -0.542042613029480 0.919819355010986
2.623342037200928 -0.516771554946899 0.895516514778137
-0.717963457107544 -0.392754882574081 0.890968918800354
2.604495048522949 -0.434592813253403 0.927668333053589
2.631403446197510 -0.430346250534058 0.909972786903381
-0.727081775665283 -0.331237614154816 0.891799688339233
2.606340408325195 -0.336609184741974 0.933892011642456
2.634061813354492 -0.338429361581802 0.910496115684509
-0.739274740219116 -0.230315208435059 0.892237544059753
2.609436988830566 -0.235584989190102 0.942222476005554
2.657095432281494 -0.278481990098953 0.908394455909729
-0.781892061233521 -0.117657043039799 0.891631245613098
-0.746561408042908 -0.138025149703026 0.893070936203003
2.609243869781494 -0.150351569056511 0.950312018394470
2.659736156463623 -0.135717660188675 0.909034729003906
-0.786838769912720 -0.053220249712467 0.891662359237671
-0.750540494918823 -0.030469253659248 0.893671393394470
2.594704151153564 -0.030565276741982 0.967423200607300
2.660014629364014 -0.043356101959944 0.909979701042175
-0.783151865005493 0.089687272906303 0.891714334487915
-0.749981045722961 0.058297518640757 0.893561601638794
2.592464923858643 0.057562179863453 0.968647480010986
2.658755302429199 0.065314412117004 0.911373257637024
-0.781566143035889 0.124647781252861 0.891486763954163
-0.745151996612549 0.159996256232262 0.892824769020081
2.612424850463867 0.172591865062714 0.945850491523743
2.659878253936768 0.146904617547989 0.908631920814514
-0.737350106239319 0.249113291501999 0.892196178436279
2.608836174011230 0.271773755550385 0.938636422157288
2.646685123443604 0.290108054876328 0.912190794944763
-0.725351095199585 0.343517571687698 0.891586661338806
2.605496406555176 0.346397578716278 0.933590531349182
2.635863780975342 0.360550880432129 0.909016132354736
2.396296977996826 0.508220195770264 0.985996603965759
2.499083995819092 0.504787087440491 0.962636351585388
2.602201938629150 0.449905931949615 0.926712870597839
2.630842685699463 0.435263067483902 0.909386634826660
2.403485298156738 0.518485784530640 0.983254313468933
2.455182075500488 0.596265316009521 0.969977974891663
2.573412895202637 0.570423603057861 0.916225910186768
2.622760295867920 0.526847839355469 0.894455671310425
2.408310413360596 0.624628067016602 0.987351179122925
2.482764244079590 0.625028610229492 0.949685692787170
2.559877395629883 0.646470069885254 0.910292387008667
-0.489017486572266 0.771773219108582 0.893364310264587
-0.410496950149536 0.788752317428589 0.909787297248840
-0.326823711395264 0.771754503250122 0.935748219490051
-0.235750913619995 0.783652663230896 0.956863403320312
-0.175633907318115 0.762304425239563 0.987540125846863
0.615050315856934 0.786157965660095 0.903229594230652
0.635298490524292 0.783205628395081 0.950604200363159
0.778944969177246 0.784905314445496 0.940312743186951
1.586311340332031 0.778023004531860 0.952579259872437
1.627723693847656 0.802562117576599 0.970960021018982
1.784856796264648 0.799414277076721 0.973003983497620
1.862082481384277 0.796866774559021 0.970164418220520
1.970816612243652 0.788669586181641 0.970033884048462
2.071532726287842 0.778859972953796 0.967807769775391
2.166104316711426 0.766436338424683 0.965430736541748
2.260013103485107 0.756452202796936 0.956423401832581
2.371279239654541 0.757329940795898 0.933683633804321
2.475533962249756 0.765029668807983 0.905923128128052
2.554583549499512 0.743204474449158 0.895818471908569
-0.392168045043945 0.818789243698120 0.897752165794373
-0.316567659378052 0.824320554733276 0.909461855888367
-0.269960165023804 0.813695430755615 0.943917274475098
0.626228094100952 0.812575697898865 0.897398591041565
0.762057065963745 0.812632679939270 0.895555138587952
1.616461277008057 0.812609076499939 0.917646288871765
1.642252922058105 0.851316452026367 0.918944358825684
1.775140762329102 0.839909911155701 0.936802744865417
1.857408523559570 0.846004128456116 0.932323694229126
1.971244335174561 0.852191567420959 0.924702167510986
2.069517135620117 0.850491046905518 0.918871164321899
2.147504806518555 0.843088388442993 0.916260957717896
2.267029762268066 0.829244375228882 0.910040378570557
2.344496726989746 0.819395542144775 0.902611494064331
-0.195568799972534 -0.794156312942505 0.999770998954773
-0.177186965942383 -0.789800286293030 1.012667059898376
1.695550918579102 -0.790567517280579 0.992934703826904
1.744222640991211 -0.790464758872986 0.992478013038635
-0.282065629959106 -0.760358095169067 0.992349028587341
-0.232277393341064 -0.747084498405457 1.017350673675537
-0.133380174636841 -0.753320217132568 1.045143842697144
-0.058083057403564 -0.739553213119507 1.076847076416016
0.663239717483521 -0.752620100975037 1.038484811782837
0.794450759887695 -0.750957250595093 1.040544509887695
0.824794292449951 -0.733334064483643 1.051851630210876
1.514923095703125 -0.709934592247009 1.077414631843567
1.556866168975830 -0.746081829071045 1.025585770606995
1.687276840209961 -0.760488271713257 1.001163601875305
1.756155967712402 -0.752468705177307 1.043768525123596
1.864391326904297 -0.756940245628357 1.038207769393921
1.973361968994141 -0.744595050811768 1.038868308067322
2.074359416961670 -0.728185653686523 1.041201233863831
2.165683269500732 -0.711047291755676 1.039703249931335
2.260175228118896 -0.700940012931824 1.017251253128052
2.320523262023926 -0.690485358238220 1.004111289978027
2.201611518859863 -0.646252393722534 1.083328366279602
2.272394180297852 -0.644921660423279 1.052593588829041
2.362592220306396 -0.639320611953735 1.011243820190430
2.425255298614502 -0.634292125701904 0.993174672126770
2.280776023864746 -0.572767734527588 1.072985291481018
2.352595329284668 -0.563328385353088 1.039159417152405
2.432803630828857 -0.558050036430359 1.000004291534424
2.244196414947510 0.507110476493835 1.062809348106384
2.373972892761230 0.506915450096130 0.996902346611023
2.281661033630371 0.580416202545166 1.071641325950623
2.350048542022705 0.569721937179565 1.040003418922424
2.432797908782959 0.558851599693298 0.999770283699036
-0.186456441879272 0.707273840904236 1.046784162521362
-0.117425680160522 0.709687113761902 1.086720943450928
1.513125181198120 0.707187891006470 1.082483172416687
2.086496829986572 0.701664447784424 1.083370804786682
2.200968265533447 0.644704699516296 1.082731008529663
2.272140979766846 0.646484255790710 1.050878643989563
2.363286495208740 0.640560388565063 1.010139465332031
2.425396442413330 0.635300278663635 0.993048191070557
-0.282221555709839 0.760435819625854 0.992412209510803
-0.229205608367920 0.754733443260193 1.013604640960693
-0.133614063262939 0.755786657333374 1.043119788169861
-0.057648420333862 0.739000201225281 1.076659083366394
0.663441896438599 0.753208041191101 1.038467288017273
0.793965816497803 0.752015113830566 1.039923429489136
0.824794292449951 0.733371853828430 1.051851630210876
1.517414093017578 0.713777899742126 1.070851325988770
1.556265354156494 0.745542645454407 1.026032447814941
1.692259788513184 0.764749050140381 1.001042246818542
1.756337165832520 0.751748800277710 1.044702053070068
1.862344741821289 0.766881585121155 1.019504904747009
1.974893569946289 0.749761819839478 1.029000401496887
2.070831775665283 0.741149902343750 1.019265532493591
2.156629562377930 0.727595210075378 1.015408515930176
2.241415977478027 0.719732046127319 0.996277332305908
-0.100081443786621 -0.715681791305542 1.107856512069702
-0.022096633911133 -0.721622228622437 1.128905773162842
0.062786102294922 -0.712392568588257 1.156205654144287
0.125195741653442 -0.690707206726074 1.184932947158813
0.694798469543457 -0.715882182121277 1.131553411483765
0.807039022445679 -0.714573025703430 1.130835294723511
0.823297500610352 -0.693793535232544 1.145302057266235
1.506551504135132 -0.699919462203979 1.117343306541443
1.523374557495117 -0.718351483345032 1.100028991699219
1.792708396911621 -0.707031011581421 1.129887461662292
1.864871978759766 -0.707988381385803 1.127639532089233
1.969972610473633 -0.700776219367981 1.118039846420288
2.057743072509766 -0.696195721626282 1.101725816726685
-0.085867881774902 -0.683001160621643 1.112766742706299
0.003080129623413 -0.683826565742493 1.164104342460632
0.033357143402100 -0.679138422012329 1.183147549629211
0.135303020477295 -0.685296535491943 1.184200167655945
0.705368280410767 -0.682350754737854 1.176626682281494
0.818835973739624 -0.686860084533691 1.165236473083496
0.822717189788818 -0.679797887802124 1.177016496658325
1.488669395446777 -0.675251007080078 1.160497069358826
1.528602838516235 -0.681720614433289 1.176681160926819
1.681892395019531 -0.672805070877075 1.180739879608154
1.784059524536133 -0.677186846733093 1.174391150474548
1.879264354705811 -0.677092671394348 1.175595283508301
1.982003211975098 -0.638263463973999 1.177410006523132
2.069165229797363 -0.637580752372742 1.140715837478638
2.149610519409180 -0.641820430755615 1.108171820640564
2.235558509826660 -0.597115755081177 1.093422889709473
2.065421104431152 -0.562551856040955 1.181852221488953
2.156018733978271 -0.539011597633362 1.130771160125732
2.247258663177490 -0.567801713943481 1.099855422973633
2.108273029327393 0.503969788551331 1.187321305274963
2.150053977966309 0.506626009941101 1.119385242462158
1.988733768463135 0.603596329689026 1.187408208847046
2.064679622650146 0.564648628234863 1.181148648262024
2.157100200653076 0.552602767944336 1.132127165794373
2.247051239013672 0.567743301391602 1.099878787994385
-0.093381404876709 0.706681728363037 1.102095842361450
-0.020058870315552 0.693178415298462 1.155156731605530
0.067255973815918 0.697509288787842 1.161309242248535
0.132074117660522 0.687120437622070 1.184469580650330
0.699650049209595 0.697218894958496 1.154994487762451
0.810985565185547 0.701658844947815 1.149978518486023
0.822719573974609 0.681247591972351 1.173848867416382
1.496639490127563 0.686185240745544 1.140337467193604
1.536474466323853 0.692888975143433 1.154011487960815
1.685887813568115 0.673370122909546 1.179461598396301
1.787854194641113 0.685888409614563 1.160452485084534
1.878434658050537 0.683996677398682 1.164979696273804
1.980869770050049 0.637980103492737 1.177894473075867
2.069569587707520 0.637471675872803 1.140302777290344
2.148276805877686 0.640143752098083 1.107171893119812
-0.105419158935547 0.720111370086670 1.107849121093750
-0.013366222381592 0.735464572906494 1.116433739662170
0.046426296234131 0.724247097969055 1.155060410499573
0.693577527999878 0.725784182548523 1.121715068817139
0.804342031478882 0.723603010177612 1.119972825050354
0.832856655120850 0.712465643882751 1.102874875068665
1.516399383544922 0.714834570884705 1.103461146354675
1.522692203521729 0.719739913940430 1.096939921379089
1.789540290832520 0.721467494964600 1.109305620193481
1.864038467407227 0.714053511619568 1.118437290191650
1.936978816986084 0.718176126480103 1.097221970558167
0.106450796127319 -0.713821887969971 1.197872400283813
0.174417972564697 -0.698428988456726 1.229863286018372
0.718883514404297 -0.696850299835205 1.194650888442993
0.765737295150757 -0.694501757621765 1.201783657073975
0.075983285903931 -0.669820904731750 1.213289022445679
0.176041603088379 -0.643464446067810 1.248869538307190
0.264529466629028 -0.656125903129578 1.255422949790955
0.365722179412842 -0.646187663078308 1.271987080574036
0.462582111358643 -0.632583975791931 1.283926129341125
0.542866468429565 -0.624469161033630 1.288687467575073
0.706299781799316 -0.640339493751526 1.260066986083984
0.747710466384888 -0.657976746559143 1.251210093498230
0.834924221038818 -0.645516633987427 1.253338694572449
0.967705726623535 -0.617893457412720 1.282427549362183
1.103970527648926 -0.610028624534607 1.289099693298340
1.183227539062500 -0.611027240753174 1.287427783012390
1.270873546600342 -0.614670038223267 1.281212091445923
1.385307312011719 -0.623038887977600 1.270401716232300
1.472309112548828 -0.643840789794922 1.241231799125671
1.566638469696045 -0.651930570602417 1.248188376426697
1.672974586486816 -0.659790277481079 1.227851152420044
1.748086929321289 -0.667237281799316 1.206879973411560
1.911646842956543 -0.608541369438171 1.235769152641296
1.937255382537842 -0.620231628417969 1.213182687759399
0.176805973052979 -0.569178462028503 1.277960777282715
0.232466459274292 -0.573998689651489 1.287694454193115
1.799341678619385 -0.577741861343384 1.286610364913940
1.905951499938965 -0.547903537750244 1.272949934005737
1.958244323730469 -0.554351449012756 1.247921824455261
2.049172878265381 -0.534687757492065 1.210793614387512
0.115822076797485 -0.407113224267960 1.270564794540405
0.139000654220581 -0.444457024335861 1.281864047050476
1.885370254516602 -0.431053668260574 1.257093310356140
1.972692489624023 -0.432206273078918 1.267704963684082
2.063360214233398 -0.434525728225708 1.243461966514587
2.119975566864014 -0.398558020591736 1.220119357109070
0.118041038513184 -0.300657749176025 1.282387137413025
0.124321937561035 -0.347247570753098 1.281455516815186
1.866170406341553 -0.337568253278732 1.261957168579102
1.941211223602295 -0.346819341182709 1.242723584175110
2.088529109954834 -0.329136878252029 1.258691668510437
2.130624771118164 -0.345773041248322 1.226389050483704
0.113856554031372 -0.235695824027061 1.284866094589233
1.871542930603027 -0.222791790962219 1.263679027557373
1.937376022338867 -0.215075358748436 1.249264240264893
2.092035770416260 -0.239592999219894 1.270223855972290
2.123218059539795 -0.213137924671173 1.256057620048523
0.108576536178589 -0.135725498199463 1.286811232566833
1.869904041290283 -0.131549760699272 1.269830822944641
1.938328266143799 -0.143018215894699 1.252187371253967
2.072532653808594 -0.142003133893013 1.283010125160217
2.129164695739746 -0.141233742237091 1.263231873512268
0.106246471405029 -0.024957530200481 1.287709832191467
1.852539062500000 -0.037555247545242 1.273416399955750
1.939850807189941 -0.029220445081592 1.252835631370544
2.076396942138672 -0.051573920994997 1.286397814750671
2.134737491607666 -0.037384256720543 1.264769554138184
0.106601238250732 0.056889668107033 1.287548065185547
1.860274791717529 0.074089527130127 1.271071791648865
1.939431667327881 0.064589358866215 1.252416253089905
2.075632572174072 0.068214133381844 1.285739779472351
2.133951187133789 0.056956473737955 1.266091465950012
0.109555482864380 0.159115388989449 1.286512732505798
1.874665737152100 0.172861933708191 1.267190694808960
1.937336444854736 0.163040652871132 1.251771926879883
2.074423789978027 0.157143771648407 1.281651020050049
2.127615928649902 0.159279897809029 1.262277722358704
0.115448474884033 0.257566213607788 1.284286856651306
0.119983434677124 0.302641749382019 1.283554315567017
1.866004467010498 0.256780356168747 1.262177228927612
1.940629482269287 0.270720303058624 1.245169758796692
2.090622901916504 0.276701450347900 1.266865253448486
2.122235298156738 0.228154659271240 1.253208160400391
0.113275289535522 0.342982381582260 1.276036381721497
0.126732587814331 0.365357488393784 1.281721591949463
1.869172096252441 0.366971909999847 1.261826515197754
1.961884975433350 0.380374014377594 1.253098487854004
2.086552619934082 0.353493064641953 1.254745483398438
2.127272129058838 0.363596647977829 1.224416971206665
0.117723226547241 0.420313894748688 1.269926309585571
0.142397165298462 0.463206142187119 1.281345844268799
1.888042926788330 0.463685005903244 1.265972733497620
1.975193500518799 0.447678059339523 1.269472360610962
2.061202049255371 0.462685197591782 1.235506296157837
0.181198835372925 0.579339027404785 1.276176095008850
0.237674951553345 0.585507392883301 1.285937070846558
1.110854625701904 0.609105467796326 1.290311932563782
1.170399665832520 0.610015511512756 1.287269592285156
1.225133180618286 0.610859513282776 1.281979680061340
1.697403430938721 0.605622887611389 1.285739660263062
1.744694709777832 0.600124716758728 1.281708598136902
1.908181667327881 0.557969331741333 1.267437458038330
1.940921783447266 0.589732408523560 1.234765529632568
2.043470859527588 0.549334406852722 1.206303477287292
0.073212862014771 0.670789241790771 1.211857676506042
0.176312685012817 0.656805634498596 1.243387460708618
0.267251729965210 0.664921283721924 1.251051902770996
0.365637779235840 0.646297931671143 1.272057175636292
0.462835311889648 0.632577180862427 1.283865332603455
0.543486118316650 0.624450087547302 1.288694977760315
0.706661939620972 0.640788078308105 1.260309576988220
0.750250816345215 0.664801001548767 1.242365717887878
0.835053443908691 0.645491719245911 1.253145217895508
0.967710256576538 0.617845535278320 1.282375931739807
1.066423654556274 0.618227720260620 1.277066230773926
1.206942796707153 0.613147020339966 1.288077235221863
1.271358489990234 0.614818215370178 1.281263232231140
1.383248090744019 0.622949600219727 1.270573258399963
1.472001314163208 0.643500685691833 1.241509675979614
1.564292430877686 0.651497960090637 1.248321294784546
1.674260139465332 0.660105705261230 1.226044416427612
1.744760513305664 0.668327450752258 1.205243229866028
1.913816452026367 0.617870092391968 1.233390450477600
1.938217163085938 0.628219246864319 1.206257224082947
0.108242750167847 0.714952468872070 1.197297334671021
0.121980905532837 0.711643934249878 1.204382658004761
0.215810775756836 -0.612346529960632 1.293085813522339
0.273180007934570 -0.601737976074219 1.309671640396118
0.364650964736938 -0.628890275955200 1.312665700912476
0.468951702117920 -0.647605299949646 1.306045532226562
0.574677228927612 -0.631247639656067 1.305786252021790
0.669385194778442 -0.625442624092102 1.306001543998718
0.767405509948730 -0.627099752426147 1.316260457038879
0.873015880584717 -0.619028925895691 1.310216188430786
0.966236591339111 -0.615999937057495 1.311764121055603
1.066102981567383 -0.616238236427307 1.307736635208130
1.166156291961670 -0.620711207389832 1.305975794792175
1.267803668975830 -0.630874037742615 1.306465983390808
1.357176303863525 -0.634449601173401 1.299370884895325
1.466842174530029 -0.613852500915527 1.311221122741699
1.567067146301270 -0.607468128204346 1.304016351699829
1.653899192810059 -0.598548531532288 1.297585844993591
0.210886478424072 -0.573145627975464 1.294183492660522
0.250526666641235 -0.570796370506287 1.299662947654724
0.381139039993286 -0.564579486846924 1.331162095069885
0.467285394668579 -0.558086752891541 1.347263693809509
0.569657325744629 -0.548106670379639 1.360087394714355
0.669826745986938 -0.540082097053528 1.368049621582031
0.773512601852417 -0.532136917114258 1.372754812240601
0.868880033493042 -0.527395963668823 1.374551296234131
0.969300031661987 -0.521690845489502 1.374293208122253
1.069216728210449 -0.516735672950745 1.372095704078674
1.167825460433960 -0.512356877326965 1.367812037467957
1.263389110565186 -0.516956567764282 1.360952138900757
1.371195793151855 -0.517030954360962 1.354207754135132
1.468893527984619 -0.512769579887390 1.343921899795532
1.568870544433594 -0.509189128875732 1.333713769912720
1.678731918334961 -0.505089163780212 1.321779370307922
1.758780002593994 -0.501291632652283 1.313844799995422
1.877504348754883 -0.500446319580078 1.300053477287292
0.140416622161865 -0.407622992992401 1.293506979942322
0.262733697891235 -0.437452614307404 1.330010771751404
0.374176740646362 -0.436806976795197 1.354853391647339
0.465240955352783 -0.447123795747757 1.368287682533264
0.566556692123413 -0.456113010644913 1.378432154655457
0.661715745925903 -0.452180773019791 1.385650515556335
0.761193275451660 -0.468648135662079 1.387808918952942
0.861960649490356 -0.469834536314011 1.388797283172607
0.972940444946289 -0.460318177938461 1.389034032821655
1.077521085739136 -0.443516016006470 1.387688636779785
1.206203460693359 -0.482493758201599 1.375972032546997
1.278754949569702 -0.486781269311905 1.365086555480957
1.370697259902954 -0.483305007219315 1.356045365333557
1.467945337295532 -0.479245871305466 1.347610592842102
1.569850444793701 -0.475168734788895 1.337533235549927
1.673987388610840 -0.470897018909454 1.326492547988892
1.764863967895508 -0.467396229505539 1.317357420921326
1.888344287872314 -0.441049069166183 1.305274009704590
1.946417808532715 -0.426156491041183 1.297566652297974
0.119391679763794 -0.289891153573990 1.294983625411987
0.127452373504639 -0.340318232774734 1.294608592987061
0.266467094421387 -0.336477816104889 1.340468764305115
0.365726709365845 -0.338101267814636 1.362299084663391
0.466926813125610 -0.346302032470703 1.377573847770691
0.561620950698853 -0.360190093517303 1.387005925178528
1.183578491210938 -0.368731021881104 1.389877200126648
1.265991687774658 -0.346559405326843 1.386763095855713
1.368797063827515 -0.342928141355515 1.379596471786499
1.481897115707397 -0.329968810081482 1.370943427085876
1.593399524688721 -0.336362034082413 1.359734535217285
1.647160530090332 -0.339526355266571 1.353261709213257
1.753388404846191 -0.338314086198807 1.341100931167603
1.888043403625488 -0.348080307245255 1.316802501678467
1.948054313659668 -0.337918579578400 1.305303096771240
0.115947484970093 -0.233551770448685 1.297281384468079
0.128801345825195 -0.273013979196548 1.300321817398071
0.270426273345947 -0.238762274384499 1.347853660583496
0.357624292373657 -0.241742819547653 1.366942524909973
0.471159458160400 -0.249369740486145 1.384222149848938
1.360810518264771 -0.244471177458763 1.386593341827393
1.479542493820190 -0.239781036973000 1.376931786537170
1.570492744445801 -0.239527016878128 1.368258714675903
1.647299289703369 -0.238860443234444 1.360377192497253
1.753275871276855 -0.244109869003296 1.348160862922668
1.882256031036377 -0.240796402096748 1.326308012008667
1.958764553070068 -0.216364607214928 1.305785417556763
2.023534774780273 -0.209411501884460 1.291532754898071
0.111003875732422 -0.139037981629372 1.299133539199829
0.163840293884277 -0.139411941170692 1.319879889488220
0.270915031433105 -0.151663437485695 1.351539492607117
0.374243259429932 -0.145749330520630 1.373807072639465
0.458866596221924 -0.153439044952393 1.386687994003296
1.389135599136353 -0.145264878869057 1.388515830039978
1.466365575790405 -0.141521990299225 1.381995081901550
1.570412158966064 -0.139654323458672 1.372425556182861
1.645395755767822 -0.128293231129646 1.365032315254211
1.740420818328857 -0.147128596901894 1.354029536247253
1.880422592163086 -0.139394551515579 1.331166505813599
1.963005065917969 -0.154979452490807 1.310966134071350
2.031346797943115 -0.134218230843544 1.293040633201599
0.108446121215820 -0.025953313335776 1.300023198127747
0.168159961700439 -0.033384267240763 1.323168158531189
0.266738176345825 -0.044909626245499 1.352842092514038
0.366693973541260 -0.044376906007528 1.374419450759888
0.449775934219360 -0.040458556264639 1.387706160545349
1.405388116836548 -0.046854309737682 1.388762116432190
1.477886438369751 -0.026354420930147 1.383049368858337
1.590691089630127 -0.039287522435188 1.372181057929993
1.669521808624268 -0.001545434119180 1.364392042160034
1.744649410247803 -0.032619848847389 1.355843067169189
1.880246639251709 -0.028614912182093 1.333328485488892
1.977466583251953 -0.020372107625008 1.313406586647034
2.041254997253418 -0.020962204784155 1.293239951133728
0.108826398849487 0.054832562804222 1.299961805343628
0.161386489868164 0.063342295587063 1.320640802383423
0.267072677612305 0.069907277822495 1.352903127670288
0.371816158294678 0.072771988809109 1.375228047370911
0.451318979263306 0.071154013276100 1.387858748435974
1.403024673461914 0.079379886388779 1.388862609863281
1.475061655044556 0.064654879271984 1.383240699768066
1.579411983489990 0.055053588002920 1.373211979866028
1.661221504211426 0.069401316344738 1.364832162857056
1.731299400329590 0.066176220774651 1.356914877891541
1.880028724670410 0.056951560080051 1.333061695098877
1.975524425506592 0.032636784017086 1.315065979957581
2.038859844207764 0.043479759246111 1.293564677238464
0.111852645874023 0.160459220409393 1.298780798912048
0.165751457214355 0.156142905354500 1.319999575614929
0.266755104064941 0.161987200379372 1.350182294845581
0.371984481811523 0.159257337450981 1.373006939888000
0.464297771453857 0.156591162085533 1.387197017669678
1.385229825973511 0.159377276897430 1.388184309005737
1.478024482727051 0.158010199666023 1.380505800247192
1.562056541442871 0.159480735659599 1.372618079185486
1.647871494293213 0.170013844966888 1.363419771194458
1.740402698516846 0.158297866582870 1.353476643562317
1.881050586700439 0.161949604749680 1.330285906791687
1.964212894439697 0.177078425884247 1.306827187538147
2.030555725097656 0.146839484572411 1.292685866355896
0.116762161254883 0.245165973901749 1.297018527984619
0.124855518341064 0.292131125926971 1.297394037246704
0.264942884445190 0.258256375789642 1.345402836799622
0.365098237991333 0.256217449903488 1.367701053619385
0.464832305908203 0.254706412553787 1.383097767829895
1.355834007263184 0.257494837045670 1.386392474174500
1.479201555252075 0.261667758226395 1.375908851623535
1.573338508605957 0.258145004510880 1.366866469383240
1.648157119750977 0.260030329227448 1.358957529067993
1.747362613677979 0.260619640350342 1.347538471221924
1.883012771606445 0.260354995727539 1.325023174285889
1.947253227233887 0.256862163543701 1.310423731803894
2.020172595977783 0.215511545538902 1.291752696037292
0.129589080810547 0.361012041568756 1.293713927268982
0.264014482498169 0.364007443189621 1.337723612785339
0.367706298828125 0.357369989156723 1.361249685287476
0.469127178192139 0.355236917734146 1.377289891242981
0.558700799942017 0.360389471054077 1.386757254600525
1.156185865402222 0.388226628303528 1.389825224876404
1.262179851531982 0.354137450456619 1.386583328247070
1.370832443237305 0.363432198762894 1.377795696258545
1.488629102706909 0.348793834447861 1.368913888931274
1.577280521392822 0.361943662166595 1.359037518501282
1.644127845764160 0.359602719545364 1.351850509643555
1.755310535430908 0.366087138652802 1.338093876838684
1.889415740966797 0.366428792476654 1.314567208290100
1.949240684509277 0.362162411212921 1.302714824676514
0.165251255035400 0.446700036525726 1.298326253890991
0.266584396362305 0.468118846416473 1.327494978904724
0.371812582015991 0.468555480241776 1.351101279258728
0.464183330535889 0.472630798816681 1.365389943122864
0.559440135955811 0.464055776596069 1.376968026161194
0.663188457489014 0.457042127847672 1.385153770446777
0.808742046356201 0.508219242095947 1.383044362068176
0.874287366867065 0.507829666137695 1.376704812049866
0.969559431076050 0.502660155296326 1.374890923500061
1.069294929504395 0.497301399707794 1.372748613357544
1.168612957000732 0.492439597845078 1.368696212768555
1.269194364547729 0.487884670495987 1.363015055656433
1.373944282531738 0.489426791667938 1.352695345878601
1.469117164611816 0.488183110952377 1.343184709548950
1.574004650115967 0.488687932491302 1.334541082382202
1.675572872161865 0.488237857818604 1.324630498886108
1.761071681976318 0.486990332603455 1.314905881881714
1.883794307708740 0.473360002040863 1.302015542984009
1.944070339202881 0.443379938602448 1.296194195747375
0.211306810379028 0.574694514274597 1.294134736061096
0.255078077316284 0.578162431716919 1.302150845527649
0.377950668334961 0.566753745079041 1.331494450569153
0.467152833938599 0.555980563163757 1.346385121345520
0.569618225097656 0.545292735099792 1.358996629714966
0.668538331985474 0.534121870994568 1.365603923797607
0.773976802825928 0.531713724136353 1.372385263442993
0.868704080581665 0.545234560966492 1.367616534233093
0.969330549240112 0.556652426719666 1.353840470314026
1.068614006042480 0.551922798156738 1.351826429367065
1.166105747222900 0.532446980476379 1.363276243209839
1.266954660415649 0.524202704429626 1.361325025558472
1.365516901016235 0.521464705467224 1.357576370239258
1.470519542694092 0.522842884063721 1.350952029228210
1.553215026855469 0.522313356399536 1.341868877410889
1.667735099792480 0.560033798217773 1.314434289932251
1.736426830291748 0.551506638526917 1.308302521705627
1.889969348907471 0.523157596588135 1.294770717620850
0.214156866073608 0.612585783004761 1.292706012725830
0.257231473922729 0.629135012626648 1.298284053802490
0.386536836624146 0.659420132637024 1.298158168792725
0.468206882476807 0.648169517517090 1.305315494537354
0.574934005737305 0.631432890892029 1.305332303047180
0.668646335601807 0.625367879867554 1.305694937705994
0.766863346099854 0.627621054649353 1.315839529037476
0.871053457260132 0.619984745979309 1.310580492019653
0.966944456100464 0.618691921234131 1.314670443534851
1.068018436431885 0.618838191032410 1.310418844223022
1.167051315307617 0.621415734291077 1.304681658744812
1.266086101531982 0.632142901420593 1.305237889289856
1.356532573699951 0.636936306953430 1.296925544738770
1.469319820404053 0.625744342803955 1.301839351654053
1.561914920806885 0.619653940200806 1.295815825462341
1.627124309539795 0.611600756645203 1.293163061141968
0.762086629867554 -0.417062282562256 1.393222212791443
0.873952150344849 -0.430634051561356 1.393354177474976
0.964422941207886 -0.417324393987656 1.393722653388977
1.050554275512695 -0.406615942716599 1.392547249794006
0.603137493133545 -0.333487153053284 1.392472624778748
0.675679922103882 -0.346853464841843 1.395812988281250
0.767700433731079 -0.350708991289139 1.398809075355530
0.870197057723999 -0.341653525829315 1.400762915611267
0.975757122039795 -0.337066233158112 1.399962544441223
1.073291778564453 -0.334052652120590 1.397583127021790
1.165029048919678 -0.318517208099365 1.394658923149109
1.233855962753296 -0.298803150653839 1.392572045326233
0.512926340103149 -0.215732827782631 1.391368746757507
0.579247236251831 -0.248871043324471 1.395482778549194
0.680762052536011 -0.245856195688248 1.402133584022522
0.767362356185913 -0.243321478366852 1.405437707901001
0.864933013916016 -0.241628497838974 1.406709313392639
0.967698812484741 -0.236573666334152 1.406078815460205
1.075671434402466 -0.239394560456276 1.402945637702942
1.171009302139282 -0.244868159294128 1.398598790168762
1.257791042327881 -0.227839440107346 1.394517898559570
1.322834730148315 -0.195653349161148 1.391240119934082
0.498159646987915 -0.125067874789238 1.392347335815430
0.567980766296387 -0.142395824193954 1.398596167564392
0.669648170471191 -0.140720680356026 1.405456542968750
0.761019468307495 -0.132738262414932 1.409218311309814
0.870689392089844 -0.136761441826820 1.410347938537598
0.976295948028564 -0.140243664383888 1.409314513206482
1.077787637710571 -0.134166568517685 1.406770944595337
1.171885251998901 -0.130595445632935 1.402701139450073
1.255616903305054 -0.153914555907249 1.397489190101624
1.341682910919189 -0.112602308392525 1.392869114875793
0.502605438232422 -0.036197848618031 1.394263863563538
0.574316978454590 -0.041908320039511 1.400937318801880
0.671544313430786 -0.043793540447950 1.407304048538208
0.766711235046387 -0.038869567215443 1.410832285881042
0.868139505386353 -0.041846290230751 1.412060379981995
0.968273878097534 -0.038488820195198 1.411273598670959
1.071052312850952 -0.039966762065887 1.408555626869202
1.170213699340820 -0.036997392773628 1.404351472854614
1.264992713928223 -0.045168593525887 1.398998141288757
1.348777055740356 -0.036791570484638 1.393447995185852
0.502583503723145 0.070469208061695 1.394118428230286
0.574072837829590 0.071891933679581 1.400816202163696
0.672637939453125 0.073213867843151 1.407233357429504
0.770742893218994 0.069070331752300 1.410878658294678
0.869082689285278 0.070706017315388 1.412057161331177
0.968927860260010 0.069844521582127 1.411203503608704
1.067138195037842 0.066363096237183 1.408666968345642
1.157216787338257 0.065444499254227 1.404956459999084
1.265242815017700 0.064572520554066 1.398961901664734
1.347284317016602 0.071643956005573 1.393304944038391
0.511087894439697 0.147420629858971 1.393252730369568
0.568334817886353 0.153351306915283 1.398257374763489
0.676326990127563 0.160000428557396 1.405146837234497
0.769800901412964 0.165902242064476 1.408413052558899
0.856580257415771 0.157908260822296 1.409748911857605
0.966906547546387 0.162864506244659 1.408866405487061
1.077195405960083 0.159781232476234 1.405946016311646
1.176009654998779 0.158170685172081 1.401647090911865
1.266004323959351 0.157128557562828 1.396632194519043
1.336235761642456 0.155902594327927 1.391511082649231
0.512926340103149 0.215770676732063 1.391368746757507
0.582974195480347 0.248787119984627 1.395831584930420
0.676624774932861 0.254544138908386 1.401618123054504
0.769173383712769 0.256922304630280 1.404931545257568
0.866690635681152 0.268283635377884 1.405273437500000
0.970264673233032 0.262378960847855 1.404876112937927
1.062828540802002 0.267465174198151 1.402100682258606
1.179962873458862 0.263802498579025 1.397391438484192
1.243696928024292 0.261620372533798 1.393876433372498
0.607526779174805 0.338926851749420 1.392534375190735
0.679643630981445 0.340162247419357 1.396529793739319
0.756264925003052 0.375383108854294 1.396770477294922
0.862077474594116 0.370695501565933 1.398782372474670
0.962689638137817 0.366242259740829 1.398412108421326
1.071759939193726 0.361575335264206 1.395766854286194
1.159124135971069 0.337730109691620 1.393830418586731
0.781533718109131 0.436703383922577 1.391816139221191
0.889626264572144 0.443396925926208 1.392195940017700
0.974592924118042 0.436949819326401 1.391751170158386