ply
format ascii 1.0
element vertex 539
property float x
property float y
property float z
end_header
-0.009970581158995628 0.00395949836820364 0.0658627301454544
-0.009970581158995628 -0.0052459752187132835 0.06312976032495499
-0.009970581158995628 0.004858158994466066 0.060210056602954865
-0.009970581158995628 -0.0015103492187336087 0.06760022044181824
2.94183428195538e-05 -0.005108100827783346 0.06388593465089798
-0.009970581158995628 0.0001404634676873684 0.057337820529937744
-0.009970581158995628 -0.0037005748599767685 0.05901012569665909
2.9418744816211984e-05 -0.002484894823282957 0.058058466762304306
2.9391361749731004e-05 -0.0007099673384800553 0.06770006567239761
-0.015093700960278511 0.003847498446702957 0.07091593742370605
-0.01509302482008934 0.014300456270575523 0.06963473558425903
-0.03510251268744469 0.006685582920908928 0.07079677283763885
-0.015086489729583263 -0.004682893864810467 0.07090260833501816
-0.0351024754345417 -0.0057688201777637005 0.07082545012235641
-0.015084302052855492 -0.0710902288556099 -0.001291382359340787
-0.0351024754345417 -0.07095763087272644 0.004820253700017929
-0.035102758556604385 -0.07064402848482132 -0.007538082543760538
-0.015116867609322071 -0.0694771334528923 -0.015188601799309254
-0.015093749389052391 -0.013770530000329018 0.06967240571975708
-0.035102467983961105 -0.01427055336534977 0.06957952678203583
-0.03510265052318573 -0.06787129491567612 -0.021362323313951492
-0.015120272524654865 -0.023733148351311684 0.06704428791999817
-0.035102490335702896 -0.022701481357216835 0.06733306497335434
-0.015115457586944103 -0.06563632935285568 -0.027259303256869316
-0.035102542489767075 -0.031098250299692154 0.06384944170713425
-0.03510270267724991 -0.062252845615148544 -0.03423959016799927
-0.015062530525028706 -0.0352717787027359 0.06166906654834747
-0.015062048099935055 -0.060847535729408264 -0.03667028620839119
-0.03510249778628349 -0.03897862881422043 0.059429917484521866
-0.035102542489767075 -0.05747969448566437 -0.04171258211135864
-0.015087434090673923 -0.04366759955883026 0.056053511798381805
-0.015069874003529549 -0.05461765453219414 -0.04543650522828102
-0.03510259836912155 -0.047803521156311035 0.05257188156247139
-0.03510260209441185 -0.051469068974256516 -0.048995357006788254
-0.015099797397851944 -0.051752060651779175 0.04870670661330223
-0.0150853106752038 -0.04765116423368454 -0.052711308002471924
-0.03510254994034767 -0.05620782822370529 0.043534379452466965
-0.03510260954499245 -0.0434718057513237 -0.0562065914273262
-0.015094118192791939 -0.059525348246097565 0.038901928812265396
-0.01509864442050457 -0.03902553394436836 -0.05938999727368355
-0.035102613270282745 -0.03461126610636711 -0.062056735157966614
-0.035102467983961105 -0.061611562967300415 0.035340797156095505
-0.015085755847394466 -0.02999609336256981 -0.06441548466682434
-0.015091790817677975 -0.06607070565223694 0.026286358013749123
-0.035102471709251404 -0.06637760251760483 0.025520985946059227
-0.03510260954499245 -0.024976035580039024 -0.066522017121315
-0.015103863552212715 -0.019701244309544563 -0.06828328222036362
-0.0351027175784111 -0.015198342502117157 -0.06939682364463806
-0.015099246054887772 -0.06996255367994308 0.012712053023278713
-0.03510246425867081 -0.06929133832454681 0.0156096201390028
-0.015093674883246422 -0.010891138575971127 -0.07018011808395386
-0.035102542489767075 -0.006758453790098429 -0.0706978589296341
-0.015060614794492722 -0.0022149698343127966 -0.07100926339626312
-0.035102728754282 0.002247569616883993 -0.07100983709096909
-0.015093667432665825 0.00676300935447216 -0.07069744169712067
-0.035102542489767075 0.010895579122006893 -0.07017941027879715
-0.01506833452731371 0.015503671020269394 -0.06933365017175674
-0.03510260581970215 0.020118124783039093 -0.06815320998430252
-0.015087056905031204 0.02516503818333149 -0.06645186990499496
-0.03510260954499245 0.03018149547278881 -0.06432774662971497
-0.015097196213901043 0.03503459692001343 -0.06182781234383583
-0.03510260954499245 0.03943321853876114 -0.059110138565301895
-0.015087495557963848 0.043630775064229965 -0.05608462542295456
-0.03510260954499245 0.047803521156311035 -0.05257188156247139
-0.015102376230061054 0.051766566932201385 -0.04869217053055763
-0.0351027175784111 0.054820917546749115 -0.04518379643559456
-0.015093677677214146 0.05748239532113075 -0.04170889034867287
-0.035102471709251404 0.0610700398683548 -0.036352403461933136
-0.015069618821144104 0.06323829293251038 -0.032477252185344696
-0.03510254994034767 0.06655143201351166 -0.025014515966176987
-0.01509216520935297 0.0683637335896492 -0.019562875851988792
-0.03510255739092827 0.07016538828611374 -0.011507697403430939
-0.015120601281523705 0.0708623081445694 -0.005870646797120571
-0.035102542489767075 0.07100517302751541 -0.0014581085415557027
-0.015093700028955936 0.07084394991397858 0.004999883938580751
-0.035102568566799164 0.07062668353319168 0.007813171483576298
-0.015087081119418144 0.0697813332080841 0.013414207845926285
-0.03510246425867081 0.06920212507247925 0.01600048877298832
-0.015083870850503445 0.06643808633089066 0.02532542310655117
-0.03510251268744469 0.06605074554681778 0.02634720504283905
-0.015094814822077751 0.06087418273091316 0.036662351340055466
-0.035102471709251404 0.05947944149374962 0.03899110108613968
-0.015058368444442749 0.05473581701517105 0.04528389126062393
-0.03510250151157379 0.05175831913948059 0.04870652034878731
-0.015093459747731686 0.04741417616605759 0.0529308021068573
-0.035102564841508865 0.04360044747591019 0.056103188544511795
-0.01508866623044014 0.03912520408630371 0.059317898005247116
-0.035102467983961105 0.03686491400003433 0.060711819678545
-0.01505524292588234 0.02783973142504692 0.06543727219104767
-0.035102590918540955 0.029017269611358643 0.06486020982265472
-0.03510243073105812 0.018626319244503975 0.06858222186565399
-0.006470581516623497 -0.019409552216529846 -0.035043973475694656
3.0838251404929906e-05 -0.01683655008673668 -0.0364367850124836
-0.006470581516623497 -0.011199762113392353 -0.038501106202602386
-0.006470581516623497 -0.03916923329234123 -0.008109863847494125
2.94188048428623e-05 -0.039187416434288025 -0.008134428411722183
-0.006470581516623497 -0.03696572035551071 -0.01573883183300495
2.9418946724035777e-05 -0.037671227008104324 -0.013348206877708435
2.9418946724035777e-05 -0.005775390658527613 -0.03964165225625038
-0.006470581516623497 -0.001407801522873342 -0.040072161704301834
3.162744178553112e-05 -0.032857004553079605 -0.02309958077967167
3.2548708986723796e-05 0.0039970045909285545 -0.039911314845085144
-0.006470581516623497 -0.03210265561938286 -0.023805849254131317
-0.006470581516623497 0.007781669497489929 -0.03930805251002312
-0.006470581516623497 -0.026720881462097168 -0.029895802959799767
2.9418870326480828e-05 0.012465734034776688 -0.03803145885467529
2.804931500577368e-05 -0.02588629350066185 -0.030586183071136475
-0.006470581516623497 0.012561189010739326 -0.03797656297683716
-0.006470581516623497 0.040146030485630035 -0.0009956435533240438
2.8990054488531314e-05 0.03911888226866722 0.00869725365191698
-0.006470581516623497 0.038573794066905975 0.011110194027423859
2.9418946724035777e-05 0.04011406749486923 -0.0009948161896318197
-0.006470581516623497 0.026608042418956757 -0.029866456985473633
2.9418946724035777e-05 0.02664932608604431 -0.029878929257392883
-0.006470581516623497 0.03131789714097977 -0.02478460781276226
2.9236722184577957e-05 0.032776087522506714 -0.023171018809080124
2.9418946724035777e-05 0.03590789809823036 0.01794428378343582
-0.006470581516623497 0.03650103136897087 -0.0167047418653965
-0.006470581516623497 0.033622100949287415 0.021930044516921043
3.152523277094588e-05 0.038371630012989044 -0.011567250825464725
2.9418946724035777e-05 0.03135644644498825 0.024815063923597336
-0.006470581516623497 0.03899616748094559 -0.008849609643220901
-0.006470581516623497 0.026608042418956757 0.029866456985473633
2.9418946724035777e-05 0.026718702167272568 0.029814057052135468
-0.013366426341235638 -0.03022298403084278 -0.06316260248422623
-0.013402849435806274 -0.03948967158794403 -0.05792740359902382
-0.013412734493613243 -0.06992048770189285 -0.0054681613110005856
-0.013351990841329098 -0.06970015913248062 0.00708087207749486
-0.013365327380597591 -0.04747442901134491 -0.05146916210651398
-0.01337600126862526 -0.06735765933990479 0.019440628588199615
-0.01339173037558794 -0.05474504828453064 -0.043785758316516876
-0.013376346789300442 -0.062184832990169525 0.03237398341298103
-0.01335958857089281 -0.06227048113942146 -0.03219156339764595
-0.013371404260396957 -0.056719861924648285 0.041057854890823364
-0.013364939019083977 -0.06733830273151398 -0.01949651539325714
-0.013403013348579407 -0.05009649693965912 0.04904402047395706
-0.013371585868299007 -0.04212990030646324 0.05592866614460945
-0.013402230106294155 -0.033456940203905106 0.06160822883248329
-0.013368409126996994 -0.020656470209360123 0.06699422746896744
-0.013332451693713665 -0.006855233572423458 0.06976807117462158
-0.013390494510531425 0.004980001598596573 0.06989406794309616
-0.013345516286790371 0.015489409677684307 0.0683164969086647
-0.013389205560088158 0.02543041668832302 0.06529725342988968
-0.013333694078028202 0.03696827590465546 0.059566136449575424
-0.013404764235019684 0.047856882214546204 0.051231253892183304
-0.013369640335440636 0.05472278967499733 0.043685633689165115
-0.013392182998359203 0.0606265626847744 0.03519599512219429
-0.01336332131177187 0.06636462360620499 0.022595377638936043
-0.01336813997477293 0.06893841177225113 0.012267127633094788
-0.013300204649567604 0.06975799053907394 0.006039864383637905
-0.013380931690335274 0.07001476734876633 0.0012682187370955944
-0.013346804305911064 0.06969264894723892 -0.0070823864080011845
-0.01337441522628069 0.06744435429573059 -0.01914323680102825
-0.0133738424628973 0.0623282864689827 -0.03209969773888588
-0.013370179571211338 0.05685654282569885 -0.040870074182748795
-0.013404926285147667 0.050032373517751694 -0.04910917207598686
-0.013369516469538212 0.0423150435090065 -0.05578949302434921
-0.013404738157987595 0.033376842737197876 -0.06165200099349022
-0.013371187262237072 0.0204174742102623 -0.0670645609498024
-0.01337356399744749 0.0068954587914049625 -0.06976734101772308
-0.01336650550365448 -0.0072445496916770935 -0.069729283452034
-0.013403531163930893 -0.020703839138150215 -0.06698030978441238
-0.0009684663382358849 -0.015068275853991508 0.06838064640760422
-0.000835347396787256 -0.004444158170372248 0.06993255019187927
-0.0010153606999665499 -0.02489360235631466 0.06555356085300446
-0.0009651753352954984 -0.0683608204126358 -0.015151708386838436
-0.0008592838421463966 -0.06982681900262833 -0.005460887681692839
-0.001050283433869481 -0.06579101085662842 -0.02418658882379532
-0.0008703297353349626 -0.03723485395312309 0.059376757591962814
-0.00010611418838379905 -0.060989465564489365 -0.03438333421945572
-0.001095941523090005 -0.04779619351029396 0.051284294575452805
-0.0010853157145902514 -0.056286416947841644 -0.04174279421567917
8.371305739274248e-06 -0.055056337267160416 0.04314649477601051
-0.000983349746093154 -0.048153914511203766 -0.050954338163137436
-0.0009664482204243541 -0.05919621139764786 0.03739861026406288
-3.6015408113598824e-05 -0.06258407980203629 0.0313861109316349
-0.000966315099503845 -0.04014693573117256 -0.05736834555864334
-0.0010767427738755941 -0.0667390301823616 0.021451076492667198
-0.0008088774047791958 -0.03117239475250244 -0.0627598837018013
-0.0009362639975734055 -0.06965404748916626 0.008032305166125298
-0.0009671454317867756 -0.021605389192700386 -0.06660432368516922
-0.0010094825411215425 -0.011364681646227837 -0.0691862478852272
-0.0008884943090379238 0.002525069983676076 -0.0700502023100853
-0.0009628153056837618 0.01620607078075409 -0.06820803880691528
-0.0009690954466350377 0.02591511607170105 -0.06504916399717331
-6.7004189077124465e-06 0.030554315075278282 -0.06284432858228683
-0.0009930591331794858 0.04121945798397064 -0.05671783909201622
-0.0009162836940959096 0.05152105912566185 -0.04752735793590546
-0.0009474422549828887 0.058697283267974854 -0.03822850063443184
-0.0010481803910806775 0.06451065838336945 -0.02748514898121357
-0.0010930983116850257 0.0685151144862175 -0.014855258166790009
-2.6081550458911806e-05 0.06989850103855133 -0.004186233971267939
-0.0009705666452646255 0.06998617947101593 0.0013838944723829627
-0.0008699074969626963 0.0685829147696495 0.014416190795600414
-0.0009705810807645321 0.06974809616804123 0.0059333499521017075
-0.0010484198573976755 0.0647517740726471 0.026842672377824783
-0.00022309731866698712 0.059591714292764664 0.03675825148820877
-0.0010848550591617823 0.054582998156547546 0.043942417949438095
-0.001032272819429636 0.046526964753866196 0.05243472009897232
-3.930872480850667e-05 0.03861450031399727 0.05841783434152603
-0.0010629763128235936 0.028265776112675667 0.06414066255092621
-0.0009701140807010233 0.019169891253113747 0.06734622269868851
-0.001051918719895184 0.009028270840644836 0.06954943388700485
2.9418946724035777e-05 0.05779438465833664 -0.03470846638083458
2.9418946724035777e-05 0.06133289635181427 -0.032396912574768066
2.94181372737512e-05 0.05921493098139763 -0.03189244866371155
2.9412478397716768e-05 0.03283213824033737 -0.05893069505691528
2.9418946724035777e-05 0.035100869834423065 -0.0574118010699749
2.9859225833206438e-05 0.05460772663354874 -0.04302775859832764
2.9418910344247706e-05 0.06284509599208832 0.0051496014930307865
3.544130231603049e-05 0.06897496432065964 0.005455348175019026
2.9418946724035777e-05 0.06773675978183746 0.01493377797305584
2.9418733902275562e-05 0.004215434659272432 0.06564300507307053
2.354708885832224e-05 0.00486229732632637 0.06069463491439819
2.9418946724035777e-05 0.015147632919251919 0.06763958930969238
2.9361104679992422e-05 0.05526955798268318 -0.03621629253029823
2.9418946724035777e-05 -0.05652882158756256 -0.03574946150183678
2.9418946724035777e-05 -0.05301214009523392 -0.044657349586486816
2.9394759621936828e-05 -0.05319588631391525 -0.03623638674616814
2.9411559808067977e-05 0.03629231080412865 -0.05474177747964859
2.9418946724035777e-05 0.05136952921748161 -0.035597845911979675
2.9418946724035777e-05 -0.04905029758810997 0.031376611441373825
-3.447867811701144e-06 -0.03088301233947277 0.026093585416674614
2.9418946724035777e-05 -0.04974671080708504 0.03367007151246071
2.9418946724035777e-05 -0.03384096175432205 0.04988764971494675
2.941889761132188e-05 -0.031125811859965324 0.04901336133480072
2.9418946724035777e-05 0.04330325126647949 -0.054234255105257034
2.9418946724035777e-05 0.03529243543744087 -0.05084783583879471
2.9418186386465095e-05 0.03539625182747841 0.051164403557777405
2.9410895876935683e-05 0.036296017467975616 0.05398811399936676
2.9418946724035777e-05 -0.02196134254336357 0.03404748812317848
2.9418946724035777e-05 -0.04909234866499901 -0.030491217970848083
2.9418946724035777e-05 -0.05094996094703674 -0.02719864249229431
2.9418921258184128e-05 0.020998284220695496 0.03760504722595215
2.9418837584671564e-05 0.024233723059296608 0.03504282236099243
2.9418946724035777e-05 0.028847360983490944 0.04962747171521187
2.94340406981064e-05 0.032470379024744034 0.04915544390678406
3.058937727473676e-05 0.05881870165467262 -0.0035927880089730024
2.9443097446346655e-05 -0.035117898136377335 0.06000868231058121
2.9418946724035777e-05 -0.0363440215587616 0.05459413304924965
2.9418946724035777e-05 -0.03474976867437363 0.05783689767122269
2.980518365802709e-05 -0.05005764961242676 -0.03436173498630524
2.9418411941151135e-05 -0.031045733019709587 0.05928485095500946
2.9418946724035777e-05 -0.05916721746325493 0.03171307593584061
2.9418946724035777e-05 -0.05732946842908859 0.035406969487667084
2.9418946724035777e-05 -0.00518494239076972 -0.06254281103610992
2.9423594241961837e-05 -0.007099369540810585 -0.06911522150039673
2.9418946724035777e-05 -0.0025974083691835403 -0.06708605587482452
2.9418946724035777e-05 0.0027988164220005274 -0.05808677896857262
2.9418946724035777e-05 0.015848906710743904 -0.03862430155277252
2.9418859412544407e-05 -0.052466120570898056 0.03615514561533928
2.94189067062689e-05 -0.04979248717427254 0.028647251427173615
2.9418946724035777e-05 -0.04603441059589386 0.051820866763591766
2.9418946724035777e-05 -0.06921780109405518 -0.0044923098757863045
2.9418946724035777e-05 -0.06799235939979553 -0.013912353664636612
2.9418775739031844e-05 -0.06286431849002838 -0.005192398559302092
2.9418946724035777e-05 0.053135886788368225 0.04444510117173195
2.9418946724035777e-05 -0.02778409607708454 0.05039109289646149
2.9400605853879824e-05 0.06637395918369293 0.003291818080469966
2.9418946724035777e-05 -0.058573950082063675 0.02878127433359623
-4.296552651794627e-05 -0.03624345362186432 0.017587991431355476
2.9418946724035777e-05 -0.03554774448275566 0.051452383399009705
2.9418946724035777e-05 -0.04515086114406586 -0.05265631526708603
2.9418946724035777e-05 -0.035636719316244125 -0.0514952689409256
2.9418946724035777e-05 0.051049575209617615 0.035152044147253036
2.9418946724035777e-05 -0.019040832296013832 0.06673803925514221
2.943077197414823e-05 -0.0327455960214138 -0.04918709397315979
2.9415386961773038e-05 -0.027781393378973007 0.057821355760097504
5.928620885242708e-05 0.068670853972435 0.002333255484700203
2.9418946724035777e-05 0.0494859516620636 0.03304779529571533
2.9418946724035777e-05 -0.06629236787557602 0.020245729014277458
2.9418946724035777e-05 -0.014869743958115578 0.0376884788274765
2.9418946724035777e-05 -0.052356500178575516 0.026405207812786102
2.941894854302518e-05 -0.05618017911911011 0.026596352458000183
2.9418535632430576e-05 0.05370345711708069 0.03628898784518242
2.9418944905046374e-05 -0.026553058996796608 0.052376918494701385
2.9418946724035777e-05 -0.02637549862265587 0.054978013038635254
2.9418946724035777e-05 0.06765793263912201 -0.00038653291994705796
2.9418946724035777e-05 0.049121107906103134 0.03019515797495842
2.9418946724035777e-05 -0.036279015243053436 -0.05479868873953819
2.8357982955640182e-05 -0.06107502430677414 0.00499745411798358
2.9418946724035777e-05 -0.004328781273216009 0.06000073626637459
4.220596565573942e-06 -0.003955581691116095 0.0401199571788311
2.9418946724035777e-05 -0.05818146839737892 0.00268770894035697
2.9463499231496826e-05 -0.03191600739955902 -0.06193147599697113
2.9418602935038507e-05 -0.028891995549201965 -0.04961160570383072
2.9418946724035777e-05 0.057097114622592926 0.03545486181974411
2.9418959456961602e-05 -0.04167589172720909 0.0053151268512010574
-0.0012351907789707184 -0.0392184853553772 0.00826991256326437
2.9418946724035777e-05 -0.035100869834423065 -0.0574117973446846
2.9418946724035777e-05 0.05167517811059952 0.02665838971734047
2.9795766749884933e-05 -0.026405325159430504 -0.0524587444961071
2.9418821213766932e-05 -0.043198633939027786 -0.0012179724872112274
2.9428774723783135e-05 0.003249929053708911 -0.06940270215272903
2.9413755328278057e-05 0.0015819533728063107 -0.06730416417121887
2.9418946724035777e-05 -0.03258764371275902 -0.05903417989611626
2.9418946724035777e-05 0.059284523129463196 0.03163653612136841
2.9418946724035777e-05 -0.057440634816884995 -0.0002525473537389189
2.9415361495921388e-05 0.004103403072804213 -0.06553631275892258
2.9418946724035777e-05 -0.06898841261863708 0.006720642559230328
2.9418946724035777e-05 -0.06748446077108383 0.0013582963729277253
2.9418946724035777e-05 -0.06487102806568146 0.004532824736088514
2.9417597033898346e-05 0.06592269241809845 -0.003740358864888549
2.9471328161889687e-05 -0.0023003986570984125 0.06963322311639786
2.941878483397886e-05 0.0012640624772757292 0.057492684572935104
2.9418879421427846e-05 0.06262780725955963 -0.005152301397174597
2.9418946724035777e-05 -0.05834116041660309 -0.002885522786527872
2.9418946724035777e-05 0.049179062247276306 -0.029633155092597008
2.9418946724035777e-05 0.05167502164840698 -0.02683384343981743
-1.3717933143198024e-05 0.006256108172237873 0.039848048239946365
2.9418946724035777e-05 -0.04091835021972656 -0.006222167983651161
2.9418946724035777e-05 0.026863286271691322 -0.0514952652156353
2.9418946724035777e-05 0.029823631048202515 -0.04921404644846916
2.9418946724035777e-05 0.02075956016778946 -0.03788706287741661
2.9418946724035777e-05 0.06373921781778336 0.027237489819526672
2.9418946724035777e-05 -0.06381295621395111 -0.02706427127122879
2.941894854302518e-05 -0.05912594497203827 -0.03002065047621727
2.9418946724035777e-05 -0.0567203089594841 -0.02684084326028824
2.9417533369269222e-05 -0.029667867347598076 -0.05893069878220558
2.941876846307423e-05 0.057995039969682693 0.027956679463386536
2.9418946724035777e-05 0.012121608480811119 -0.06833435595035553
2.9418946724035777e-05 0.00505291111767292 -0.06262610107660294
2.941823004221078e-05 -0.026901064440608025 -0.056856196373701096
2.9418946724035777e-05 0.027348417788743973 0.057512860745191574
2.9418946724035777e-05 0.02823890745639801 0.06330188363790512
2.941779894172214e-05 0.03145405650138855 0.059280723333358765
2.9418941267067567e-05 0.05549311265349388 0.026384852826595306
2.893766031775158e-05 0.055146075785160065 -0.026217367500066757
2.9418946724035777e-05 -0.018702035769820213 -0.0668337419629097
2.9418946724035777e-05 0.02632030099630356 0.054236602038145065
2.9418946724035777e-05 0.026259319856762886 -0.05425110086798668
2.9418946724035777e-05 0.02480824664235115 -0.03429177775979042
2.9418946724035777e-05 -0.053784772753715515 -0.026257652789354324
2.941890124930069e-05 -0.002617716556414962 -0.05790448933839798
2.9418946724035777e-05 -0.06678757071495056 -0.002819187706336379
2.9418946724035777e-05 -0.058669283986091614 -0.03348308056592941
3.0862614949001e-05 0.05903808772563934 0.0037255415227264166
2.9418493795674294e-05 0.03238794952630997 -0.04926599562168121
2.9418946724035777e-05 0.04950443655252457 -0.03308981657028198
-0.0011159713612869382 0.012436015531420708 0.038104139268398285
2.9416241886792704e-05 0.01629893109202385 0.038755860179662704
2.9418946724035777e-05 0.05738002434372902 0.00034134488669224083
2.941894854302518e-05 0.03532807156443596 0.05726879462599754
2.9418877602438442e-05 0.026877764612436295 -0.05683346837759018
2.941866114269942e-05 0.026859225705266 0.051642294973134995
2.9418946724035777e-05 0.0660238116979599 -0.02126361057162285
2.9418946724035777e-05 0.0582432895898819 -0.028238710016012192
2.9384913432295434e-05 0.02992592565715313 -0.05907211825251579
-0.0010002359049394727 -0.019660895690321922 0.034936655312776566
-0.001075164065696299 -0.02647344209253788 0.03002917766571045
-0.006174807902425528 -0.02117297798395157 0.0340653620660305
-0.006221594288945198 -0.0002633815456647426 0.04001026600599289
-0.006107190158218145 -0.03318198770284653 0.02242268994450569
-0.0009847731562331319 -0.011479818262159824 0.0383760929107666
-0.006198176182806492 -0.013052607886493206 0.03786064311861992
-0.006470581516623497 0.010964703746140003 -0.014374680817127228
-0.006470581516623497 0.0246253851801157 -0.03502368554472923
-0.006470581516623497 0.01668814942240715 0.007282715290784836
-0.006470581516623497 0.015658985823392868 0.03867952898144722
-0.006470581982284784 0.023314207792282104 0.03646799921989441
-0.006470581516623497 0.017046041786670685 -0.03885065019130707
-0.006470581516623497 -0.014723286963999271 0.010866455733776093
-0.006470581516623497 -0.00476482417434454 0.0175684355199337
-0.006470581516623497 -0.010278547182679176 -0.015075897797942162
-0.006470581516623497 -0.0035582133568823338 -0.01788458228111267
-0.006470581516623497 0.00573463412001729 0.017150819301605225
-0.006470581516623497 -0.017803413793444633 -0.0037155153695493937
-0.00647062249481678 -0.04085782915353775 0.006417545955628157
-0.006470581516623497 -0.017564399167895317 0.004941864404827356
-0.006470607127994299 -0.0420227088034153 -0.0048880064859986305
-0.006470581516623497 -0.042989034205675125 0.001988410484045744
-0.006470581516623497 0.018331795930862427 -0.0004571533645503223
-0.006470581516623497 -0.015041963197290897 -0.010393982753157616
-0.006470581516623497 0.012995151802897453 0.01283328328281641
-0.006470581516623497 0.003176504746079445 -0.018019746989011765
-0.006470581516623497 -0.01115617249161005 0.014539582654833794
-0.006470581516623497 0.016735536977648735 -0.007551392074674368
-0.007970609702169895 0.003227108158171177 -0.01741999201476574
-0.007971101440489292 0.011570803821086884 -0.01341834757477045
-0.00797215010970831 0.016473671421408653 0.0061532482504844666
-0.007971160113811493 0.01718895696103573 -0.003356024855747819
-0.007970775477588177 0.009297591634094715 0.01461074873805046
-0.007970684207975864 -0.0010335221886634827 0.01764826662838459
-0.00797273125499487 -0.006930020172148943 0.01609686203300953
-0.007970590144395828 -0.014392318204045296 0.009493139572441578
-0.007970581762492657 -0.017229586839675903 -0.0012879028217867017
-0.007970665581524372 -0.011865267530083656 -0.012528333812952042
-0.012970584444701672 0.06819382309913635 0.0035737999714910984
-0.035102728754282 -0.01887320727109909 0.04649289697408676
-0.035102542489767075 -0.03212939202785492 -0.03829028457403183
-0.03510209545493126 -0.023496447131037712 -0.044259730726480484
-0.035102296620607376 0.04220237955451012 0.026913166046142578
-0.03510219231247902 0.03476345166563988 0.03612365946173668
-0.035102371126413345 -0.04560349881649017 0.020568078383803368
-0.03510260209441185 -0.04137150198221207 0.028166983276605606
-0.03510234132409096 -0.037852950394153595 -0.03275987133383751
-0.03510228544473648 -0.03001105599105358 0.04006011039018631
-0.035102542489767075 -0.03619462996721268 0.03443371504545212
-0.035102542489767075 -0.043287813663482666 -0.024992190301418304
-0.03510257229208946 0.025387851521372795 0.043116915971040726
-0.03510228544473648 0.03917692229151726 -0.031204039230942726
-0.035102128982543945 0.02970539964735508 -0.04031304270029068
-0.035102710127830505 -0.046564534306526184 -0.01836400479078293
-0.035102833062410355 0.016175314784049988 0.04745699465274811
-0.035102952271699905 -0.04959672689437866 -0.007053162436932325
-0.035102542489767075 0.04447976499795914 -0.022803345695137978
-0.035102542489767075 0.020296690985560417 -0.045738585293293
-0.035102542489767075 0.004585470538586378 0.04987090826034546
-0.03510246425867081 0.04742729663848877 -0.01593467779457569
-0.03510288521647453 0.012380354106426239 -0.04855131357908249
-0.03510245308279991 0.04956049844622612 -0.006886595860123634
-0.03510257229208946 0.003390711499378085 -0.049915704876184464
-0.03510246053338051 0.04999692738056183 0.0016023297794163227
-0.035102542489767075 -0.04984469339251518 0.003735229605808854
-0.03510238230228424 -0.005367842968553305 -0.049790628254413605
-0.035102590918540955 -0.00627606688067317 0.04970579966902733
-0.035102590918540955 -0.04872661083936691 0.01145988143980503
-0.03510270640254021 0.04915529489517212 0.009414756670594215
-0.03510257229208946 -0.013969807885587215 -0.04804633557796478
-0.03510237857699394 0.046583142131567 0.018239108845591545
-0.045102138072252274 -0.0036898949183523655 0.049936480820178986
-0.045102592557668686 0.0498134084045887 -0.005046491976827383
-0.04510271176695824 0.006624680012464523 0.04962559789419174
-0.045102499425411224 0.048094648867845535 -0.01379302702844143
-0.04510229825973511 0.04454529657959938 -0.02288355492055416
-0.04510254040360451 0.023724695667624474 0.0440291129052639
-0.04510278254747391 0.031204355880618095 0.03916822001338005
-0.045103128999471664 0.03669891878962517 -0.0341426357626915
-0.045102667063474655 0.03813190758228302 0.032427988946437836
-0.04510277137160301 0.02637127973139286 -0.04257082939147949
-0.04510282725095749 0.04401678964495659 0.023863647133111954
-0.045102186501026154 0.015650911256670952 -0.047597914934158325
-0.04510254040360451 0.04738163948059082 0.015919433906674385
-0.045102424919605255 0.0033144562039524317 -0.04998166859149933
-0.04510233923792839 0.049618348479270935 0.0068124644458293915
-0.0451025664806366 -0.007868838496506214 -0.049438148736953735
-0.04510284960269928 -0.017046749591827393 -0.047071974724531174
-0.04510291665792465 -0.027099143713712692 -0.04211845621466637
-0.04510246217250824 -0.036157071590423584 -0.034632619470357895
-0.045102547854185104 -0.04285764694213867 -0.025898274034261703
-0.04510278254747391 -0.0473562516272068 -0.01627209223806858
-0.04510246962308884 -0.049923770129680634 -0.004269873723387718
-0.04510270431637764 -0.04930877313017845 0.00887503195554018
-0.04510254040360451 -0.046529222279787064 0.01826135441660881
-0.04510271176695824 -0.04281844571232796 0.025924386456608772
-0.04510309547185898 -0.0359288714826107 0.03493534401059151
-0.045102789998054504 -0.027082044631242752 0.04211031273007393
-0.04510311409831047 -0.015780510380864143 0.047607459127902985
-0.045102808624506 0.01665588468313217 0.047184333205223083
-0.015970582142472267 0.004866420291364193 -0.06072884798049927
-0.015970582142472267 0.004557694308459759 -0.06478967517614365
-0.015970582142472267 0.0017945452127605677 -0.05769265443086624
-0.015970582142472267 0.002000366570428014 -0.06713810563087463
-0.015970582142472267 -0.0015527312643826008 -0.06739076972007751
-0.015970582142472267 -0.0047263819724321365 -0.06458590924739838
-0.015970582142472267 -0.004697252064943314 -0.06047431379556656
-0.015970582142472267 -0.0023898305371403694 -0.0580243244767189
-0.015970582142472267 0.0314343199133873 -0.048935167491436005
-0.015970582142472267 0.03461621701717377 -0.050374019891023636
-0.015970582142472267 0.03631078079342842 -0.05313502624630928
-0.015970582142472267 0.03571481630206108 -0.05651143938302994
-0.015970582142472267 0.033623743802309036 -0.05862203240394592
-0.015970582142472267 0.02717018686234951 -0.057176075875759125
-0.015970582142472267 0.026176996529102325 -0.05421165004372597
-0.015970582142472267 0.02733367308974266 -0.05078492313623428
-0.015970582142472267 0.02996443770825863 -0.05901124328374863
-0.015970582142472267 -0.03132813051342964 0.05935540795326233
-0.015970582142472267 -0.026181906461715698 0.05400021746754646
-0.015970582142472267 -0.02732737734913826 0.05083522945642471
-0.015970582142472267 -0.02708432823419571 0.05706968531012535
-0.015970582142472267 -0.030400315299630165 0.0490945428609848
-0.015970582142472267 -0.03348888084292412 0.04957355186343193
-0.015970582142472267 -0.0361369289457798 0.052393555641174316
-0.015970582142472267 -0.035566575825214386 0.0569649375975132
-0.015970582142472267 0.055669963359832764 0.03611145541071892
-0.015970582142472267 0.0582699179649353 0.03417840600013733
-0.015970582142472267 0.059238187968730927 0.030866891145706177
-0.015970582142472267 0.057234663516283035 0.0271050613373518
-0.015970582142472267 0.05193820968270302 0.026504341512918472
-0.015970582142472267 0.04915916174650192 0.030028460547327995
-0.015970582142472267 0.04936913400888443 0.03289075195789337
-0.015970582142472267 0.05134964361786842 0.03562884405255318
-0.015970582142472267 -0.04913395270705223 0.030369607731699944
-0.015970582142472267 -0.0535743348300457 0.03647758439183235
-0.015970582142472267 -0.04966175556182861 0.03377911075949669
-0.015970582142472267 -0.05105224624276161 0.0270683690905571
-0.015970582142472267 -0.055298831313848495 0.02630024030804634
-0.015970582142472267 -0.05795825645327568 0.0279241856187582
-0.015970582142472267 -0.059302959591150284 0.03155119717121124
-0.015970582142472267 -0.05754726007580757 0.034997180104255676
-0.015970582142472267 0.06461825221776962 0.0045973509550094604
-0.015970582142472267 0.06727210432291031 -0.0020114800427109003
-0.015970582142472267 0.06712697446346283 0.00218144035898149
-0.015970582142472267 0.06374718993902206 -0.004987808875739574
-0.015970582142472267 0.060024116188287735 -0.004459355026483536
-0.015970582142472267 0.05751553922891617 -0.0013582829851657152
-0.015970582142472267 0.05800393223762512 0.0023512139450758696
-0.015970582142472267 0.06063378229737282 0.004792256746441126
-0.015970582142472267 -0.04907111078500748 -0.031628966331481934
-0.015970582142472267 -0.05258321389555931 -0.02638855203986168
-0.015970582142472267 -0.04981951043009758 -0.028517866507172585
-0.015970582142472267 -0.05078236013650894 -0.035262659192085266
-0.015970582142472267 -0.05553731694817543 -0.036111343652009964
-0.015970582142472267 -0.05795826017856598 -0.03457581624388695
-0.015970582142472267 -0.05921578034758568 -0.0315895713865757
-0.015970582142472267 -0.058480311185121536 -0.028689179569482803
-0.015970582142472267 -0.05630175769329071 -0.02663651667535305
-0.015970582142472267 -0.05819292739033699 0.0027321388479322195
-0.015970582142472267 -0.06095663830637932 0.004861451685428619
-0.015970582142472267 -0.05753251165151596 -0.0016688843024894595
-0.015970582142472267 -0.060375478118658066 -0.004593497142195702
-0.015970582142472267 -0.06391072273254395 -0.004861343652009964
-0.015970582142472267 -0.06633168458938599 -0.0033257973846048117
-0.015970582142472267 -0.0676763653755188 0.0003011843073181808
-0.015970582142472267 -0.06527694314718246 0.004378844518214464
-0.015970582142472267 -0.026311727240681648 -0.05512497201561928
-0.015970582142472267 -0.02667585387825966 -0.05168476328253746
-0.015970582142472267 -0.02827289327979088 -0.05833844095468521
-0.015970582142472267 -0.032930150628089905 -0.05899299308657646
-0.015970582142472267 -0.03631318733096123 -0.05550599470734596
-0.015970582142472267 -0.035429250448942184 -0.05122712254524231
-0.015970582142472267 -0.03317496180534363 -0.04945679008960724
-0.015970582142472267 -0.03031519241631031 -0.04911956936120987
-0.015970582142472267 0.03104875050485134 0.0592944510281086
-0.015970582142472267 0.03553609177470207 0.057154420763254166
-0.015970582142472267 0.035944562405347824 0.052054911851882935
-0.015970582142472267 0.03325120359659195 0.049488797783851624
-0.015970582142472267 0.029714932665228844 0.04929065704345703
-0.015970582142472267 0.026677381247282028 0.05167127028107643
-0.015970582142472267 0.026355037465691566 0.055415667593479156
-0.015970582142472267 0.02774525061249733 0.057778798043727875
-0.015970582142472267 0.05566996708512306 -0.02638855203986168
-0.015970582142472267 0.058864813297986984 -0.029111864045262337
-0.015970582142472267 0.05859142914414406 -0.03377909958362579
-0.015970582142472267 0.05612654238939285 -0.03588840737938881
-0.015970582142472267 0.05197030305862427 -0.0359250046312809
-0.015970582142472267 0.04968009516596794 -0.03362540900707245
-0.015970582142472267 0.04905295372009277 -0.030180487781763077
-0.015970582142472267 0.05170966684818268 -0.02672344259917736
