# This PCD file was generated using the MATLAB® pcwrite function
# from Computer Vision Toolbox®.
# .PCD v.7 - Point Cloud Data file format
VERSION .7
FIELDS x y z
SIZE 4 4 4
TYPE F F F
COUNT 1 1 1
WIDTH 1740
HEIGHT 1
VIEWPOINT 0 0 0 1 0 0 0
POINTS 1740
DATA ascii
1.738138198852539 -0.928248107433319 0.513730287551880
1.818120598793030 -0.924111187458038 0.512662708759308
1.920975446701050 -0.913742601871490 0.514589905738831
2.002099275588989 -0.912449836730957 0.518064916133881
1.744127273559570 -0.860500276088715 0.476098328828812
1.824258565902710 -0.872271895408630 0.502057552337646
1.921707391738892 -0.870542645454407 0.496613651514053
2.005736827850342 -0.854413807392120 0.485441654920578
2.110082864761353 -0.809120297431946 0.469320654869080
2.190120458602905 -0.830067813396454 0.481715410947800
2.328602313995361 -0.850835263729095 0.478840529918671
2.409768819808960 -0.848250508308411 0.489334315061569
2.523536682128906 -0.853724002838135 0.481050074100494
2.611626863479614 -0.831052303314209 0.483055353164673
2.715187788009644 -0.809811711311340 0.474101930856705
2.825011491775513 -0.819178402423859 0.476349413394928
2.929545164108276 -0.828133285045624 0.490502506494522
2.994916677474976 -0.824592828750610 0.478087902069092
3.149003028869629 -0.856517493724823 0.498850524425507
3.218677759170532 -0.847810328006744 0.490009278059006
3.350691318511963 -0.841905534267426 0.485522031784058
3.399660825729370 -0.842380940914154 0.491063028573990
1.740093469619751 -0.783451497554779 0.445959955453873
1.817702412605286 -0.783721685409546 0.449207484722137
1.923586606979370 -0.784303426742554 0.455782890319824
1.990702629089355 -0.784559845924377 0.455657690763474
2.131789207458496 -0.781556785106659 0.434122592210770
2.247919559478760 -0.781176507472992 0.434382587671280
2.285557270050049 -0.782121956348419 0.441077888011932
2.415165662765503 -0.781335294246674 0.435927152633667
2.485717058181763 -0.781526744365692 0.436888396739960
2.638390302658081 -0.781337857246399 0.437714368104935
2.717518329620361 -0.781409263610840 0.438473552465439
2.821502447128296 -0.782998442649841 0.449301600456238
3.174088478088379 -0.783518612384796 0.454541712999344
3.408191919326782 -0.783138692378998 0.457215428352356
1.738844752311707 0.783408045768738 0.446238249540329
1.815848112106323 0.789469420909882 0.454218029975891
1.925052285194397 0.789611399173737 0.458064764738083
1.992675185203552 0.784071207046509 0.452592998743057
2.108544826507568 0.802399456501007 0.464465379714966
2.205600261688232 0.801241755485535 0.460971474647522
2.284975528717041 0.782169163227081 0.441168695688248
2.416774272918701 0.781313717365265 0.435902744531631
2.483893394470215 0.781534314155579 0.436871260404587
2.610855340957642 0.801483333110809 0.466109424829483
2.716003417968750 0.795997560024261 0.457953929901123
2.823867559432983 0.784597814083099 0.453818500041962
2.950297117233276 0.803943574428558 0.475206106901169
2.970358371734619 0.807913362979889 0.475849241018295
3.174098730087280 0.784148752689362 0.456601738929749
3.347255468368530 0.802114367485046 0.479985833168030
3.427855491638184 0.787299335002899 0.469340324401855
3.493920564651489 0.789767801761627 0.455066353082657
3.624314546585083 0.799219608306885 0.468804329633713
3.737583160400391 0.788960039615631 0.463475555181503
3.825277328491211 0.784395933151245 0.465639263391495
1.744599938392639 0.862353622913361 0.476441919803619
1.823565840721130 0.878539144992828 0.505153417587280
1.922324061393738 0.885153710842133 0.504216134548187
2.003002405166626 0.868351101875305 0.494031608104706
2.162827730178833 0.817685306072235 0.470781713724136
2.192085981369019 0.846410274505615 0.490525335073471
2.313359022140503 0.848527491092682 0.477770358324051
2.404912471771240 0.846410274505615 0.492257386445999
2.568421602249146 0.833714485168457 0.475897789001465
2.619327306747437 0.847870528697968 0.485772043466568
2.710374832153320 0.854506075382233 0.482600331306458
2.804898262023926 0.843170344829559 0.480057269334793
2.916358947753906 0.843503832817078 0.500222086906433
3.008347034454346 0.833714485168457 0.479312151670456
3.149717330932617 0.856367349624634 0.498326331377029
3.222038745880127 0.851700544357300 0.490930140018463
3.336732864379883 0.851875960826874 0.488320618867874
3.426652431488037 0.847635269165039 0.492652475833893
3.494096994400024 0.855343937873840 0.507505357265472
3.613664865493774 0.857306838035583 0.506914675235748
3.719902753829956 0.871804654598236 0.503679692745209
3.782971143722534 0.894695520401001 0.515594124794006
1.739035725593567 0.928408145904541 0.513540565967560
1.817497730255127 0.926019310951233 0.512765288352966
1.918573617935181 0.918494820594788 0.515016853809357
2.002158164978027 0.913136422634125 0.518242776393890
1.718463420867920 -0.932444512844086 0.572476387023926
1.819700360298157 -0.937443614006042 0.535959541797638
1.917066335678101 -0.926295340061188 0.537168323993683
2.006605386734009 -0.926939308643341 0.572193026542664
3.766841173171997 -0.892245888710022 0.613714277744293
3.835720062255859 -0.946314632892609 0.608396470546722
1.738648772239685 -0.828581392765045 0.573097229003906
1.824833273887634 -0.840394496917725 0.564002275466919
1.913041353225708 -0.844443380832672 0.581105053424835
2.021020174026489 -0.855691790580750 0.596231341362000
2.119128704071045 -0.855526983737946 0.597988963127136
2.219555616378784 -0.854510784149170 0.610801458358765
2.301537990570068 -0.851597547531128 0.601674616336823
2.404945611953735 -0.850056290626526 0.610467910766602
2.517862319946289 -0.854536592960358 0.602084279060364
2.625920057296753 -0.856384754180908 0.613637149333954
2.726556062698364 -0.854028880596161 0.618428647518158
2.799659729003906 -0.850354790687561 0.578255772590637
2.904272079467773 -0.859442532062531 0.623210251331329
3.024575233459473 -0.851671814918518 0.581901073455811
3.105707406997681 -0.855165719985962 0.594080388545990
3.220041513442993 -0.853988170623779 0.596041619777679
3.329066991806030 -0.856817245483398 0.620895624160767
3.427511930465698 -0.856547415256500 0.619480252265930
3.480936050415039 -0.854915320873260 0.598985195159912
3.616866111755371 -0.851549565792084 0.580982685089111
3.734431743621826 -0.863324820995331 0.606644570827484
1.742695927619934 -0.784086227416992 0.597710013389587
1.819067716598511 -0.783962368965149 0.594074547290802
1.896553993225098 -0.784377276897430 0.609042048454285
2.288621425628662 -0.786100387573242 0.622359871864319
1.742168664932251 0.787232398986816 0.594308972358704
1.817217230796814 0.784270763397217 0.593845248222351
1.896541118621826 0.785004675388336 0.608355700969696
2.290534257888794 0.787839114665985 0.621866524219513
1.737500071525574 0.843453824520111 0.565807700157166
1.826806426048279 0.843708217144012 0.562617540359497
1.913352131843567 0.847007274627686 0.579453587532043
2.021259546279907 0.856440901756287 0.595201313495636
2.116290330886841 0.855292737483978 0.596903502941132
2.221144914627075 0.853341102600098 0.610297501087189
2.301462888717651 0.853232681751251 0.601017236709595
2.405701160430908 0.849839985370636 0.608691930770874
2.512838125228882 0.853121161460876 0.598031878471375
2.631945610046387 0.847545206546783 0.610926151275635
2.725885152816772 0.853965044021606 0.618373394012451
2.799789905548096 0.850357949733734 0.578137576580048
2.899301528930664 0.859496414661407 0.623197913169861
3.024718999862671 0.851743996143341 0.582320988178253
3.105746984481812 0.855161488056183 0.594064533710480
3.220161676406860 0.853956639766693 0.596241176128387
3.325610399246216 0.856621086597443 0.618823051452637
3.432675600051880 0.854261338710785 0.592857539653778
3.507678508758545 0.850038290023804 0.602631032466888
3.611436843872070 0.850876390933990 0.587945759296417
3.731525182723999 0.863351821899414 0.589919567108154
3.786282777786255 0.904796123504639 0.573861122131348
1.718339323997498 0.932531177997589 0.572997450828552
1.818397998809814 0.937517821788788 0.535262525081635
1.917082190513611 0.926306366920471 0.536897480487823
2.006532669067383 0.927116870880127 0.572976768016815
3.830282449722290 0.945080161094666 0.600396156311035
1.665427207946777 -0.942068338394165 0.716069877147675
1.701156258583069 -0.940573513507843 0.671833276748657
1.817229151725769 -0.947882831096649 0.671601891517639
1.926479816436768 -0.940060019493103 0.677311778068542
1.998782992362976 -0.937938630580902 0.677105307579041
3.848876237869263 -0.956175088882446 0.657958567142487
3.880061149597168 -0.958720982074738 0.689749777317047
1.940754771232605 -0.853361666202545 0.638109147548676
2.039939880371094 -0.857472300529480 0.693463981151581
2.116476535797119 -0.835555315017700 0.665780603885651
2.207119464874268 -0.811478972434998 0.632885515689850
2.291716575622559 -0.795281410217285 0.630203962326050
2.404739856719971 -0.802058100700378 0.629467129707336
2.498824119567871 -0.802653491497040 0.630213201045990
2.643505573272705 -0.795577883720398 0.633129656314850
2.725110054016113 -0.813419938087463 0.632467985153198
2.822632789611816 -0.836950540542603 0.653826653957367
2.892169713973999 -0.857862532138824 0.656197965145111
3.014342308044434 -0.850926399230957 0.676344633102417
3.132128000259399 -0.831613183021545 0.681078314781189
3.219346284866333 -0.806936740875244 0.647612869739532
3.311489105224609 -0.819526314735413 0.632759690284729
3.431900739669800 -0.824629068374634 0.632996559143066
3.520074129104614 -0.842729985713959 0.639658451080322
3.624940395355225 -0.839974224567413 0.679691076278687
3.695307254791260 -0.848295986652374 0.706170558929443
3.774353027343750 -0.866663098335266 0.710695147514343
1.722359299659729 -0.781720042228699 0.626841664314270
1.775140404701233 -0.781720042228699 0.626844108104706
1.919084191322327 -0.781919181346893 0.632744848728180
2.133892059326172 -0.785464107990265 0.686916887760162
2.220576763153076 -0.785583496093750 0.639228045940399
2.289054870605469 -0.785768806934357 0.632516443729401
2.500001907348633 -0.785560190677643 0.636717736721039
2.654891729354858 -0.785912334918976 0.636173963546753
2.710804700851440 -0.785674333572388 0.639556586742401
2.821840286254883 -0.785479962825775 0.666010081768036
2.878330707550049 -0.785811543464661 0.714758515357971
3.156204462051392 -0.784668028354645 0.707518935203552
3.213540792465210 -0.785302042961121 0.656642794609070
3.301316738128662 -0.786246299743652 0.640931010246277
3.430782318115234 -0.785575091838837 0.644025623798370
3.518090009689331 -0.785508155822754 0.657048821449280
3.619476318359375 -0.785503566265106 0.695631265640259
3.670166254043579 -0.786469042301178 0.723643124103546
1.722359299659729 0.781720042228699 0.626841664314270
1.775140404701233 0.781720042228699 0.626844108104706
1.918991804122925 0.781903505325317 0.632658064365387
2.133986949920654 0.788381576538086 0.684642195701599
2.222169399261475 0.788029074668884 0.637707471847534
2.290112972259521 0.787386357784271 0.632261216640472
2.413172006607056 0.795913457870483 0.630704283714294
2.499034166336060 0.791650056838989 0.633673787117004
2.653432130813599 0.787477135658264 0.635360419750214
2.711483955383301 0.788144350051880 0.638539493083954
2.821850776672363 0.787545979022980 0.666192531585693
2.877615213394165 0.786529242992401 0.713415384292603
3.155469655990601 0.786260545253754 0.706655681133270
3.213042974472046 0.788464128971100 0.655571818351746
3.299656152725220 0.787832081317902 0.640431225299835
3.430640220642090 0.787343442440033 0.641756057739258
3.524092197418213 0.787748038768768 0.651392817497253
3.618508577346802 0.788550019264221 0.679733633995056
3.696071863174438 0.787707209587097 0.704253554344177
1.940864086151123 0.853391408920288 0.638004362583160
2.039491176605225 0.857417821884155 0.693234443664551
2.112418651580811 0.839611470699310 0.666150450706482
2.193561077117920 0.823000848293304 0.632712841033936
2.291852951049805 0.821823835372925 0.625164806842804
2.399978399276733 0.821545839309692 0.625691354274750
2.499752759933472 0.822167932987213 0.626237750053406
2.616875648498535 0.824092209339142 0.625815451145172
2.736282587051392 0.830808699131012 0.629251718521118
2.822912216186523 0.853098571300507 0.649733364582062
2.892132520675659 0.858449101448059 0.655712962150574
3.014369249343872 0.851044654846191 0.674186348915100
3.125400304794312 0.842717945575714 0.675337076187134
3.223926305770874 0.822305738925934 0.642570793628693
3.317981481552124 0.832337915897369 0.629781365394592
3.433853387832642 0.835714280605316 0.630409598350525
3.520287990570068 0.849475383758545 0.637761652469635
3.624399900436401 0.851494371891022 0.667782545089722
3.719437122344971 0.857080578804016 0.682601869106293
3.775414943695068 0.871807456016541 0.699543833732605
1.665340662002563 0.942025065422058 0.716127991676331
1.700869560241699 0.940524697303772 0.671965718269348
1.817263603210449 0.947833478450775 0.671310126781464
1.925122737884521 0.940116107463837 0.677128791809082
1.998826861381531 0.937966048717499 0.676438212394714
3.835598468780518 0.953510344028473 0.659002780914307
3.879909992218018 0.958623409271240 0.689218580722809
1.642784953117371 -0.945624709129333 0.788151741027832
1.686608433723450 -0.951308786869049 0.761474013328552
1.814357161521912 -0.951697230339050 0.775061547756195
1.915035009384155 -0.945558547973633 0.773126065731049
1.992793798446655 -0.941071689128876 0.770760118961334
3.846124887466431 -0.958121895790100 0.777890563011169
3.911818981170654 -0.965206801891327 0.769087433815002
1.910249710083008 -0.846769869327545 0.751496672630310
2.051578998565674 -0.852669715881348 0.775009274482727
2.079830646514893 -0.825782060623169 0.772705912590027
2.939436912536621 -0.849133789539337 0.779065907001495
3.016844034194946 -0.855103075504303 0.778280377388000
3.107220649719238 -0.823246121406555 0.770142972469330
3.730931758880615 -0.812531113624573 0.765684723854065
3.788670301437378 -0.842314660549164 0.800541222095490
2.098939895629883 -0.785303056240082 0.755873978137970
2.862068653106689 -0.784069955348969 0.726093530654907
2.916774034500122 -0.785662710666656 0.772466242313385
3.130330801010132 -0.785121977329254 0.776929318904877
3.657333850860596 -0.784201502799988 0.729466199874878
3.722526311874390 -0.785476565361023 0.770800292491913
3.770772933959961 -0.785943865776062 0.821721673011780
2.098644495010376 0.785768985748291 0.756291270256042
2.862068653106689 0.784069955348969 0.726093530654907
2.920657396316528 0.786709725856781 0.779024899005890
3.130432128906250 0.785389244556427 0.775439500808716
3.657653331756592 0.783853530883789 0.731083631515503
3.730346202850342 0.792618811130524 0.769234597682953
3.775735616683960 0.794741690158844 0.814626693725586
1.910249710083008 0.846769869327545 0.751496672630310
2.051285743713379 0.853064298629761 0.774845659732819
2.078054189682007 0.829722762107849 0.773932218551636
2.939471244812012 0.862387001514435 0.771896123886108
3.018475294113159 0.854924917221069 0.778308510780334
3.104362964630127 0.827714681625366 0.772009968757629
3.734547853469849 0.858579874038696 0.746973752975464
3.794654130935669 0.869870603084564 0.789545893669128
1.643460392951965 0.945646166801453 0.787462711334229
1.686526060104370 0.951151609420776 0.761158704757690
1.812285065650940 0.951909959316254 0.777117192745209
1.913069844245911 0.945529401302338 0.771587491035461
1.992841362953186 0.940976500511169 0.768974304199219
3.845878124237061 0.958509802818298 0.776900172233582
3.911470174789429 0.965155422687531 0.768311440944672
0.966229975223541 -0.907496988773346 0.915020823478699
1.036623120307922 -0.938791751861572 0.919420361518860
1.537642955780029 -0.948306083679199 0.900974929332733
1.600342988967896 -0.952123820781708 0.863228082656860
1.713253259658813 -0.959577918052673 0.875037908554077
1.815083980560303 -0.954103171825409 0.874653756618500
1.921725034713745 -0.951303780078888 0.877185046672821
1.987011790275574 -0.949358284473419 0.877441346645355
3.862369775772095 -0.917628169059753 0.858364164829254
3.929731607437134 -0.956301212310791 0.866042017936707
4.011763095855713 -0.969526052474976 0.890909194946289
2.054934501647949 -0.860426306724548 0.863067150115967
2.073220252990723 -0.849258124828339 0.873465776443481
2.953971385955811 -0.797940433025360 0.838901579380035
2.992226362228394 -0.844730734825134 0.876251935958862
3.115045070648193 -0.847626686096191 0.878235161304474
3.824265718460083 -0.819534897804260 0.867208003997803
3.878138780593872 -0.887073934078217 0.913160860538483
2.095268487930298 -0.784670233726501 0.896031200885773
2.944383859634399 -0.786113858222961 0.843422770500183
3.127513170242310 -0.785515606403351 0.826569795608521
3.759275674819946 -0.784069955348969 0.840118885040283
3.803344249725342 -0.786540389060974 0.871300101280212
5.190517902374268 -0.593966305255890 0.919732153415680
5.209720134735107 -0.548256158828735 0.904329776763916
5.234905242919922 -0.438821434974670 0.902371704578400
5.251250267028809 -0.333317130804062 0.902354836463928
5.261309623718262 -0.239449784159660 0.902335286140442
5.266795158386230 -0.158883437514305 0.902316093444824
5.269507408142090 -0.111407145857811 0.902355492115021
5.267156600952148 -0.061373967677355 0.907065510749817
5.271079540252686 -0.031824991106987 0.902329087257385
5.268056869506836 0.093046590685844 0.902452409267426
5.270691871643066 0.058360099792480 0.902329683303833
5.266458511352539 0.166947215795517 0.902337193489075
5.269193649291992 0.124815158545971 0.902297794818878
5.258770465850830 0.267191469669342 0.902357995510101
5.248739242553711 0.352067172527313 0.902350246906281
5.230790615081787 0.460462391376495 0.902386307716370
5.204750061035156 0.561999261379242 0.907419621944427
2.090747117996216 0.793895661830902 0.851433932781219
2.948107004165649 0.788293004035950 0.842966496944427
2.984455347061157 0.793477058410645 0.890716969966888
3.130088567733765 0.791480958461761 0.852535784244537
3.759275674819946 0.784069955348969 0.840118885040283
3.814823865890503 0.790811419487000 0.870272696018219
0.966244280338287 0.907514095306396 0.915053725242615
0.977692842483521 0.910261869430542 0.916072309017181
2.055230140686035 0.860449612140656 0.864958882331848
2.070272922515869 0.858562767505646 0.878227114677429
2.966749429702759 0.864614546298981 0.828494906425476
2.995547533035278 0.868442118167877 0.870225071907043
3.115511417388916 0.849836468696594 0.879914224147797
3.840612411499023 0.879937529563904 0.862419366836548
3.880487918853760 0.888522744178772 0.912289917469025
1.040399193763733 0.940606355667114 0.919813275337219
1.538030505180359 0.948241710662842 0.900762259960175
1.600209951400757 0.952046930789948 0.862837851047516
1.714525461196899 0.959518373012543 0.873695731163025
1.815050482749939 0.954105854034424 0.874721944332123
1.923045635223389 0.951393425464630 0.879637360572815
1.987007975578308 0.949344694614410 0.877372801303864
3.862701416015625 0.952323257923126 0.833129882812500
3.937199592590332 0.966876506805420 0.860135734081268
4.011825561523438 0.969411134719849 0.890986680984497
0.838223040103912 -0.903285920619965 1.005948066711426
0.919755637645721 -0.934567928314209 0.971455335617065
1.022650003433228 -0.947649240493774 0.943339884281158
1.114995837211609 -0.947924911975861 0.967548668384552
1.219776153564453 -0.950874090194702 0.990873277187347
1.321296215057373 -0.951703727245331 0.995343148708344
1.422254085540771 -0.952297568321228 0.971331357955933
1.509451866149902 -0.956312596797943 0.946549952030182
1.607303380966187 -0.963078260421753 0.959248006343842
1.711975932121277 -0.958069205284119 0.971571266651154
1.820097565650940 -0.955504834651947 0.971123576164246
1.919849157333374 -0.954521656036377 0.973964750766754
1.983534216880798 -0.953195571899414 0.975493431091309
3.932918071746826 -0.910150468349457 0.958547234535217
4.027091979980469 -0.964095890522003 0.973414897918701
4.107187271118164 -0.979104757308960 0.983320057392120
4.221503734588623 -0.976493299007416 0.996871352195740
4.301677227020264 -0.974813878536224 0.997287213802338
4.421419620513916 -0.976069629192352 0.980266392230988
4.499078750610352 -0.973018825054169 0.992903351783752
4.575270652770996 -0.933212995529175 1.024114847183228
0.838824391365051 -0.883475124835968 1.003121614456177
0.885227978229523 -0.888188302516937 0.946013867855072
1.953749299049377 -0.849685192108154 1.010057687759399
1.992784619331360 -0.851903915405273 1.006066918373108
2.073393106460571 -0.849074780941010 0.987201988697052
3.026296615600586 -0.844954729080200 0.990680277347565
3.124279737472534 -0.851472556591034 0.983226120471954
3.836799144744873 -0.789269149303436 0.925760924816132
3.901823043823242 -0.869724869728088 0.966868758201599
3.972860097885132 -0.888816952705383 1.021214723587036
2.094963312149048 -0.784717679023743 0.981582820415497
2.967433452606201 -0.784624755382538 0.943298697471619
2.979952573776245 -0.784947037696838 0.993533730506897
3.161163806915283 -0.788756549358368 1.009465813636780
3.836061477661133 -0.788281083106995 0.925886750221252
0.553412735462189 -0.609823942184448 1.016411781311035
0.578772544860840 -0.643379390239716 1.022397994995117
5.150380134582520 -0.636544704437256 0.986689150333405
5.178875923156738 -0.607777297496796 0.936749160289764
0.466478079557419 -0.492471933364868 0.994397163391113
0.498944997787476 -0.535165548324585 1.002467989921570
5.165565490722656 -0.569670915603638 1.007168412208557
5.183399677276611 -0.532174110412598 0.980091750621796
0.429873049259186 -0.432340294122696 0.985886394977570
0.475110948085785 -0.479405909776688 1.020129084587097
5.201041221618652 -0.442495077848434 0.982516765594482
0.403359442949295 -0.338821649551392 0.984442234039307
5.213601589202881 -0.343120843172073 0.987062811851501
0.387183815240860 -0.236440509557724 0.984896242618561
5.231221675872803 -0.240199908614159 0.971733689308167
0.377178907394409 -0.139035731554031 0.985356032848358
5.235460758209229 -0.130497559905052 0.978088200092316
0.375057667493820 -0.029566818848252 0.989607930183411
5.233662605285645 -0.041815318167210 0.987646162509918
0.373188346624374 0.058123525232077 0.986039698123932
5.234347820281982 0.059758756309748 0.985715508460999
0.379107475280762 0.162119984626770 0.985270798206329
5.235544204711914 0.157259598374367 0.975777387619019
0.389869540929794 0.256076931953430 0.984853625297546
5.224218845367432 0.274241298437119 0.980528831481934
0.409279376268387 0.368532240390778 0.984419822692871
5.211310386657715 0.362060576677322 0.986606478691101
0.433989256620407 0.441115736961365 0.986496508121490
0.475482523441315 0.502616405487061 0.996524989604950
5.193493366241455 0.475244492292404 0.986535549163818
0.516815423965454 0.559801340103149 1.007003426551819
5.162297248840332 0.586935222148895 1.000555396080017
5.182183265686035 0.601621091365814 0.933628022670746
0.560128748416901 0.619038283824921 1.018081068992615
0.578674435615540 0.643179774284363 1.022351145744324
5.150430679321289 0.636607587337494 0.986709594726562
5.173203468322754 0.614182531833649 0.945238113403320
2.093319654464722 0.788948595523834 0.983077883720398
2.966356754302979 0.785573124885559 0.934064269065857
2.997115135192871 0.788292646408081 1.010016441345215
3.148773908615112 0.793950319290161 0.954256176948547
3.836126327514648 0.788402020931244 0.925915598869324
0.833529472351074 0.899553120136261 1.007921576499939
0.910088717937469 0.897944509983063 0.960344910621643
0.974313437938690 0.909512519836426 0.935218751430511
1.953292131423950 0.849538564682007 1.009705543518066
1.992641925811768 0.851868987083435 1.006251573562622
2.071784019470215 0.854138910770416 0.988466322422028
3.026435136795044 0.848756015300751 0.988417565822601
3.124396085739136 0.854261338710785 0.986973106861115
3.908486604690552 0.877041220664978 0.964434087276459
3.990970373153687 0.899760782718658 1.010161876678467
0.856737673282623 0.916330456733704 0.997892916202545
0.920513212680817 0.939561009407043 0.973018586635590
1.023391008377075 0.948076605796814 0.943720221519470
1.114747643470764 0.947900235652924 0.967353940010071
1.220031023025513 0.950844407081604 0.990972757339478
1.321089148521423 0.951776385307312 0.995768666267395
1.422328948974609 0.952324986457825 0.971311569213867
1.508969306945801 0.956307947635651 0.946744263172150
1.606464624404907 0.963033258914948 0.962643742561340
1.708072185516357 0.958275854587555 0.968863129615784
1.820033907890320 0.955513656139374 0.970878481864929
1.915635108947754 0.954613029956818 0.976986825466156
1.983538031578064 0.953184962272644 0.975439250469208
3.953930139541626 0.965767502784729 0.940793395042419
4.031173706054688 0.969865262508392 0.970509588718414
4.107123851776123 0.979183673858643 0.983545899391174
4.220803737640381 0.976554751396179 0.997174263000488
4.300491333007812 0.974875569343567 0.997947037220001
4.420939922332764 0.975858390331268 0.980459928512573
4.499266147613525 0.972807228565216 0.992892622947693
4.575417518615723 0.933882296085358 1.024257898330688
0.860165119171143 -0.896669507026672 1.047571301460266
0.873852491378784 -0.895409584045410 1.060342073440552
1.030150413513184 -0.943649053573608 1.058195829391479
1.113280415534973 -0.954923272132874 1.069414615631104
1.241460084915161 -0.961762309074402 1.044779419898987
1.292246818542480 -0.962744295597076 1.041130185127258
1.422165751457214 -0.958062767982483 1.085640311241150
1.555377364158630 -0.947793662548065 1.103221178054810
1.620884418487549 -0.944848835468292 1.101816058158875
1.703592061996460 -0.942630231380463 1.103676795959473
1.806439518928528 -0.941038310527802 1.106308937072754
1.906069993972778 -0.940830945968628 1.107636570930481
1.983667731285095 -0.946518898010254 1.081381559371948
3.945271492004395 -0.889137625694275 1.030567049980164
4.045617580413818 -0.932019948959351 1.049898505210876
4.090080261230469 -0.975603401660919 1.074813604354858
4.231515407562256 -0.987787544727325 1.033799171447754
4.309820175170898 -0.986569702625275 1.040875911712646
4.414220809936523 -0.978729724884033 1.086967587471008
4.546942710876465 -0.961333811283112 1.039210915565491
4.601650238037109 -0.943473756313324 1.092827558517456
4.669406414031982 -0.896603643894196 1.116603970527649
0.729504942893982 -0.813730239868164 1.054670810699463
0.817305684089661 -0.865014314651489 1.063953518867493
0.884130716323853 -0.882596731185913 1.082812070846558
1.954450488090515 -0.849681079387665 1.039244651794434
2.000408411026001 -0.849203824996948 1.052361130714417
2.081059217453003 -0.822767555713654 1.082443594932556
3.026209115982056 -0.823741376399994 1.078134059906006
3.125326633453369 -0.861400723457336 1.083854794502258
3.170887708663940 -0.790097296237946 1.059238076210022
3.948721885681152 -0.824994444847107 1.068938374519348
3.987224340438843 -0.848017990589142 1.105415463447571
0.648162007331848 -0.730188012123108 1.040771007537842
0.714292585849762 -0.757247686386108 1.082123994827271
0.794736087322235 -0.765998899936676 1.113304734230042
2.095360279083252 -0.786033809185028 1.077401399612427
2.999883651733398 -0.786136746406555 1.075435400009155
3.167115688323975 -0.787946879863739 1.037324428558350
3.179976224899292 -0.785691499710083 1.089934110641479
3.926953315734863 -0.787062883377075 1.088831901550293
3.976138591766357 -0.788756966590881 1.119853377342224
0.560139298439026 -0.605929911136627 1.031984329223633
0.600911974906921 -0.671364843845367 1.028547286987305
0.706121683120728 -0.649235367774963 1.109916329383850
5.134516239166260 -0.659702777862549 1.067337751388550
0.532046854496002 -0.534788370132446 1.043890953063965
0.615401268005371 -0.531973004341125 1.098193168640137
0.686299920082092 -0.571891129016876 1.120957493782043
5.164070606231689 -0.563206017017365 1.058268189430237
5.174310684204102 -0.518997669219971 1.056026577949524
0.459078431129456 -0.431928545236588 1.028396606445312
0.496604233980179 -0.454177588224411 1.048782587051392
0.592282772064209 -0.454711198806763 1.103360414505005
5.188606262207031 -0.433620333671570 1.074316978454590
0.451704144477844 -0.329010456800461 1.039740920066833
0.513978779315948 -0.336874365806580 1.076861619949341
0.587660372257233 -0.335422635078430 1.114044427871704
5.191014289855957 -0.345625936985016 1.073283195495605
0.429664731025696 -0.234768688678741 1.035215497016907
0.534506142139435 -0.207575663924217 1.099025249481201
0.579207360744476 -0.213769495487213 1.120037555694580
5.200129985809326 -0.241150140762329 1.066958308219910
0.433331757783890 -0.156281784176826 1.044297456741333
0.509038925170898 -0.167251139879227 1.090025663375854
0.568649530410767 -0.187656342983246 1.122106909751892
5.195927143096924 -0.115078337490559 1.102136492729187
0.417039752006531 -0.003448035800830 1.035366058349609
0.516109287738800 -0.032149981707335 1.098996043205261
5.201611995697021 -0.042997919023037 1.085910797119141
0.428452372550964 0.021810783073306 1.044832587242126
0.522789657115936 0.071366399526596 1.101988434791565
5.199504375457764 0.085411779582500 1.091070175170898
0.434442967176437 0.162926658987999 1.044605374336243
0.521586894989014 0.188518568873405 1.094421267509460
0.574189245700836 0.204167127609253 1.119820356369019
5.194801330566406 0.126805886626244 1.105619192123413
0.432862967252731 0.252773106098175 1.035704493522644
0.527228593826294 0.245346173644066 1.091829538345337
0.581756234169006 0.228910118341446 1.119578003883362
5.198963642120361 0.268133908510208 1.063639044761658
0.451774179935455 0.358175009489059 1.035712599754333
0.516764223575592 0.363285362720490 1.075485110282898
0.589971542358398 0.366633415222168 1.112354516983032
5.189383029937744 0.368690133094788 1.079432249069214
0.460094392299652 0.433229535818100 1.028890013694763
0.499362200498581 0.462828278541565 1.048203349113464
0.603465318679810 0.484623521566391 1.104782223701477
5.187078952789307 0.448232948780060 1.069427847862244
0.538971781730652 0.554195284843445 1.040860652923584
0.615581214427948 0.558052897453308 1.089310884475708
0.688578128814697 0.580012202262878 1.119270086288452
5.161159515380859 0.574206709861755 1.066677570343018
5.172739028930664 0.527897834777832 1.052896142005920
0.563733339309692 0.617774188518524 1.027256369590759
0.610435664653778 0.683965802192688 1.030569911003113
0.711216211318970 0.667158365249634 1.108572244644165
5.134483337402344 0.659796357154846 1.067714810371399
0.652017056941986 0.734742581844330 1.041902780532837
0.713490903377533 0.760779201984406 1.079267621040344
0.794197261333466 0.766209781169891 1.113377809524536
2.094680547714233 0.787772953510284 1.078891873359680
3.009791612625122 0.789820790290833 1.078291535377502
3.165879487991333 0.790062189102173 1.034718275070190
3.179481029510498 0.785641491413116 1.087818384170532
3.934865713119507 0.788198411464691 1.085258364677429
3.975564241409302 0.789939522743225 1.116212010383606
0.747801542282104 0.827023625373840 1.056801438331604
0.824045419692993 0.870204269886017 1.061315298080444
0.872925281524658 0.894532859325409 1.061102867126465
0.987050771713257 0.903203368186951 1.117311239242554
1.954462528228760 0.849668145179749 1.039224982261658
2.000193595886230 0.849274575710297 1.052082180976868
2.078304767608643 0.830147266387939 1.080678462982178
3.037974834442139 0.862669587135315 1.074823856353760
3.124827146530151 0.861552119255066 1.083606004714966
3.949726819992065 0.884747624397278 1.048126816749573
4.003497600555420 0.885585844516754 1.088992714881897
4.617932796478271 0.909878849983215 1.102349519729614
4.669406890869141 0.896603524684906 1.116604447364807
0.929518699645996 0.922817528247833 1.047642827033997
1.031245946884155 0.945508837699890 1.054725408554077
1.116394639015198 0.954889416694641 1.070160746574402
1.240154385566711 0.961699485778809 1.045690655708313
1.293274283409119 0.962575495243073 1.042102217674255
1.423009872436523 0.958411157131195 1.084007143974304
1.555286765098572 0.947780251502991 1.103271007537842
1.620399951934814 0.944835364818573 1.101870775222778
1.704120516777039 0.942555844783783 1.103806734085083
1.806359291076660 0.941101789474487 1.106200098991394
1.906138658523560 0.940824449062347 1.107714176177979
1.983640551567078 0.946669638156891 1.080645442008972
4.061573028564453 0.967380404472351 1.036812424659729
4.089877605438232 0.975444674491882 1.074815034866333
4.232185363769531 0.987749695777893 1.032933592796326
4.307248115539551 0.987237572669983 1.035839915275574
4.415879726409912 0.981103479862213 1.077444911003113
4.547089576721191 0.961068689823151 1.039303064346313
4.601252079010010 0.944088876247406 1.092594385147095
1.027080059051514 -0.899555444717407 1.138408541679382
1.114208698272705 -0.912548542022705 1.148514032363892
1.218834280967712 -0.916238427162170 1.163979649543762
1.318490266799927 -0.919747531414032 1.168490767478943
1.419612288475037 -0.920930087566376 1.169209003448486
1.518985271453857 -0.917455554008484 1.173908710479736
1.620391488075256 -0.914484679698944 1.178125977516174
1.746715188026428 -0.934083998203278 1.132020711898804
1.826035737991333 -0.933044254779816 1.132554173469543
1.887398958206177 -0.933197319507599 1.132725358009338
1.992022037506104 -0.916353106498718 1.175637722015381
4.058119297027588 -0.899433970451355 1.135994791984558
4.101838588714600 -0.951272368431091 1.180651664733887
4.239184856414795 -0.957749366760254 1.187602877616882
4.312371730804443 -0.950805127620697 1.187718987464905
4.418771743774414 -0.950544953346252 1.170464873313904
4.487378597259521 -0.934042274951935 1.203843832015991
4.652546882629395 -0.924959182739258 1.144070029258728
4.701262950897217 -0.912495791912079 1.190731406211853
0.836110413074493 -0.810214161872864 1.135746240615845
0.943103611469269 -0.792539238929749 1.176437139511108
1.021942615509033 -0.797136247158051 1.195445299148560
1.120736241340637 -0.803335726261139 1.212096214294434
1.206760883331299 -0.804920673370361 1.215535759925842
1.294107794761658 -0.803895175457001 1.204053640365601
1.419305443763733 -0.826998770236969 1.219668269157410
1.501988172531128 -0.835351407527924 1.219856023788452
1.622676134109497 -0.885147511959076 1.220828056335449
1.706852078437805 -0.886006057262421 1.221207261085510
1.787339329719543 -0.885164260864258 1.223959088325500
1.951316714286804 -0.840226173400879 1.187851309776306
2.049720764160156 -0.839369177818298 1.190974354743958
2.091069936752319 -0.807128787040710 1.181177854537964
3.033777713775635 -0.826584577560425 1.169261455535889
3.130689859390259 -0.860684871673584 1.165513873100281
3.190891504287720 -0.817184925079346 1.197440266609192
3.952214956283569 -0.789056479930878 1.132950663566589
4.014962196350098 -0.836830437183380 1.167844295501709
4.708941936492920 -0.877152860164642 1.194768071174622
0.766081035137177 -0.701760351657867 1.126514911651611
0.834150075912476 -0.775109887123108 1.138734102249146
0.904065191745758 -0.783363163471222 1.163322091102600
1.013784885406494 -0.785699248313904 1.171719789505005
1.126935720443726 -0.754761278629303 1.205499768257141
1.198847055435181 -0.768018841743469 1.218213319778442
1.286169409751892 -0.775900363922119 1.201849102973938
1.839493393898010 -0.704244434833527 1.203624129295349
1.883042812347412 -0.711129367351532 1.216725945472717
1.976515054702759 -0.697208821773529 1.181231021881104
2.099839448928833 -0.788864970207214 1.126473784446716
3.012318611145020 -0.788387119770050 1.131467461585999
3.190403699874878 -0.787749052047729 1.140370011329651
3.957259893417358 -0.786460816860199 1.147013664245605
3.993466615676880 -0.786072492599487 1.196118354797363
0.753292739391327 -0.639914989471436 1.131644129753113
0.817013740539551 -0.639343559741974 1.156322598457336
0.915361464023590 -0.632852435112000 1.191501617431641
1.008421063423157 -0.647822618484497 1.213551759719849
1.082642436027527 -0.682717502117157 1.220300316810608
1.828590512275696 -0.654947161674500 1.208363771438599
1.946062326431274 -0.672685444355011 1.197467327117920
1.973327398300171 -0.681124567985535 1.180967211723328
5.138485908508301 -0.636500239372253 1.129119396209717
0.664514780044556 -0.519917190074921 1.127836108207703
0.714299023151398 -0.545875370502472 1.142014145851135
0.818792164325714 -0.560124695301056 1.178650140762329
0.931099236011505 -0.542712926864624 1.212862133979797
0.969070374965668 -0.571151673793793 1.220248222351074
1.757900118827820 -0.529956102371216 1.186467885971069
1.786661505699158 -0.536405622959137 1.191945672035217
1.898554086685181 -0.521837174892426 1.187062263488770
5.159781455993652 -0.546737909317017 1.150533199310303
5.169113636016846 -0.495027869939804 1.184701442718506
0.655881762504578 -0.443123102188110 1.133024930953979
0.714092373847961 -0.433841228485107 1.156241655349731
0.828821182250977 -0.442757427692413 1.193540811538696
0.927544772624969 -0.457197129726410 1.219437599182129
1.759625077247620 -0.438392847776413 1.188202023506165
1.843246817588806 -0.444378465414047 1.208233833312988
1.879261851310730 -0.436807453632355 1.188378214836121
5.146566390991211 -0.469812512397766 1.207858085632324
5.171723842620850 -0.464124202728271 1.205223679542542
0.652408123016357 -0.340749591588974 1.140870809555054
0.717388033866882 -0.351044267416000 1.164139270782471
0.831313431262970 -0.352450281381607 1.200314521789551
0.896382033824921 -0.303362429141998 1.220438480377197
1.737949371337891 -0.337607443332672 1.188401699066162
1.867778658866882 -0.387938082218170 1.219890713691711
1.878613710403442 -0.347857207059860 1.183207869529724
5.186852455139160 -0.345144778490067 1.182705163955688
0.635521233081818 -0.221455380320549 1.145420670509338
0.720100462436676 -0.242003872990608 1.175658106803894
0.816534876823425 -0.260561436414719 1.205802679061890
0.884273171424866 -0.282122373580933 1.219713449478149
1.719361543655396 -0.237826913595200 1.188373804092407
1.864107012748718 -0.206191554665565 1.183979988098145
1.875770211219788 -0.256603628396988 1.181222319602966
5.167143344879150 -0.246014013886452 1.216557979583740
5.174434185028076 -0.253771334886551 1.184189796447754
0.626134872436523 -0.124582998454571 1.150949120521545
0.727337837219238 -0.138215154409409 1.190058708190918
0.806508362293243 -0.142418652772903 1.215055584907532
1.705986499786377 -0.139714553952217 1.188507199287415
1.849375844001770 -0.140459433197975 1.181957960128784
1.876131296157837 -0.156772583723068 1.179416894912720
5.166592121124268 -0.142458349466324 1.215530991554260
5.180263519287109 -0.118440598249435 1.158376932144165
0.618927478790283 -0.023609619587660 1.149761676788330
0.723449528217316 -0.032418835908175 1.190799474716187
0.806092441082001 -0.028958931565285 1.217313528060913
1.699094533920288 -0.030564051121473 1.189138054847717
1.829866528511047 -0.035764347761869 1.182743549346924
5.165715217590332 -0.048829965293407 1.218693375587463
5.174230098724365 -0.045502383261919 1.183040380477905
0.625072836875916 0.077573060989380 1.151813030242920
0.717254936695099 0.078795120120049 1.188156485557556
0.806135952472687 0.070592775940895 1.216769456863403
1.699984312057495 0.060408368706703 1.189015388488770
1.824829220771790 0.055198669433594 1.191509366035461
5.165397644042969 0.066802866756916 1.220180869102478
5.174993991851807 0.088613361120224 1.178277254104614
0.619624733924866 0.195813149213791 1.144142031669617
0.730777442455292 0.149030312895775 1.190884351730347
0.810095846652985 0.147983655333519 1.215991735458374
1.708436965942383 0.160971730947495 1.188459277153015
1.836768269538879 0.164878919720650 1.183829903602600
5.166427135467529 0.166869282722473 1.216260671615601
5.182092189788818 0.125864654779434 1.151909589767456
0.640770018100739 0.226659327745438 1.146182179450989
0.719474732875824 0.241680055856705 1.175479412078857
0.815326035022736 0.260394543409348 1.205394029617310
0.887551844120026 0.284587681293488 1.220126628875732
1.723043918609619 0.259707331657410 1.188327193260193
1.858409166336060 0.226718291640282 1.186720967292786
1.877293229103088 0.280640572309494 1.181571364402771
5.167397499084473 0.252506911754608 1.216255545616150
5.174928665161133 0.280845433473587 1.185421347618103
0.650361537933350 0.355293631553650 1.139021873474121
0.717645406723022 0.364103138446808 1.163414239883423
0.826441943645477 0.366996854543686 1.198173165321350
0.900183677673340 0.360468506813049 1.218719482421875
1.741394519805908 0.358465582132339 1.188295602798462
1.864760518074036 0.398090392351151 1.214878201484680
1.877481579780579 0.364333450794220 1.185991525650024
5.188982486724854 0.358114421367645 1.177671194076538
0.650664627552032 0.460519075393677 1.129098176956177
0.716898977756500 0.450394809246063 1.155649065971375
0.831427693367004 0.461267322301865 1.192975640296936
0.925291776657104 0.467672467231750 1.218005537986755
1.761828660964966 0.450158566236496 1.188326239585876
1.800905108451843 0.484360754489899 1.198062777519226
1.882966756820679 0.463298469781876 1.186282753944397
5.165276527404785 0.499867588281631 1.181472301483154
5.170599460601807 0.474752038717270 1.200152516365051
0.664029955863953 0.519372165203094 1.127444148063660
0.714949131011963 0.550821006298065 1.140983700752258
0.822600483894348 0.572648763656616 1.177061915397644
0.920349776744843 0.577546656131744 1.206378817558289
0.978919744491577 0.593032181262970 1.219909667968750
1.757926225662231 0.530041933059692 1.186464190483093
1.794458508491516 0.568805515766144 1.193253397941589
1.905852317810059 0.535831689834595 1.183675646781921
5.155840396881104 0.567053616046906 1.140482544898987
5.172214984893799 0.513413667678833 1.136780261993408
0.756090939044952 0.660157382488251 1.128739833831787
0.813861370086670 0.663186252117157 1.149853944778442
0.916219532489777 0.663798689842224 1.182199954986572
1.011829257011414 0.666375637054443 1.208574533462524
1.100911378860474 0.698941469192505 1.218685150146484
1.835501194000244 0.678569674491882 1.208637118339539
1.943060040473938 0.672690987586975 1.198429584503174
1.974406957626343 0.684646725654602 1.181025862693787
5.135196208953857 0.647714555263519 1.129638671875000
0.834400415420532 0.775357425212860 1.138835430145264
0.912688434123993 0.785319924354553 1.166252255439758
1.020480275154114 0.795283555984497 1.191854953765869
1.120380520820618 0.802912294864655 1.212094902992249
1.203117489814758 0.802889168262482 1.213772416114807
1.292881250381470 0.801528811454773 1.203877091407776
1.421934723854065 0.807124972343445 1.219560265541077
1.492670655250549 0.808445334434509 1.219240188598633
1.837707877159119 0.721885144710541 1.192828297615051
1.870809912681580 0.716675281524658 1.219609141349792
1.976462125778198 0.712986230850220 1.180842757225037
2.095838785171509 0.797522366046906 1.182407498359680
3.022499799728394 0.793530821800232 1.166622757911682
3.198028802871704 0.797100961208344 1.192866325378418
3.957297801971436 0.786489665508270 1.146958827972412
3.992529153823853 0.787069082260132 1.185928344726562
0.848766982555389 0.816204726696014 1.138893485069275
0.914602756500244 0.828827738761902 1.159327507019043
1.019605040550232 0.842040181159973 1.185268759727478
1.146930932998657 0.819901943206787 1.219399929046631
1.216590523719788 0.814303278923035 1.221527934074402
1.316916227340698 0.888994693756104 1.206165552139282
1.414205431938171 0.892690002918243 1.207948923110962
1.520677447319031 0.897248625755310 1.205141544342041
1.619483470916748 0.896202147006989 1.207137942314148
1.710228681564331 0.895584642887115 1.208568334579468
1.818016648292542 0.900322377681732 1.203769445419312
1.940876364707947 0.859251320362091 1.193954110145569
2.007963895797729 0.889279663562775 1.204853057861328
2.084231376647949 0.821669578552246 1.181082844734192
3.043723344802856 0.859629034996033 1.165136575698853
3.130940437316895 0.860448062419891 1.165684103965759
3.176801919937134 0.848844408988953 1.191531062126160
4.025337219238281 0.866580903530121 1.174118995666504
4.075425148010254 0.905636429786682 1.197494864463806
4.657956600189209 0.896875023841858 1.145356416702271
4.712377548217773 0.891838312149048 1.199789166450500
1.063349366188049 0.915227651596069 1.130795001983643
1.120776891708374 0.920234382152557 1.140364289283752
1.220672011375427 0.928155362606049 1.148577690124512
1.316843748092651 0.931066215038300 1.152671575546265
1.420101881027222 0.929875433444977 1.155832290649414
1.517394423484802 0.928930640220642 1.155304789543152
1.620618700981140 0.924310624599457 1.160940289497375
1.749577641487122 0.935295879840851 1.129464387893677
1.826417565345764 0.933640062808990 1.131114482879639
1.887419104576111 0.933666467666626 1.131661415100098
1.988726139068604 0.924479186534882 1.158702611923218
4.068093299865723 0.920201957225800 1.136226892471313
4.101914405822754 0.951664268970490 1.180029273033142
4.220840454101562 0.962273061275482 1.173170447349548
4.320294857025146 0.965598225593567 1.155278325080872
4.422502040863037 0.959031462669373 1.156807184219360
4.527727127075195 0.939931690692902 1.188113331794739
4.651010036468506 0.933593451976776 1.143610715866089
4.689864158630371 0.919913351535797 1.179906725883484
2.004305362701416 -0.889858126640320 1.226417183876038
4.107434272766113 -0.920030653476715 1.273877024650574
4.222492694854736 -0.924038887023926 1.275722026824951
4.305574417114258 -0.916510760784149 1.275061249732971
4.416822910308838 -0.896011471748352 1.301014780998230
4.491996765136719 -0.911067903041840 1.259948372840881
4.619438171386719 -0.903407573699951 1.256105899810791
4.746179103851318 -0.893119692802429 1.234700918197632
1.167157888412476 -0.812432229518890 1.225235819816589
1.230248808860779 -0.810511410236359 1.229795098304749
1.311800837516785 -0.812774777412415 1.235088706016541
1.417213320732117 -0.815757989883423 1.241994738578796
1.519557714462280 -0.818345725536346 1.246370434761047
1.623752236366272 -0.819944679737091 1.251667737960815
1.721001386642456 -0.818298220634460 1.259507775306702
1.798850893974304 -0.803697049617767 1.284013271331787
1.929670095443726 -0.821909070014954 1.287075042724609
2.039175748825073 -0.852250933647156 1.270049333572388
2.085388422012329 -0.826893866062164 1.297763466835022
3.052807331085205 -0.806450903415680 1.274495363235474
3.119199991226196 -0.828750491142273 1.288232922554016
3.198496818542480 -0.815382301807404 1.276260495185852
4.045820236206055 -0.828824281692505 1.276893854141235
4.097861766815186 -0.885755538940430 1.321462035179138
4.436897277832031 -0.887020289897919 1.321613192558289
4.521843910217285 -0.882862269878387 1.315421223640442
4.627414703369141 -0.875332295894623 1.306892275810242
4.759431838989258 -0.884619593620300 1.247887492179871
4.815154552459717 -0.860657095909119 1.277487516403198
4.920158386230469 -0.823550224304199 1.294073462486267
4.979211807250977 -0.796029627323151 1.298517584800720
1.144024610519409 -0.699956715106964 1.227942466735840
1.221586704254150 -0.740343332290649 1.232615113258362
1.318313598632812 -0.736432075500488 1.249398589134216
1.419606089591980 -0.748545408248901 1.259868979454041
1.521673202514648 -0.748431146144867 1.274369835853577
1.615302205085754 -0.746360778808594 1.291078567504883
1.726305007934570 -0.756101846694946 1.301096677780151
1.847440719604492 -0.743256330490112 1.310871720314026
1.887884974479675 -0.730802774429321 1.302991747856140
2.022958040237427 -0.760778725147247 1.315850734710693
2.143970727920532 -0.787815332412720 1.319840431213379
2.172726154327393 -0.787435650825500 1.319676756858826
3.059821367263794 -0.788747251033783 1.323208570480347
3.226310729980469 -0.788323462009430 1.321551084518433
4.018476963043213 -0.781816780567169 1.277161121368408
4.964229106903076 -0.784599423408508 1.295956611633301
5.030441284179688 -0.750315308570862 1.300430178642273
5.073495388031006 -0.697286784648895 1.300922513008118
1.042680263519287 -0.627040326595306 1.229712009429932
1.121917843818665 -0.644355595111847 1.241606831550598
1.217220664024353 -0.652791738510132 1.256954908370972
1.319697380065918 -0.653984844684601 1.270498991012573
1.411855340003967 -0.645155966281891 1.281961679458618
1.514284253120422 -0.645044982433319 1.292116641998291
1.607397079467773 -0.651555657386780 1.299878239631653
1.713986515998840 -0.641626834869385 1.309383034706116
1.808738470077515 -0.641406416893005 1.309616565704346
1.896915197372437 -0.652482509613037 1.255984306335449
5.049819469451904 -0.652283728122711 1.313666582107544
5.079070568084717 -0.643875360488892 1.299116849899292
0.965427935123444 -0.504698038101196 1.225383758544922
1.025513052940369 -0.546143054962158 1.234083652496338
1.125220060348511 -0.548608362674713 1.252202391624451
1.217352628707886 -0.538070201873779 1.266496896743774
1.318378210067749 -0.544553041458130 1.278770923614502
1.413077354431152 -0.543229043483734 1.289057493209839
1.511185646057129 -0.536731243133545 1.298297286033630
1.642756581306458 -0.542454004287720 1.309302330017090
1.760459661483765 -0.520039260387421 1.318053245544434
1.794730186462402 -0.557674944400787 1.298360347747803
1.873835325241089 -0.572049856185913 1.260275959968567
5.106636524200439 -0.535181939601898 1.298863172531128
0.954769074916840 -0.423657536506653 1.228101968765259
1.022935628890991 -0.433420598506927 1.241670012474060
1.114539861679077 -0.449516773223877 1.256889104843140
1.209878563880920 -0.451289385557175 1.270789623260498
1.309406638145447 -0.446538686752319 1.282930612564087
1.418955683708191 -0.458277791738510 1.293671131134033
1.536128759384155 -0.447647511959076 1.304474472999573
1.642399907112122 -0.431016713380814 1.314269661903381
1.741192579269409 -0.438743025064468 1.320711851119995
1.836271047592163 -0.432691901922226 1.255314826965332
5.148477554321289 -0.436383068561554 1.284162282943726
5.171945571899414 -0.421157687902451 1.247143149375916
0.941642045974731 -0.306026935577393 1.231535792350769
1.018929004669189 -0.308304399251938 1.247888326644897
1.116569399833679 -0.312017828226089 1.266975641250610
1.212127566337585 -0.322027951478958 1.280223846435547
1.322908163070679 -0.339948147535324 1.290639519691467
1.413917422294617 -0.343586504459381 1.299730300903320
1.521445870399475 -0.348073184490204 1.308307409286499
1.612113595008850 -0.351373016834259 1.315206527709961
1.725728034973145 -0.348606228828430 1.320780754089355
1.811441898345947 -0.336831301450729 1.265065431594849
5.152459144592285 -0.358278840780258 1.294890046119690
5.178276538848877 -0.329646110534668 1.262593388557434
0.863713920116425 -0.234796330332756 1.226679563522339
0.912083327770233 -0.260953724384308 1.235386610031128
1.013404369354248 -0.266423285007477 1.256760478019714
1.098928093910217 -0.242317020893097 1.272099852561951
1.216693401336670 -0.227098539471626 1.287393689155579
1.323604822158813 -0.236924424767494 1.297211766242981
1.416757702827454 -0.236480474472046 1.304266929626465
1.524551510810852 -0.237909391522408 1.311542749404907
1.647406339645386 -0.240639373660088 1.321376562118530
1.718181014060974 -0.255598515272141 1.314061641693115
1.813596010208130 -0.243576094508171 1.270711779594421
5.156406402587891 -0.254161208868027 1.287201523780823
5.173569202423096 -0.275169253349304 1.254666924476624
0.862041115760803 -0.137365058064461 1.230434656143188
0.923598349094391 -0.136341020464897 1.244665861129761
1.028323888778687 -0.141437709331512 1.264449000358582
1.115710973739624 -0.144753322005272 1.277421951293945
1.210803031921387 -0.128389418125153 1.289071321487427
1.324504971504211 -0.136429622769356 1.299316287040710
1.420685291290283 -0.137506991624832 1.306156754493713
1.520786643028259 -0.147242367267609 1.312608599662781
1.635274171829224 -0.136234208941460 1.322201251983643
1.735952019691467 -0.144330561161041 1.258317351341248
1.794435620307922 -0.145400479435921 1.269531130790710
5.133330821990967 -0.143848389387131 1.309442758560181
0.859299600124359 -0.040284838527441 1.231534600257874
0.926301121711731 -0.036768201738596 1.246934294700623
1.015518665313721 -0.037876032292843 1.263968110084534
1.109353423118591 -0.032119493931532 1.278153181076050
1.216060280799866 -0.034103743731976 1.290583610534668
1.321064472198486 -0.032634876668453 1.299844026565552
1.420557618141174 -0.049684330821037 1.306834220886230
1.523688435554504 -0.036930203437805 1.313648104667664
1.620349764823914 -0.040463268756866 1.321360945701599
1.735970616340637 -0.031017029657960 1.246369361877441
1.786346435546875 -0.017955558374524 1.272274255752563
5.136459350585938 -0.024319354444742 1.303406596183777
0.861866593360901 0.071611933410168 1.231879353523254
0.925956666469574 0.060655504465103 1.246672391891479
1.018217682838440 0.063441313803196 1.264301896095276
1.109092235565186 0.067976914346218 1.277851581573486
1.214211702346802 0.066765539348125 1.290393233299255
1.320211768150330 0.070654682815075 1.299671411514282
1.428956985473633 0.072992630302906 1.307293057441711
1.522949099540710 0.061241179704666 1.313484668731689
1.625025749206543 0.068704642355442 1.321759819984436
1.735890507698059 0.056926526129246 1.245815873146057
1.786775231361389 0.074260137975216 1.272781610488892
5.146157741546631 0.049134679138660 1.283580899238586
0.863691389560699 0.159349903464317 1.230082392692566
0.926412940025330 0.159805417060852 1.244547367095947
1.018377900123596 0.166018441319466 1.262083172798157
1.114104986190796 0.161386653780937 1.276839494705200
1.212671756744385 0.154593884944916 1.288635134696960
1.320434570312500 0.160223498940468 1.298614621162415
1.413223147392273 0.169174671173096 1.305245757102966
1.521290779113770 0.155997484922409 1.312548637390137
1.639803767204285 0.161591604351997 1.322204470634460
1.730727314949036 0.170482531189919 1.272787690162659
1.795646071434021 0.162356108427048 1.269983410835266
5.133957862854004 0.148794472217560 1.308302044868469
0.862226843833923 0.249421238899231 1.225578665733337
0.917252600193024 0.270140260457993 1.234279990196228
1.013828039169312 0.286886125802994 1.251989960670471
1.114943623542786 0.287769377231598 1.271564245223999
1.202312111854553 0.299163967370987 1.282856106758118
1.323690533638000 0.259327769279480 1.296663641929626
1.412865877151489 0.262877762317657 1.303398728370667
1.527867674827576 0.265059739351273 1.311374783515930
1.643672823905945 0.258781462907791 1.320647597312927
1.718411922454834 0.274029225111008 1.316975831985474
1.819189310073853 0.269831269979477 1.267284989356995
5.155321598052979 0.265538603067398 1.291021347045898
5.177220821380615 0.288104206323624 1.255871891975403
0.941049277782440 0.363138914108276 1.228358745574951
1.032131671905518 0.325195074081421 1.248793482780457
1.118553876876831 0.323138177394867 1.264018058776855
1.221853971481323 0.333204984664917 1.278800010681152
1.323106408119202 0.340952187776566 1.290750026702881
1.410175561904907 0.344501674175262 1.299480676651001
1.516919732093811 0.359535187482834 1.307193636894226
1.611742973327637 0.359448552131653 1.314823985099792
1.728005528450012 0.366736203432083 1.321710944175720
1.822509527206421 0.363126605749130 1.257413387298584
5.154159069061279 0.380122750997543 1.289409518241882
5.175904273986816 0.353603005409241 1.265709757804871
0.957579970359802 0.460917741060257 1.226325154304504
1.028307080268860 0.452081024646759 1.241588234901428
1.114557862281799 0.451344460248947 1.256753563880920
1.212760567665100 0.469746738672256 1.270216345787048
1.317960739135742 0.474650412797928 1.282556414604187
1.418286085128784 0.472795963287354 1.292897462844849
1.515223622322083 0.482278943061829 1.301382184028625
1.651530742645264 0.455640763044357 1.314118027687073
1.746289849281311 0.462220400571823 1.319894313812256
1.834859132766724 0.448446214199066 1.255948066711426
5.139984607696533 0.458566367626190 1.287911891937256
5.172048568725586 0.421770066022873 1.246142983436584
1.026934385299683 0.558502376079559 1.233315825462341
1.133159637451172 0.568173050880432 1.251955509185791
1.220328450202942 0.570457994937897 1.264748930931091
1.322687864303589 0.576766312122345 1.277167916297913
1.398052811622620 0.565802097320557 1.286066055297852
1.515411734580994 0.554664075374603 1.297614336013794
1.626808404922485 0.561178088188171 1.307060956954956
1.762386202812195 0.527747333049774 1.317759633064270
1.789940476417542 0.574107289314270 1.305193901062012
1.879093647003174 0.590303242206573 1.261261940002441
5.063009262084961 0.597596883773804 1.322926878929138
5.098031044006348 0.561500132083893 1.299521207809448
1.041878938674927 0.632358014583588 1.228918910026550
1.121863961219788 0.658859908580780 1.237743735313416
1.216270089149475 0.670778214931488 1.253202080726624
1.325509190559387 0.681498169898987 1.268615484237671
1.414946079254150 0.675215959548950 1.279586672782898
1.522876262664795 0.676078855991364 1.290401220321655
1.621180653572083 0.660012304782867 1.300307631492615
1.716319203376770 0.666248261928558 1.307878613471985
1.824478149414062 0.669232428073883 1.310851454734802
1.896179914474487 0.674175024032593 1.247289657592773
5.049976348876953 0.653837919235229 1.313453793525696
5.076770305633545 0.659945964813232 1.299582481384277
1.165208220481873 0.717759251594543 1.225955486297607
1.229078888893127 0.808172523975372 1.229453086853027
1.296115875244141 0.807775199413300 1.231842279434204
1.418444514274597 0.807789981365204 1.236051321029663
1.491108775138855 0.807063341140747 1.240599393844604
1.619015812873840 0.769289255142212 1.279441952705383
1.747203707695007 0.805338621139526 1.257834315299988
1.828406929969788 0.775057494640350 1.300035476684570
1.889464020729065 0.740874588489532 1.316877484321594
2.019825220108032 0.764852821826935 1.316480398178101
2.116715669631958 0.798703670501709 1.290687322616577
2.172718763351440 0.787436962127686 1.319670677185059
3.047789335250854 0.795879840850830 1.272570967674255
3.069864034652710 0.810884296894073 1.324324727058411
3.211660861968994 0.800959408283234 1.269504904747009
4.018293857574463 0.782998025417328 1.273509979248047
4.958427429199219 0.805109322071075 1.297312617301941
5.016446590423584 0.763295292854309 1.299958705902100
1.167000889778137 0.811779320240021 1.225139498710632
1.230527520179749 0.814599454402924 1.230328559875488
1.316396832466125 0.814324736595154 1.236329436302185
1.417137503623962 0.816728532314301 1.242817282676697
1.523469448089600 0.818794488906860 1.246742844581604
1.624317646026611 0.819948375225067 1.251564145088196
1.718814730644226 0.818933129310608 1.259750843048096
1.779444694519043 0.814515709877014 1.271623015403748
1.938065052032471 0.839831113815308 1.265205502510071
2.037847280502319 0.853976249694824 1.268352389335632
2.078245639801025 0.833704471588135 1.300629854202271
3.062790155410767 0.831948816776276 1.272303938865662
3.119261741638184 0.828677594661713 1.288407802581787
3.186398744583130 0.828698992729187 1.283942222595215
4.046532630920410 0.831569492816925 1.275167584419250
4.102716445922852 0.898103535175323 1.310093879699707
4.230686664581299 0.902179181575775 1.317505002021790
4.339054107666016 0.899855017662048 1.312641024589539
4.431406021118164 0.891947686672211 1.314624428749084
4.533189296722412 0.893323361873627 1.295925378799438
4.626734256744385 0.890117406845093 1.278827071189880
4.752668857574463 0.889260292053223 1.240646600723267
4.815680980682373 0.860530912876129 1.277593851089478
4.911680221557617 0.827440857887268 1.293304443359375
4.108148574829102 0.927300930023193 1.260954618453979
4.201795101165771 0.933225631713867 1.258879542350769
4.322070121765137 0.936047196388245 1.242900133132935
4.421955108642578 0.929608225822449 1.243566632270813
4.528155326843262 0.919750273227692 1.244731068611145
4.628136634826660 0.913496315479279 1.230160474777222
4.108303546905518 -0.892557501792908 1.330617666244507
4.206371307373047 -0.892958700656891 1.330533623695374
4.305337429046631 -0.892074525356293 1.327184319496155
2.048684597015381 -0.807092726230621 1.339850068092346
2.138767004013062 -0.812387824058533 1.341608047485352
2.210161685943604 -0.805573880672455 1.401341557502747
3.064424514770508 -0.789756298065186 1.329312443733215
3.083174705505371 -0.802494108676910 1.363807559013367
3.218741416931152 -0.802069664001465 1.360739827156067
4.058793067932129 -0.797219276428223 1.385582447052002
4.087091445922852 -0.838252127170563 1.365752935409546
4.226595401763916 -0.823580443859100 1.385371327400208
4.311669349670410 -0.842758238315582 1.368296504020691
4.415749549865723 -0.848389327526093 1.359187126159668
4.520226478576660 -0.851465880870819 1.349396467208862
4.608136177062988 -0.835789680480957 1.352904558181763
4.719353675842285 -0.819260478019714 1.349710226058960
4.807560920715332 -0.815482735633850 1.336408495903015
4.897193908691406 -0.796856641769409 1.329911589622498
1.959867000579834 -0.771760821342468 1.327474951744080
2.032902479171753 -0.778570294380188 1.344016790390015
2.117063522338867 -0.766542613506317 1.376983761787415
2.211339950561523 -0.774470150470734 1.384544253349304
2.272981405258179 -0.762438118457794 1.421750783920288
3.064089059829712 -0.785276949405670 1.339340090751648
3.084128141403198 -0.771665573120117 1.395207166671753
3.232113838195801 -0.776797115802765 1.379597544670105
4.026964187622070 -0.771885812282562 1.382591605186462
4.082282066345215 -0.764280438423157 1.423059463500977
4.258371353149414 -0.787304878234863 1.423045635223389
4.312332630157471 -0.785192430019379 1.419231176376343
4.418095111846924 -0.780172348022461 1.412878990173340
4.518731594085693 -0.774352490901947 1.405551910400391
4.611391067504883 -0.761749625205994 1.403018832206726
4.710908889770508 -0.749696552753448 1.394721269607544
4.823243141174316 -0.724353194236755 1.386728882789612
4.919043064117432 -0.732698440551758 1.357015490531921
5.012238025665283 -0.729809522628784 1.332148313522339
4.857101917266846 -0.625485897064209 1.421385765075684
4.922567367553711 -0.619896173477173 1.389522790908813
5.009617328643799 -0.639211714267731 1.344338774681091
4.852149009704590 -0.517581760883331 1.417529940605164
4.932376384735107 -0.538946032524109 1.399934053421021
5.032919883728027 -0.542061507701874 1.353941917419434
5.072287559509277 -0.516790449619293 1.329639077186584
1.730982065200806 -0.392773807048798 1.325091481208801
5.053440570831299 -0.434611737728119 1.361790895462036
5.080348968505859 -0.430365175008774 1.344095349311829
1.721863746643066 -0.331256538629532 1.325922250747681
5.055285930633545 -0.336628109216690 1.368014574050903
5.083007335662842 -0.338448286056519 1.344618678092957
1.709670782089233 -0.230334132909775 1.326360106468201
5.058382511138916 -0.235603913664818 1.376345038414001
5.106040954589844 -0.278500914573669 1.342517018318176
1.667053461074829 -0.117675967514515 1.325753808021545
1.702384114265442 -0.138044074177742 1.327193498611450
5.058189392089844 -0.150370493531227 1.384434580802917
5.108681678771973 -0.135736584663391 1.343157291412354
1.662106752395630 -0.053239174187183 1.325784921646118
1.698405027389526 -0.030488178133965 1.327793955802917
5.043649673461914 -0.030584201216698 1.401545763015747
5.108960151672363 -0.043375026434660 1.344102263450623
1.665793657302856 0.089668348431587 1.325836896896362
1.698964476585388 0.058278594166040 1.327684164047241
5.041410446166992 0.057543255388737 1.402770042419434
5.107700824737549 0.065295487642288 1.345495820045471
1.667379379272461 0.124628856778145 1.325609326362610
1.703793525695801 0.159977331757545 1.326947331428528
5.061370372772217 0.172572940587997 1.379973053932190
5.108823776245117 0.146885693073273 1.342754483222961
1.711595416069031 0.249094367027283 1.326318740844727
5.057781696319580 0.271754831075668 1.372758984565735
5.095630645751953 0.290089130401611 1.346313357353210
1.723594427108765 0.343498647212982 1.325709223747253
5.054441928863525 0.346378654241562 1.367713093757629
5.084809303283691 0.360531955957413 1.343138694763184
4.845242500305176 0.508201241493225 1.420119166374207
4.948029518127441 0.504768192768097 1.396758913993835
5.051147460937500 0.449887007474899 1.360835433006287
5.079788208007812 0.435244143009186 1.343509197235107
4.852430820465088 0.518466830253601 1.417376875877380
4.904127597808838 0.596246421337128 1.404100537300110
5.022358417510986 0.570404648780823 1.350348472595215
5.071705818176270 0.526828885078430 1.328578233718872
4.857255935668945 0.624609112739563 1.421473741531372
4.931709766387939 0.625009715557098 1.383808255195618
5.008822917938232 0.646451115608215 1.344414949417114
1.959928035736084 0.771754324436188 1.327486872673035
2.038448572158813 0.788733363151550 1.343909859657288
2.122121810913086 0.771735608577728 1.369870781898499
2.213194608688354 0.783633768558502 1.390985965728760
2.273311614990234 0.762285530567169 1.421662688255310
3.063995838165283 0.786139011383057 1.337352156639099
3.084244012832642 0.783186674118042 1.384726762771606
3.227890491485596 0.784886419773102 1.374435305595398
4.035256862640381 0.778004050254822 1.386701822280884
4.076669216156006 0.802543163299561 1.405082583427429
4.233802318572998 0.799395322799683 1.407126545906067
4.311028003692627 0.796847879886627 1.404286980628967
4.419762134552002 0.788650691509247 1.404156446456909
4.520478248596191 0.778841018676758 1.401930332183838
4.615049839019775 0.766417443752289 1.399553298950195
4.708958625793457 0.756433248519897 1.390545964241028
4.820224761962891 0.757311046123505 1.367806196212769
4.924479484558105 0.765010714530945 1.340045690536499
5.003529071807861 0.743185579776764 1.329941034317017
2.056777477264404 0.818770289421082 1.331874728202820
2.132377862930298 0.824301660060883 1.343584418296814
2.178985357284546 0.813676476478577 1.378039836883545
3.075173616409302 0.812556803226471 1.331521153450012
3.211002588272095 0.812613785266876 1.329677700996399
4.065406799316406 0.812590181827545 1.351768851280212
4.091198444366455 0.851297497749329 1.353066921234131
4.224086284637451 0.839891016483307 1.370925307273865
4.306354045867920 0.845985174179077 1.366446256637573
4.420189857482910 0.852172672748566 1.358824729919434
4.518462657928467 0.850472092628479 1.352993726730347
4.596450328826904 0.843069434165955 1.350383520126343
4.715975284576416 0.829225480556488 1.344162940979004
4.793442249298096 0.819376647472382 1.336734056472778
2.253376722335815 -0.794175207614899 1.433893561363220
2.271758556365967 -0.789819180965424 1.446789622306824
4.144496440887451 -0.790586471557617 1.427057266235352
4.193168163299561 -0.790483653545380 1.426600575447083
2.166879892349243 -0.760376989841461 1.426471590995789
2.216668128967285 -0.747103452682495 1.451473236083984
2.315565347671509 -0.753339111804962 1.479266405105591
2.390862464904785 -0.739572167396545 1.510969638824463
3.112185239791870 -0.752638995647430 1.472607374191284
3.243396282196045 -0.750976145267487 1.474667072296143
3.273739814758301 -0.733352959156036 1.485974192619324
3.963868618011475 -0.709953486919403 1.511537194252014
4.005811691284180 -0.746100783348083 1.459708333015442
4.136222362518311 -0.760507166385651 1.435286164283752
4.205101490020752 -0.752487599849701 1.477891087532043
4.313336849212646 -0.756959140300751 1.472330331802368
4.422307491302490 -0.744614005088806 1.472990870475769
4.523304939270020 -0.728204548358917 1.475323796272278
4.614628791809082 -0.711066186428070 1.473825812339783
4.709120750427246 -0.700958907604218 1.451373815536499
4.769468784332275 -0.690504252910614 1.438233852386475
4.650557041168213 -0.646271288394928 1.517450928688049
4.721339702606201 -0.644940614700317 1.486716151237488
4.811537742614746 -0.639339566230774 1.445366382598877
4.874200820922852 -0.634311079978943 1.427297234535217
4.729721546173096 -0.572786688804626 1.507107853889465
4.801540851593018 -0.563347339630127 1.473281979560852
4.881749153137207 -0.558068990707397 1.434126853942871
4.693141937255859 0.507091581821442 1.496931910514832
4.822918415069580 0.506896495819092 1.431024909019470
4.730606555938721 0.580397248268127 1.505763888359070
4.798994064331055 0.569702982902527 1.474125981330872
4.881743431091309 0.558832645416260 1.433892846107483
2.262489080429077 0.707254946231842 1.480906724929810
2.331519842147827 0.709668159484863 1.520843505859375
3.962070703506470 0.707168996334076 1.516605734825134
4.535442352294922 0.701645553112030 1.517493367195129
4.649913787841797 0.644685804843903 1.516853570938110
4.721086502075195 0.646465361118317 1.485001206398010
4.812232017517090 0.640541493892670 1.444262027740479
4.874341964721680 0.635281324386597 1.427170753479004
2.166723966598511 0.760416924953461 1.426534771919250
2.219739913940430 0.754714548587799 1.447727203369141
2.315331459045410 0.755767762660980 1.477242350578308
2.391297101974487 0.738981306552887 1.510781645774841
3.112387418746948 0.753189146518707 1.472589850425720
3.242911338806152 0.751996159553528 1.474045991897583
3.273739814758301 0.733352959156036 1.485974192619324
3.966359615325928 0.713759005069733 1.504973888397217
4.005210876464844 0.745523750782013 1.460155010223389
4.141205310821533 0.764730095863342 1.435164809226990
4.205282688140869 0.751729905605316 1.478824615478516
4.311290264129639 0.766862630844116 1.453627467155457
4.423839092254639 0.749742925167084 1.463122963905334
4.519777297973633 0.741131007671356 1.453388094902039
4.605575084686279 0.727576255798340 1.449531078338623
4.690361499786377 0.719713151454926 1.430399894714355
2.348864078521729 -0.715700685977936 1.541979074478149
2.426848888397217 -0.721641123294830 1.563028335571289
2.511731624603271 -0.712411463260651 1.590328216552734
2.574141263961792 -0.690726101398468 1.619055509567261
3.143743991851807 -0.715901076793671 1.565675973892212
3.255984544754028 -0.714591920375824 1.564957857131958
3.272243022918701 -0.693812489509583 1.579424619674683
3.955497026443481 -0.699938416481018 1.551465868949890
3.972320079803467 -0.718370378017426 1.534151554107666
4.241653919219971 -0.707049906253815 1.564010024070740
4.313817501068115 -0.708007276058197 1.561762094497681
4.418918132781982 -0.700795173645020 1.552162408828735
4.506688594818115 -0.696214616298676 1.535848379135132
2.363077640533447 -0.683020114898682 1.546889305114746
2.452025651931763 -0.683845520019531 1.598226904869080
2.482302665710449 -0.679157316684723 1.617270112037659
2.584248542785645 -0.685315489768982 1.618322730064392
3.154313802719116 -0.682369649410248 1.610749244689941
3.267781496047974 -0.686878979206085 1.599359035491943
3.271662712097168 -0.679816782474518 1.611139059066772
3.937614917755127 -0.675269901752472 1.594619631767273
3.977548360824585 -0.681739509105682 1.610803723335266
4.130837917327881 -0.672823965549469 1.614862442016602
4.233005046844482 -0.677205801010132 1.608513712882996
4.328209877014160 -0.677111625671387 1.609717845916748
4.430948734283447 -0.638282358646393 1.611532568931580
4.518110752105713 -0.637599647045135 1.574838399887085
4.598556041717529 -0.641839385032654 1.542294383049011
4.684504032135010 -0.597134649753571 1.527545452117920
4.514366626739502 -0.562570750713348 1.615974783897400
4.604964256286621 -0.539030551910400 1.564893722534180
4.696204185485840 -0.567820668220520 1.533977985382080
4.557218551635742 0.503950893878937 1.621443867683411
4.598999500274658 0.506607055664062 1.553507804870605
4.437679290771484 0.603577375411987 1.621530771255493
4.513625144958496 0.564629733562469 1.615271210670471
4.606045722961426 0.552583873271942 1.566249728202820
4.695996761322021 0.567724347114563 1.534001350402832
2.355564117431641 0.706662774085999 1.536218404769897
2.428886651992798 0.693159461021423 1.589279294013977
2.516201496124268 0.697490334510803 1.595431804656982
2.581019639968872 0.687101483345032 1.618592143058777
3.148595571517944 0.697199940681458 1.589117050170898
3.259931087493896 0.701639890670776 1.584101080894470
3.271665096282959 0.681228637695312 1.607971429824829
3.945585012435913 0.686166346073151 1.574460029602051
3.985419988632202 0.692870080471039 1.588134050369263
4.134833335876465 0.673351168632507 1.613584160804749
4.236799716949463 0.685869455337524 1.594575047492981
4.327380180358887 0.683977723121643 1.599102258682251
4.429815292358398 0.637961149215698 1.612017035484314
4.518515110015869 0.637452721595764 1.574425339698792
4.597222328186035 0.640124857425690 1.541294455528259
2.343526363372803 0.720092415809631 1.541971683502197
2.435579299926758 0.735445678234100 1.550556302070618
2.495371818542480 0.724228203296661 1.589182972908020
3.142523050308228 0.725765287876129 1.555837631225586
3.253287553787231 0.723584115505219 1.554095387458801
3.281802177429199 0.712446749210358 1.536997437477112
3.965344905853271 0.714815616607666 1.537583708763123
3.971637725830078 0.719720959663391 1.531062483787537
4.238485813140869 0.721448540687561 1.543428182601929
4.312983989715576 0.714034557342529 1.552559852600098
4.385924339294434 0.718157231807709 1.531344532966614
2.555396318435669 -0.713840782642365 1.631994962692261
2.623363494873047 -0.698447942733765 1.663985848426819
3.167829036712646 -0.696869194507599 1.628773450851440
3.214682817459106 -0.694520652294159 1.635906219482422
2.524928808212280 -0.669839799404144 1.647411584854126
2.624987125396729 -0.643483400344849 1.682992100715637
2.713474988937378 -0.656144857406616 1.689545512199402
2.814667701721191 -0.646206557750702 1.706109642982483
2.911527633666992 -0.632602870464325 1.718048691749573
2.991811990737915 -0.624488055706024 1.722810029983521
3.155245304107666 -0.640358448028564 1.694189548492432
3.196655988693237 -0.657995700836182 1.685332655906677
3.283869743347168 -0.645535588264465 1.687461256980896
3.416651248931885 -0.617912411689758 1.716550111770630
3.552916049957275 -0.610047578811646 1.723222255706787
3.632173061370850 -0.611046195030212 1.721550345420837
3.719819068908691 -0.614688992500305 1.715334653854370
3.834252834320068 -0.623057782649994 1.704524278640747
3.921254634857178 -0.643859744071960 1.675354361534119
4.015583992004395 -0.651949524879456 1.682310938835144
4.121920108795166 -0.659809231758118 1.661973714828491
4.197032451629639 -0.667256236076355 1.641002535820007
4.360592365264893 -0.608560264110565 1.669891715049744
4.386200904846191 -0.620250582695007 1.647305250167847
2.625751495361328 -0.569197416305542 1.712083339691162
2.681411981582642 -0.574017643928528 1.721817016601562
4.248287200927734 -0.577760756015778 1.720732927322388
4.354897022247314 -0.547922432422638 1.707072496414185
4.407189846038818 -0.554370343685150 1.682044386863708
4.498118400573730 -0.534706711769104 1.644916176795959
2.564767599105835 -0.407132148742676 1.704687356948853
2.587946176528931 -0.444475948810577 1.715986609458923
4.334315776824951 -0.431072592735291 1.691215872764587
4.421638011932373 -0.432225197553635 1.701827526092529
4.512305736541748 -0.434544652700424 1.677584528923035
4.568921089172363 -0.398576945066452 1.654241919517517
2.566986560821533 -0.300676673650742 1.716509699821472
2.573267459869385 -0.347266495227814 1.715578079223633
4.315115928649902 -0.337587177753448 1.696079730987549
4.390156745910645 -0.346838265657425 1.676846146583557
4.537474632263184 -0.329155802726746 1.692814230918884
4.579570293426514 -0.345791965723038 1.660511612892151
2.562802076339722 -0.235714748501778 1.718988656997681
4.320488452911377 -0.222810715436935 1.697801589965820
4.386321544647217 -0.215094283223152 1.683386802673340
4.540981292724609 -0.239611923694611 1.704346418380737
4.572163581848145 -0.213156849145889 1.690180182456970
2.557522058486938 -0.135744422674179 1.720933794975281
4.318849563598633 -0.131568685173988 1.703953385353088
4.387273788452148 -0.143037140369415 1.686309933662415
4.521478176116943 -0.142022058367729 1.717132687568665
4.578110218048096 -0.141252666711807 1.697354435920715
2.555191993713379 -0.024976454675198 1.721832394599915
4.301484584808350 -0.037574172019958 1.707538962364197
4.388796329498291 -0.029239369556308 1.686958193778992
4.525342464447021 -0.051592845469713 1.720520377159119
4.583683013916016 -0.037403181195259 1.698892116546631
2.555546760559082 0.056870743632317 1.721670627593994
4.309220314025879 0.074070602655411 1.705194354057312
4.388377189636230 0.064570434391499 1.686538815498352
4.524578094482422 0.068195208907127 1.719862341880798
4.582896709442139 0.056937549263239 1.700214028358459
2.558501005172729 0.159096464514732 1.720635294914246
4.323611259460449 0.172843009233475 1.701313257217407
4.386281967163086 0.163021728396416 1.685894489288330
4.523369312286377 0.157124847173691 1.715773582458496
4.576561450958252 0.159260973334312 1.696400284767151
2.564393997192383 0.257547289133072 1.718409419059753
2.568928956985474 0.302622824907303 1.717676877975464
4.314949989318848 0.256761431694031 1.696299791336060
4.389575004577637 0.270701378583908 1.679292321205139
4.539568424224854 0.276682525873184 1.700987815856934
4.571180820465088 0.228135734796524 1.687330722808838
2.562220811843872 0.342963457107544 1.710158944129944
2.575678110122681 0.365338563919067 1.715844154357910
4.318117618560791 0.366952985525131 1.695949077606201
4.410830497741699 0.380355089902878 1.687221050262451
4.535498142242432 0.353474140167236 1.688868045806885
4.576217651367188 0.363577723503113 1.658539533615112
2.566668748855591 0.420294970273972 1.704048871994019
2.591342687606812 0.463187217712402 1.715468406677246
4.336988449096680 0.463666081428528 1.700095295906067
4.424139022827148 0.447659134864807 1.703594923019409
4.510147571563721 0.462666273117065 1.669628858566284
2.630144357681274 0.579320132732391 1.710298657417297
2.686620473861694 0.585488498210907 1.720059633255005
3.559800148010254 0.609086513519287 1.724434494972229
3.619345188140869 0.609996557235718 1.721392154693604
3.674078702926636 0.610840559005737 1.716102242469788
4.146348953247070 0.605603933334351 1.719862222671509
4.193640232086182 0.600105822086334 1.715831160545349
4.357127189636230 0.557950437068939 1.701560020446777
4.389867305755615 0.589713513851166 1.668888092041016
4.492416381835938 0.549315512180328 1.640426039695740
2.522158384323120 0.670770287513733 1.645980238914490
2.625258207321167 0.656786680221558 1.677510023117065
2.716197252273560 0.664902389049530 1.685174465179443
2.814583301544189 0.646279036998749 1.706179738044739
2.911780834197998 0.632558286190033 1.717987895011902
2.992431640625000 0.624431133270264 1.722817540168762
3.155607461929321 0.640769183635712 1.694432139396667
3.199196338653564 0.664782106876373 1.676488280296326
3.283998966217041 0.645472824573517 1.687267780303955
3.416655778884888 0.617826581001282 1.716498494148254
3.515369176864624 0.618208765983582 1.711188793182373
3.655888319015503 0.613128066062927 1.722199797630310
3.720304012298584 0.614799320697784 1.715385794639587
3.832193613052368 0.622930705547333 1.704695820808411
3.920946836471558 0.643481791019440 1.675632238388062
4.013237953186035 0.651479005813599 1.682443857192993
4.123205661773682 0.660086750984192 1.660166978836060
4.193706035614014 0.668308496475220 1.639365792274475
4.362761974334717 0.617851138114929 1.667513012886047
4.387162685394287 0.628200352191925 1.640379786491394
2.557188272476196 0.714933514595032 1.631419897079468
2.570926427841187 0.711624979972839 1.638505220413208
2.664756298065186 -0.612365484237671 1.727208375930786
2.722125530242920 -0.601756930351257 1.743794202804565
2.813596487045288 -0.628909170627594 1.746788263320923
2.917897224426270 -0.647624194622040 1.740168094635010
3.023622751235962 -0.631266593933105 1.739908814430237
3.118330717086792 -0.625461518764496 1.740124106407166
3.216351032257080 -0.627118706703186 1.750383019447327
3.321961402893066 -0.619047880172729 1.744338750839233
3.415182113647461 -0.616018831729889 1.745886683464050
3.515048503875732 -0.616257131099701 1.741859197616577
3.615101814270020 -0.620730161666870 1.740098357200623
3.716749191284180 -0.630892992019653 1.740588545799255
3.806121826171875 -0.634468555450439 1.733493447303772
3.915787696838379 -0.613871395587921 1.745343685150146
4.016012668609619 -0.607487022876740 1.738138914108276
4.102844715118408 -0.598567485809326 1.731708407402039
2.659832000732422 -0.573164522647858 1.728306055068970
2.699472188949585 -0.570815265178680 1.733785510063171
2.830084562301636 -0.564598441123962 1.765284657478333
2.916230916976929 -0.558105707168579 1.781386256217957
3.018602848052979 -0.548125624656677 1.794209957122803
3.118772268295288 -0.540100991725922 1.802172183990479
3.222458124160767 -0.532155871391296 1.806877374649048
3.317825555801392 -0.527414858341217 1.808673858642578
3.418245553970337 -0.521709740161896 1.808415770530701
3.518162250518799 -0.516754567623138 1.806218266487122
3.616770982742310 -0.512375771999359 1.801934599876404
3.712334632873535 -0.516975522041321 1.795074701309204
3.820141315460205 -0.517049908638000 1.788330316543579
3.917839050292969 -0.512788474559784 1.778044462203979
4.017816066741943 -0.509208023548126 1.767836332321167
4.127677440643311 -0.505108118057251 1.755901932716370
4.207725524902344 -0.501310527324677 1.747967362403870
4.326449871063232 -0.500465273857117 1.734176039695740
2.589362144470215 -0.407641917467117 1.727629542350769
2.711679220199585 -0.437471538782120 1.764133334159851
2.823122262954712 -0.436825901269913 1.788975954055786
2.914186477661133 -0.447142720222473 1.802410244941711
3.015502214431763 -0.456131935119629 1.812554717063904
3.110661268234253 -0.452199697494507 1.819773077964783
3.210138797760010 -0.468667060136795 1.821931481361389
3.310906171798706 -0.469853460788727 1.822919845581055
3.421885967254639 -0.460337102413177 1.823156595230103
3.526466608047485 -0.443534940481186 1.821811199188232
3.655148983001709 -0.482512682676315 1.810094594955444
3.727700471878052 -0.486800193786621 1.799209117889404
3.819642782211304 -0.483323931694031 1.790167927742004
3.916890859603882 -0.479264795780182 1.781733155250549
4.018795967102051 -0.475187659263611 1.771655797958374
4.122932910919189 -0.470915943384171 1.760615110397339
4.213809490203857 -0.467415153980255 1.751479983329773
4.337289810180664 -0.441067993640900 1.739396572113037
4.395363330841064 -0.426175415515900 1.731689214706421
2.568337202072144 -0.289910078048706 1.729106187820435
2.576397895812988 -0.340337157249451 1.728731155395508
2.715412616729736 -0.336496740579605 1.774591326713562
2.814672231674194 -0.338120192289352 1.796421647071838
2.915872335433960 -0.346320956945419 1.811696410179138
3.010566473007202 -0.360209017992020 1.821128487586975
3.632524013519287 -0.368749946355820 1.823999762535095
3.714937210083008 -0.346578329801559 1.820885658264160
3.817742586135864 -0.342947065830231 1.813719034194946
3.930842638015747 -0.329987734556198 1.805065989494324
4.042345046997070 -0.336380958557129 1.793857097625732
4.096106052398682 -0.339545279741287 1.787384271621704
4.202333927154541 -0.338333010673523 1.775223493576050
4.336988925933838 -0.348099231719971 1.750925064086914
4.396999835968018 -0.337937504053116 1.739425659179688
2.564893007278442 -0.233570694923401 1.731403946876526
2.577746868133545 -0.273032903671265 1.734444379806519
2.719371795654297 -0.238781198859215 1.781976222991943
2.806569814682007 -0.241761744022369 1.801065087318420
2.920104980468750 -0.249388664960861 1.818344712257385
3.809756040573120 -0.244490101933479 1.820715904235840
3.928488016128540 -0.239799961447716 1.811054348945618
4.019438266754150 -0.239545941352844 1.802381277084351
4.096244812011719 -0.238879367709160 1.794499754905701
4.202221393585205 -0.244128793478012 1.782283425331116
4.331201553344727 -0.240815326571465 1.760430574417114
4.407710075378418 -0.216383531689644 1.739907979965210
4.472480297088623 -0.209430426359177 1.725655317306519
2.559949398040771 -0.139056906104088 1.733256101608276
2.612785816192627 -0.139430865645409 1.754002451896667
2.719860553741455 -0.151682361960411 1.785662055015564
2.823188781738281 -0.145768254995346 1.807929635047913
2.907812118530273 -0.153457969427109 1.820810556411743
3.838081121444702 -0.145283803343773 1.822638392448425
3.915311098098755 -0.141540914773941 1.816117644309998
4.019357681274414 -0.139673247933388 1.806548118591309
4.094341278076172 -0.128312155604362 1.799154877662659
4.189366340637207 -0.147147521376610 1.788152098655701
4.329368114471436 -0.139413475990295 1.765289068222046
4.411950588226318 -0.154998376965523 1.745088696479797
4.480292320251465 -0.134237155318260 1.727163195610046
2.557391643524170 -0.025972237810493 1.734145760536194
2.617105484008789 -0.033403191715479 1.757290720939636
2.715683698654175 -0.044928550720215 1.786964654922485
2.815639495849609 -0.044395830482244 1.808542013168335
2.898721456527710 -0.040477480739355 1.821828722953796
3.854333639144897 -0.046873234212399 1.822884678840637
3.926831960678101 -0.026373345404863 1.817171931266785
4.039636611938477 -0.039306446909904 1.806303620338440
4.118467330932617 -0.001564358593896 1.798514604568481
4.193594932556152 -0.032638773322105 1.789965629577637
4.329192161560059 -0.028633836656809 1.767451047897339
4.426412105560303 -0.020391032099724 1.747529149055481
4.490200519561768 -0.020981129258871 1.727362513542175
2.557771921157837 0.054813638329506 1.734084367752075
2.610332012176514 0.063323371112347 1.754763364791870
2.716018199920654 0.069888353347778 1.787025690078735
2.820761680603027 0.072753064334393 1.809350609779358
2.900264501571655 0.071135088801384 1.821981310844421
3.851970195770264 0.079360961914062 1.822985172271729
3.924007177352905 0.064635954797268 1.817363262176514
4.028357505798340 0.055034663528204 1.807334542274475
4.110167026519775 0.069382391870022 1.798954725265503
4.180244922637939 0.066157296299934 1.791037440299988
4.328974246978760 0.056932635605335 1.767184257507324
4.424469947814941 0.032617859542370 1.749188542366028
4.487805366516113 0.043460834771395 1.727687239646912
2.560798168182373 0.160440295934677 1.732903361320496
2.614696979522705 0.156123980879784 1.754122138023376
2.715700626373291 0.161968275904655 1.784304857254028
2.820930004119873 0.159238412976265 1.807129502296448
2.913243293762207 0.156572237610817 1.821319580078125
3.834175348281860 0.159358352422714 1.822306871414185
3.926970005035400 0.157991275191307 1.814628362655640
4.011002063751221 0.159461811184883 1.806740641593933
4.096817016601562 0.169994920492172 1.797542333602905
4.189348220825195 0.158278942108154 1.787599205970764
4.329996109008789 0.161930680274963 1.764408469200134
4.413158416748047 0.177059501409531 1.740949749946594
4.479501247406006 0.146820560097694 1.726808428764343
2.565707683563232 0.245147049427032 1.731141090393066
2.573801040649414 0.292112201452255 1.731516599655151
2.713888406753540 0.258237451314926 1.779525399208069
2.814043760299683 0.256198525428772 1.801823616027832
2.913777828216553 0.254687488079071 1.817220330238342
3.804779529571533 0.257475912570953 1.820515036582947
3.928147077560425 0.261648833751678 1.810031414031982
4.022284030914307 0.258126080036163 1.800989031791687
4.097102642059326 0.260011404752731 1.793080091476440
4.196308135986328 0.260600715875626 1.781661033630371
4.331958293914795 0.260336071252823 1.759145736694336
4.396198749542236 0.256843239068985 1.744546294212341
4.469118118286133 0.215492621064186 1.725875258445740
2.578534603118896 0.360993117094040 1.727836489677429
2.712960004806519 0.363988518714905 1.771846175193787
2.816651821136475 0.357351064682007 1.795372247695923
2.918072700500488 0.355217993259430 1.811412453651428
3.007646322250366 0.360370546579361 1.820879817008972
3.605131387710571 0.388207703828812 1.823947787284851
3.711125373840332 0.354118525981903 1.820705890655518
3.819777965545654 0.363413274288177 1.811918258666992
3.937574625015259 0.348774909973145 1.803036451339722
4.026226043701172 0.361924737691879 1.793160080909729
4.093073368072510 0.359583795070648 1.785973072052002
4.204256057739258 0.366068214178085 1.772216439247131
4.338361263275146 0.366409868001938 1.748689770698547
4.398186206817627 0.362143486738205 1.736837387084961
2.614196777343750 0.446681112051010 1.732448816299438
2.715529918670654 0.468099921941757 1.761617541313171
2.820758104324341 0.468536555767059 1.785223841667175
2.913128852844238 0.472611874341965 1.799512505531311
3.008385658264160 0.464036852121353 1.811090588569641
3.112133979797363 0.457023203372955 1.819276332855225
3.257687568664551 0.508200287818909 1.817166924476624
3.323232889175415 0.507810711860657 1.810827374458313
3.418504953384399 0.502641201019287 1.809013485908508
3.518240451812744 0.497282475233078 1.806871175765991
3.617558479309082 0.492420673370361 1.802818775177002
3.718139886856079 0.487865746021271 1.797137618064880
3.822889804840088 0.489407867193222 1.786817908287048
3.918062686920166 0.488164186477661 1.777307271957397
4.022950172424316 0.488669008016586 1.768663644790649
4.124518394470215 0.488218933343887 1.758753061294556
4.210017204284668 0.486971408128738 1.749028444290161
4.332739830017090 0.473341077566147 1.736138105392456
4.393015861511230 0.443361014127731 1.730316758155823
2.660252332687378 0.574675619602203 1.728257298469543
2.704023599624634 0.578143477439880 1.736273407936096
2.826896190643311 0.566734790802002 1.765617012977600
2.916098356246948 0.555961608886719 1.780507683753967
3.018563747406006 0.545273840427399 1.793119192123413
3.117483854293823 0.534102916717529 1.799726486206055
3.222922325134277 0.531694769859314 1.806507825851440
3.317649602890015 0.545215666294098 1.801739096641541
3.418276071548462 0.556633532047272 1.787963032722473
3.517559528350830 0.551903903484344 1.785948991775513
3.615051269531250 0.532428026199341 1.797398805618286
3.715900182723999 0.524183809757233 1.795447587966919
3.814462423324585 0.521445751190186 1.791698932647705
3.919465065002441 0.522823929786682 1.785074591636658
4.002160549163818 0.522294402122498 1.775991439819336
4.116680622100830 0.560014903545380 1.748556852340698
4.185372352600098 0.551487684249878 1.742425084114075
4.338914871215820 0.523138642311096 1.728893280029297
2.663102388381958 0.612566828727722 1.726828575134277
2.706176996231079 0.629116117954254 1.732406616210938
2.835482358932495 0.659401178359985 1.732280731201172
2.917152404785156 0.648150563240051 1.739438056945801
3.023879528045654 0.631413996219635 1.739454865455627
3.117591857910156 0.625348925590515 1.739817500114441
3.215808868408203 0.627602100372314 1.749962091445923
3.319998979568481 0.619965791702271 1.744703054428101
3.415889978408813 0.618672966957092 1.748793005943298
3.516963958740234 0.618819236755371 1.744541406631470
3.615996837615967 0.621396839618683 1.738804221153259
3.715031623840332 0.632123947143555 1.739360451698303
3.805478096008301 0.636917412281036 1.731048107147217
3.918265342712402 0.625725388526917 1.735961914062500
4.010860443115234 0.619635045528412 1.729938387870789
4.076069831848145 0.611581802368164 1.727285623550415
3.211032152175903 -0.417081207036972 1.827344775199890
3.322897672653198 -0.430652976036072 1.827476739883423
3.413368463516235 -0.417343318462372 1.827845215797424
3.499499797821045 -0.406634867191315 1.826669812202454
3.052083015441895 -0.333506077528000 1.826595187187195
3.124625444412231 -0.346872389316559 1.829935550689697
3.216645956039429 -0.350727915763855 1.832931637763977
3.319142580032349 -0.341672450304031 1.834885478019714
3.424702644348145 -0.337085157632828 1.834085106849670
3.522237300872803 -0.334071576595306 1.831705689430237
3.613974571228027 -0.318536132574081 1.828781485557556
3.682801485061646 -0.298822075128555 1.826694607734680
2.961871862411499 -0.215751752257347 1.825491309165955
3.028192758560181 -0.248889967799187 1.829605340957642
3.129707574844360 -0.245875120162964 1.836256146430969
3.216307878494263 -0.243340402841568 1.839560270309448
3.313878536224365 -0.241647422313690 1.840831875801086
3.416644334793091 -0.236592590808868 1.840201377868652
3.524616956710815 -0.239413484930992 1.837068200111389
3.619954824447632 -0.244887083768845 1.832721352577209
3.706736564636230 -0.227858364582062 1.828640460968018
3.771780252456665 -0.195672273635864 1.825362682342529
2.947105169296265 -0.125086799263954 1.826469898223877
3.016926288604736 -0.142414748668671 1.832718729972839
3.118593692779541 -0.140739604830742 1.839579105377197
3.209964990615845 -0.132757186889648 1.843340873718262
3.319634914398193 -0.136780366301537 1.844470500946045
3.425241470336914 -0.140262588858604 1.843437075614929
3.526733160018921 -0.134185492992401 1.840893507003784
3.620830774307251 -0.130614370107651 1.836823701858521
3.704562425613403 -0.153933480381966 1.831611752510071
3.790628433227539 -0.112621232867241 1.826991677284241
2.951550960540771 -0.036216773092747 1.828386425971985
3.023262500762939 -0.041927244514227 1.835059881210327
3.120489835739136 -0.043812464922667 1.841426610946655
3.215656757354736 -0.038888491690159 1.844954848289490
3.317085027694702 -0.041865214705467 1.846182942390442
3.417219400405884 -0.038507744669914 1.845396161079407
3.519997835159302 -0.039985686540604 1.842678189277649
3.619159221649170 -0.037016317248344 1.838474035263062
3.713938236236572 -0.045187518000603 1.833120703697205
3.797722578048706 -0.036810494959354 1.827570557594299
2.951529026031494 0.070450283586979 1.828240990638733
3.023018360137939 0.071873009204865 1.834938764572144
3.121583461761475 0.073194943368435 1.841355919837952
3.219688415527344 0.069051407277584 1.845001220703125
3.318028211593628 0.070687092840672 1.846179723739624
3.417873382568359 0.069825597107410 1.845326066017151
3.516083717346191 0.066344171762466 1.842789530754089
3.606162309646606 0.065425574779510 1.839079022407532
3.714188337326050 0.064553596079350 1.833084464073181
3.796229839324951 0.071625031530857 1.827427506446838
2.960033416748047 0.147401705384254 1.827375292778015
3.017280340194702 0.153332382440567 1.832379937171936
3.125272512435913 0.159981504082680 1.839269399642944
3.218746423721313 0.165883317589760 1.842535614967346
3.305525779724121 0.157889336347580 1.843871474266052
3.415852069854736 0.162845581769943 1.842988967895508
3.526140928268433 0.159762308001518 1.840068578720093
3.624955177307129 0.158151760697365 1.835769653320312
3.714949846267700 0.157109633088112 1.830754756927490
3.785181283950806 0.155883669853210 1.825633645057678
2.961871862411499 0.215751752257347 1.825491309165955
3.031919717788696 0.248768195509911 1.829954147338867
3.125570297241211 0.254525214433670 1.835740685462952
3.218118906021118 0.256903380155563 1.839054107666016
3.315636157989502 0.268264710903168 1.839395999908447
3.419210195541382 0.262360036373138 1.838998675346375
3.511774063110352 0.267446249723434 1.836223244667053
3.628908395767212 0.263783574104309 1.831514000892639
3.692642450332642 0.261601448059082 1.827998995780945
3.056472301483154 0.338907927274704 1.826656937599182
3.128589153289795 0.340143322944641 1.830652356147766
3.205210447311401 0.375364184379578 1.830893039703369
3.311022996902466 0.370676577091217 1.832904934883118
3.411635160446167 0.366223335266113 1.832534670829773
3.520705461502075 0.361556410789490 1.829889416694641
3.608069658279419 0.337711185216904 1.827952980995178
3.230479240417480 0.436684459447861 1.825938701629639
3.338571786880493 0.443378001451492 1.826318502426147
3.423538446426392 0.436930894851685 1.825873732566833