# .PCD v0.7 - Point Cloud Data file format
VERSION 0.7
FIELDS x y z
SIZE 4 4 4
TYPE F F F
COUNT 1 1 1
WIDTH 652
HEIGHT 1
VIEWPOINT 0 0 0 1 0 0 0
POINTS 652
DATA ascii
0.60000002 0 0
-0.40000001 0 0
0.60000002 0 0.1
-0.40000001 0 0.1
0.60000002 0 0.2
-0.40000001 0 0.2
0.60000002 0 0.30000001
-0.40000001 0 0.30000001
0.60000002 0 0.40000001
-0.40000001 0 0.40000001
0.60000002 0 0.5
-0.40000001 0 0.5
0.60000002 0 0.60000002
-0.40000001 0 0.60000002
0.60000002 0 0.69999999
-0.40000001 0 0.69999999
0.60000002 0 0.80000001
-0.40000001 0 0.80000001
0.60000002 0 0.89999998
-0.40000001 0 0.89999998
0.60000002 0 1
-0.40000001 0 1
0.60000002 0 1.1
-0.40000001 0 1.1
0.60000002 0 1.2
-0.40000001 0 1.2
0.60000002 0 1.3
-0.40000001 0 1.3
0.60000002 0 1.4
-0.40000001 0 1.4
0.60000002 0 1.5
-0.40000001 0 1.5
0.59510565 0.0309017 0.050000001
-0.40489435 0.0309017 0.050000001
0.59510565 0.0309017 0.15000001
-0.40489435 0.0309017 0.15000001
0.59510565 0.0309017 0.25
-0.40489435 0.0309017 0.25
0.59510565 0.0309017 0.34999999
-0.40489435 0.0309017 0.34999999
0.59510565 0.0309017 0.44999999
-0.40489435 0.0309017 0.44999999
0.59510565 0.0309017 0.55000001
-0.40489435 0.0309017 0.55000001
0.59510565 0.0309017 0.64999998
-0.40489435 0.0309017 0.64999998
0.59510565 0.0309017 0.75
-0.40489435 0.0309017 0.75
0.59510565 0.0309017 0.85000002
-0.40489435 0.0309017 0.85000002
0.59510565 0.0309017 0.94999999
-0.40489435 0.0309017 0.94999999
0.59510565 0.0309017 1.05
-0.40489435 0.0309017 1.05
0.59510565 0.0309017 1.15
-0.40489435 0.0309017 1.15
0.59510565 0.0309017 1.25
-0.40489435 0.0309017 1.25
0.59510565 0.0309017 1.35
-0.40489435 0.0309017 1.35
0.59510565 0.0309017 1.45
-0.40489435 0.0309017 1.45
0.58090168 0.058778524 0
-0.41909829 0.058778524 0
0.58090168 0.058778524 0.1
-0.41909829 0.058778524 0.1
0.58090168 0.058778524 0.2
-0.41909829 0.058778524 0.2
0.58090168 0.058778524 0.30000001
-0.41909829 0.058778524 0.30000001
0.58090168 0.058778524 0.40000001
-0.41909829 0.058778524 0.40000001
0.58090168 0.058778524 0.5
-0.41909829 0.058778524 0.5
0.58090168 0.058778524 0.60000002
-0.41909829 0.058778524 0.60000002
0.58090168 0.058778524 0.69999999
-0.41909829 0.058778524 0.69999999
0.58090168 0.058778524 0.80000001
-0.41909829 0.058778524 0.80000001
0.58090168 0.058778524 0.89999998
-0.41909829 0.058778524 0.89999998
0.58090168 0.058778524 1
-0.41909829 0.058778524 1
0.58090168 0.058778524 1.1
-0.41909829 0.058778524 1.1
0.58090168 0.058778524 1.2
-0.41909829 0.058778524 1.2
0.58090168 0.058778524 1.3
-0.41909829 0.058778524 1.3
0.58090168 0.058778524 1.4
-0.41909829 0.058778524 1.4
0.58090168 0.058778524 1.5
-0.41909829 0.058778524 1.5
0.55877852 0.080901697 0.050000001
-0.44122148 0.080901697 0.050000001
0.55877852 0.080901697 0.15000001
-0.44122148 0.080901697 0.15000001
0.55877852 0.080901697 0.25
-0.44122148 0.080901697 0.25
0.55877852 0.080901697 0.34999999
-0.44122148 0.080901697 0.34999999
0.55877852 0.080901697 0.44999999
-0.44122148 0.080901697 0.44999999
0.55877852 0.080901697 0.55000001
-0.44122148 0.080901697 0.55000001
0.55877852 0.080901697 0.64999998
-0.44122148 0.080901697 0.64999998
0.55877852 0.080901697 0.75
-0.44122148 0.080901697 0.75
0.55877852 0.080901697 0.85000002
-0.44122148 0.080901697 0.85000002
0.55877852 0.080901697 0.94999999
-0.44122148 0.080901697 0.94999999
0.55877852 0.080901697 1.05
-0.44122148 0.080901697 1.05
0.55877852 0.080901697 1.15
-0.44122148 0.080901697 1.15
0.55877852 0.080901697 1.25
-0.44122148 0.080901697 1.25
0.55877852 0.080901697 1.35
-0.44122148 0.080901697 1.35
0.55877852 0.080901697 1.45
-0.44122148 0.080901697 1.45
0.53090167 0.095105648 0
-0.4690983 0.095105648 0
0.53090167 0.095105648 0.1
-0.4690983 0.095105648 0.1
0.53090167 0.095105648 0.2
-0.4690983 0.095105648 0.2
0.53090167 0.095105648 0.30000001
-0.4690983 0.095105648 0.30000001
0.53090167 0.095105648 0.40000001
-0.4690983 0.095105648 0.40000001
0.53090167 0.095105648 0.5
-0.4690983 0.095105648 0.5
0.53090167 0.095105648 0.60000002
-0.4690983 0.095105648 0.60000002
0.53090167 0.095105648 0.69999999
-0.4690983 0.095105648 0.69999999
0.53090167 0.095105648 0.80000001
-0.4690983 0.095105648 0.80000001
0.53090167 0.095105648 0.89999998
-0.4690983 0.095105648 0.89999998
0.53090167 0.095105648 1
-0.4690983 0.095105648 1
0.53090167 0.095105648 1.1
-0.4690983 0.095105648 1.1
0.53090167 0.095105648 1.2
-0.4690983 0.095105648 1.2
0.53090167 0.095105648 1.3
-0.4690983 0.095105648 1.3
0.53090167 0.095105648 1.4
-0.4690983 0.095105648 1.4
0.53090167 0.095105648 1.5
-0.4690983 0.095105648 1.5
0.5 0.1 0.050000001
-0.5 0.1 0.050000001
0.5 0.1 0.15000001
-0.5 0.1 0.15000001
0.5 0.1 0.25
-0.5 0.1 0.25
0.5 0.1 0.34999999
-0.5 0.1 0.34999999
0.5 0.1 0.44999999
-0.5 0.1 0.44999999
0.5 0.1 0.55000001
-0.5 0.1 0.55000001
0.5 0.1 0.64999998
-0.5 0.1 0.64999998
0.5 0.1 0.75
-0.5 0.1 0.75
0.5 0.1 0.85000002
-0.5 0.1 0.85000002
0.5 0.1 0.94999999
-0.5 0.1 0.94999999
0.5 0.1 1.05
-0.5 0.1 1.05
0.5 0.1 1.15
-0.5 0.1 1.15
0.5 0.1 1.25
-0.5 0.1 1.25
0.5 0.1 1.35
-0.5 0.1 1.35
0.5 0.1 1.45
-0.5 0.1 1.45
0.4690983 0.095105648 0
-0.53090167 0.095105648 0
0.4690983 0.095105648 0.1
-0.53090167 0.095105648 0.1
0.4690983 0.095105648 0.2
-0.53090167 0.095105648 0.2
0.4690983 0.095105648 0.30000001
-0.53090167 0.095105648 0.30000001
0.4690983 0.095105648 0.40000001
-0.53090167 0.095105648 0.40000001
0.4690983 0.095105648 0.5
-0.53090167 0.095105648 0.5
0.4690983 0.095105648 0.60000002
-0.53090167 0.095105648 0.60000002
0.4690983 0.095105648 0.69999999
-0.53090167 0.095105648 0.69999999
0.4690983 0.095105648 0.80000001
-0.53090167 0.095105648 0.80000001
0.4690983 0.095105648 0.89999998
-0.53090167 0.095105648 0.89999998
0.4690983 0.095105648 1
-0.53090167 0.095105648 1
0.4690983 0.095105648 1.1
-0.53090167 0.095105648 1.1
0.4690983 0.095105648 1.2
-0.53090167 0.095105648 1.2
0.4690983 0.095105648 1.3
-0.53090167 0.095105648 1.3
0.4690983 0.095105648 1.4
-0.53090167 0.095105648 1.4
0.4690983 0.095105648 1.5
-0.53090167 0.095105648 1.5
0.44122148 0.080901697 0.050000001
-0.55877852 0.080901697 0.050000001
0.44122148 0.080901697 0.15000001
-0.55877852 0.080901697 0.15000001
0.44122148 0.080901697 0.25
-0.55877852 0.080901697 0.25
0.44122148 0.080901697 0.34999999
-0.55877852 0.080901697 0.34999999
0.44122148 0.080901697 0.44999999
-0.55877852 0.080901697 0.44999999
0.44122148 0.080901697 0.55000001
-0.55877852 0.080901697 0.55000001
0.44122148 0.080901697 0.64999998
-0.55877852 0.080901697 0.64999998
0.44122148 0.080901697 0.75
-0.55877852 0.080901697 0.75
0.44122148 0.080901697 0.85000002
-0.55877852 0.080901697 0.85000002
0.44122148 0.080901697 0.94999999
-0.55877852 0.080901697 0.94999999
0.44122148 0.080901697 1.05
-0.55877852 0.080901697 1.05
0.44122148 0.080901697 1.15
-0.55877852 0.080901697 1.15
0.44122148 0.080901697 1.25
-0.55877852 0.080901697 1.25
0.44122148 0.080901697 1.35
-0.55877852 0.080901697 1.35
0.44122148 0.080901697 1.45
-0.55877852 0.080901697 1.45
0.41909829 0.058778524 0
-0.58090168 0.058778524 0
0.41909829 0.058778524 0.1
-0.58090168 0.058778524 0.1
0.41909829 0.058778524 0.2
-0.58090168 0.058778524 0.2
0.41909829 0.058778524 0.30000001
-0.58090168 0.058778524 0.30000001
0.41909829 0.058778524 0.40000001
-0.58090168 0.058778524 0.40000001
0.41909829 0.058778524 0.5
-0.58090168 0.058778524 0.5
0.41909829 0.058778524 0.60000002
-0.58090168 0.058778524 0.60000002
0.41909829 0.058778524 0.69999999
-0.58090168 0.058778524 0.69999999
0.41909829 0.058778524 0.80000001
-0.58090168 0.058778524 0.80000001
0.41909829 0.058778524 0.89999998
-0.58090168 0.058778524 0.89999998
0.41909829 0.058778524 1
-0.58090168 0.058778524 1
0.41909829 0.058778524 1.1
-0.58090168 0.058778524 1.1
0.41909829 0.058778524 1.2
-0.58090168 0.058778524 1.2
0.41909829 0.058778524 1.3
-0.58090168 0.058778524 1.3
0.41909829 0.058778524 1.4
-0.58090168 0.058778524 1.4
0.41909829 0.058778524 1.5
-0.58090168 0.058778524 1.5
0.40489435 0.0309017 0.050000001
-0.59510565 0.0309017 0.050000001
0.40489435 0.0309017 0.15000001
-0.59510565 0.0309017 0.15000001
0.40489435 0.0309017 0.25
-0.59510565 0.0309017 0.25
0.40489435 0.0309017 0.34999999
-0.59510565 0.0309017 0.34999999
0.40489435 0.0309017 0.44999999
-0.59510565 0.0309017 0.44999999
0.40489435 0.0309017 0.55000001
-0.59510565 0.0309017 0.55000001
0.40489435 0.0309017 0.64999998
-0.59510565 0.0309017 0.64999998
0.40489435 0.0309017 0.75
-0.59510565 0.0309017 0.75
0.40489435 0.0309017 0.85000002
-0.59510565 0.0309017 0.85000002
0.40489435 0.0309017 0.94999999
-0.59510565 0.0309017 0.94999999
0.40489435 0.0309017 1.05
-0.59510565 0.0309017 1.05
0.40489435 0.0309017 1.15
-0.59510565 0.0309017 1.15
0.40489435 0.0309017 1.25
-0.59510565 0.0309017 1.25
0.40489435 0.0309017 1.35
-0.59510565 0.0309017 1.35
0.40489435 0.0309017 1.45
-0.59510565 0.0309017 1.45
0.40000001 1.2246468e-17 0
-0.60000002 1.2246468e-17 0
0.40000001 1.2246468e-17 0.1
-0.60000002 1.2246468e-17 0.1
0.40000001 1.2246468e-17 0.2
-0.60000002 1.2246468e-17 0.2
0.40000001 1.2246468e-17 0.30000001
-0.60000002 1.2246468e-17 0.30000001
0.40000001 1.2246468e-17 0.40000001
-0.60000002 1.2246468e-17 0.40000001
0.40000001 1.2246468e-17 0.5
-0.60000002 1.2246468e-17 0.5
0.40000001 1.2246468e-17 0.60000002
-0.60000002 1.2246468e-17 0.60000002
0.40000001 1.2246468e-17 0.69999999
-0.60000002 1.2246468e-17 0.69999999
0.40000001 1.2246468e-17 0.80000001
-0.60000002 1.2246468e-17 0.80000001
0.40000001 1.2246468e-17 0.89999998
-0.60000002 1.2246468e-17 0.89999998
0.40000001 1.2246468e-17 1
-0.60000002 1.2246468e-17 1
0.40000001 1.2246468e-17 1.1
-0.60000002 1.2246468e-17 1.1
0.40000001 1.2246468e-17 1.2
-0.60000002 1.2246468e-17 1.2
0.40000001 1.2246468e-17 1.3
-0.60000002 1.2246468e-17 1.3
0.40000001 1.2246468e-17 1.4
-0.60000002 1.2246468e-17 1.4
0.40000001 1.2246468e-17 1.5
-0.60000002 1.2246468e-17 1.5
0.40489435 -0.0309017 0.050000001
-0.59510565 -0.0309017 0.050000001
0.40489435 -0.0309017 0.15000001
-0.59510565 -0.0309017 0.15000001
0.40489435 -0.0309017 0.25
-0.59510565 -0.0309017 0.25
0.40489435 -0.0309017 0.34999999
-0.59510565 -0.0309017 0.34999999
0.40489435 -0.0309017 0.44999999
-0.59510565 -0.0309017 0.44999999
0.40489435 -0.0309017 0.55000001
-0.59510565 -0.0309017 0.55000001
0.40489435 -0.0309017 0.64999998
-0.59510565 -0.0309017 0.64999998
0.40489435 -0.0309017 0.75
-0.59510565 -0.0309017 0.75
0.40489435 -0.0309017 0.85000002
-0.59510565 -0.0309017 0.85000002
0.40489435 -0.0309017 0.94999999
-0.59510565 -0.0309017 0.94999999
0.40489435 -0.0309017 1.05
-0.59510565 -0.0309017 1.05
0.40489435 -0.0309017 1.15
-0.59510565 -0.0309017 1.15
0.40489435 -0.0309017 1.25
-0.59510565 -0.0309017 1.25
0.40489435 -0.0309017 1.35
-0.59510565 -0.0309017 1.35
0.40489435 -0.0309017 1.45
-0.59510565 -0.0309017 1.45
0.41909829 -0.058778524 0
-0.58090168 -0.058778524 0
0.41909829 -0.058778524 0.1
-0.58090168 -0.058778524 0.1
0.41909829 -0.058778524 0.2
-0.58090168 -0.058778524 0.2
0.41909829 -0.058778524 0.30000001
-0.58090168 -0.058778524 0.30000001
0.41909829 -0.058778524 0.40000001
-0.58090168 -0.058778524 0.40000001
0.41909829 -0.058778524 0.5
-0.58090168 -0.058778524 0.5
0.41909829 -0.058778524 0.60000002
-0.58090168 -0.058778524 0.60000002
0.41909829 -0.058778524 0.69999999
-0.58090168 -0.058778524 0.69999999
0.41909829 -0.058778524 0.80000001
-0.58090168 -0.058778524 0.80000001
0.41909829 -0.058778524 0.89999998
-0.58090168 -0.058778524 0.89999998
0.41909829 -0.058778524 1
-0.58090168 -0.058778524 1
0.41909829 -0.058778524 1.1
-0.58090168 -0.058778524 1.1
0.41909829 -0.058778524 1.2
-0.58090168 -0.058778524 1.2
0.41909829 -0.058778524 1.3
-0.58090168 -0.058778524 1.3
0.41909829 -0.058778524 1.4
-0.58090168 -0.058778524 1.4
0.41909829 -0.058778524 1.5
-0.58090168 -0.058778524 1.5
0.44122148 -0.080901697 0.050000001
-0.55877852 -0.080901697 0.050000001
0.44122148 -0.080901697 0.15000001
-0.55877852 -0.080901697 0.15000001
0.44122148 -0.080901697 0.25
-0.55877852 -0.080901697 0.25
0.44122148 -0.080901697 0.34999999
-0.55877852 -0.080901697 0.34999999
0.44122148 -0.080901697 0.44999999
-0.55877852 -0.080901697 0.44999999
0.44122148 -0.080901697 0.55000001
-0.55877852 -0.080901697 0.55000001
0.44122148 -0.080901697 0.64999998
-0.55877852 -0.080901697 0.64999998
0.44122148 -0.080901697 0.75
-0.55877852 -0.080901697 0.75
0.44122148 -0.080901697 0.85000002
-0.55877852 -0.080901697 0.85000002
0.44122148 -0.080901697 0.94999999
-0.55877852 -0.080901697 0.94999999
0.44122148 -0.080901697 1.05
-0.55877852 -0.080901697 1.05
0.44122148 -0.080901697 1.15
-0.55877852 -0.080901697 1.15
0.44122148 -0.080901697 1.25
-0.55877852 -0.080901697 1.25
0.44122148 -0.080901697 1.35
-0.55877852 -0.080901697 1.35
0.44122148 -0.080901697 1.45
-0.55877852 -0.080901697 1.45
0.4690983 -0.095105648 0
-0.53090167 -0.095105648 0
0.4690983 -0.095105648 0.1
-0.53090167 -0.095105648 0.1
0.4690983 -0.095105648 0.2
-0.53090167 -0.095105648 0.2
0.4690983 -0.095105648 0.30000001
-0.53090167 -0.095105648 0.30000001
0.4690983 -0.095105648 0.40000001
-0.53090167 -0.095105648 0.40000001
0.4690983 -0.095105648 0.5
-0.53090167 -0.095105648 0.5
0.4690983 -0.095105648 0.60000002
-0.53090167 -0.095105648 0.60000002
0.4690983 -0.095105648 0.69999999
-0.53090167 -0.095105648 0.69999999
0.4690983 -0.095105648 0.80000001
-0.53090167 -0.095105648 0.80000001
0.4690983 -0.095105648 0.89999998
-0.53090167 -0.095105648 0.89999998
0.4690983 -0.095105648 1
-0.53090167 -0.095105648 1
0.4690983 -0.095105648 1.1
-0.53090167 -0.095105648 1.1
0.4690983 -0.095105648 1.2
-0.53090167 -0.095105648 1.2
0.4690983 -0.095105648 1.3
-0.53090167 -0.095105648 1.3
0.4690983 -0.095105648 1.4
-0.53090167 -0.095105648 1.4
0.4690983 -0.095105648 1.5
-0.53090167 -0.095105648 1.5
0.5 -0.1 0.050000001
-0.5 -0.1 0.050000001
0.5 -0.1 0.15000001
-0.5 -0.1 0.15000001
0.5 -0.1 0.25
-0.5 -0.1 0.25
0.5 -0.1 0.34999999
-0.5 -0.1 0.34999999
0.5 -0.1 0.44999999
-0.5 -0.1 0.44999999
0.5 -0.1 0.55000001
-0.5 -0.1 0.55000001
0.5 -0.1 0.64999998
-0.5 -0.1 0.64999998
0.5 -0.1 0.75
-0.5 -0.1 0.75
0.5 -0.1 0.85000002
-0.5 -0.1 0.85000002
0.5 -0.1 0.94999999
-0.5 -0.1 0.94999999
0.5 -0.1 1.05
-0.5 -0.1 1.05
0.5 -0.1 1.15
-0.5 -0.1 1.15
0.5 -0.1 1.25
-0.5 -0.1 1.25
0.5 -0.1 1.35
-0.5 -0.1 1.35
0.5 -0.1 1.45
-0.5 -0.1 1.45
0.53090167 -0.095105648 0
-0.4690983 -0.095105648 0
0.53090167 -0.095105648 0.1
-0.4690983 -0.095105648 0.1
0.53090167 -0.095105648 0.2
-0.4690983 -0.095105648 0.2
0.53090167 -0.095105648 0.30000001
-0.4690983 -0.095105648 0.30000001
0.53090167 -0.095105648 0.40000001
-0.4690983 -0.095105648 0.40000001
0.53090167 -0.095105648 0.5
-0.4690983 -0.095105648 0.5
0.53090167 -0.095105648 0.60000002
-0.4690983 -0.095105648 0.60000002
0.53090167 -0.095105648 0.69999999
-0.4690983 -0.095105648 0.69999999
0.53090167 -0.095105648 0.80000001
-0.4690983 -0.095105648 0.80000001
0.53090167 -0.095105648 0.89999998
-0.4690983 -0.095105648 0.89999998
0.53090167 -0.095105648 1
-0.4690983 -0.095105648 1
0.53090167 -0.095105648 1.1
-0.4690983 -0.095105648 1.1
0.53090167 -0.095105648 1.2
-0.4690983 -0.095105648 1.2
0.53090167 -0.095105648 1.3
-0.4690983 -0.095105648 1.3
0.53090167 -0.095105648 1.4
-0.4690983 -0.095105648 1.4
0.53090167 -0.095105648 1.5
-0.4690983 -0.095105648 1.5
0.55877852 -0.080901697 0.050000001
-0.44122148 -0.080901697 0.050000001
0.55877852 -0.080901697 0.15000001
-0.44122148 -0.080901697 0.15000001
0.55877852 -0.080901697 0.25
-0.44122148 -0.080901697 0.25
0.55877852 -0.080901697 0.34999999
-0.44122148 -0.080901697 0.34999999
0.55877852 -0.080901697 0.44999999
-0.44122148 -0.080901697 0.44999999
0.55877852 -0.080901697 0.55000001
-0.44122148 -0.080901697 0.55000001
0.55877852 -0.080901697 0.64999998
-0.44122148 -0.080901697 0.64999998
0.55877852 -0.080901697 0.75
-0.44122148 -0.080901697 0.75
0.55877852 -0.080901697 0.85000002
-0.44122148 -0.080901697 0.85000002
0.55877852 -0.080901697 0.94999999
-0.44122148 -0.080901697 0.94999999
0.55877852 -0.080901697 1.05
-0.44122148 -0.080901697 1.05
0.55877852 -0.080901697 1.15
-0.44122148 -0.080901697 1.15
0.55877852 -0.080901697 1.25
-0.44122148 -0.080901697 1.25
0.55877852 -0.080901697 1.35
-0.44122148 -0.080901697 1.35
0.55877852 -0.080901697 1.45
-0.44122148 -0.080901697 1.45
0.58090168 -0.058778524 0
-0.41909829 -0.058778524 0
0.58090168 -0.058778524 0.1
-0.41909829 -0.058778524 0.1
0.58090168 -0.058778524 0.2
-0.41909829 -0.058778524 0.2
0.58090168 -0.058778524 0.30000001
-0.41909829 -0.058778524 0.30000001
0.58090168 -0.058778524 0.40000001
-0.41909829 -0.058778524 0.40000001
0.58090168 -0.058778524 0.5
-0.41909829 -0.058778524 0.5
0.58090168 -0.058778524 0.60000002
-0.41909829 -0.058778524 0.60000002
0.58090168 -0.058778524 0.69999999
-0.41909829 -0.058778524 0.69999999
0.58090168 -0.058778524 0.80000001
-0.41909829 -0.058778524 0.80000001
0.58090168 -0.058778524 0.89999998
-0.41909829 -0.058778524 0.89999998
0.58090168 -0.058778524 1
-0.41909829 -0.058778524 1
0.58090168 -0.058778524 1.1
-0.41909829 -0.058778524 1.1
0.58090168 -0.058778524 1.2
-0.41909829 -0.058778524 1.2
0.58090168 -0.058778524 1.3
-0.41909829 -0.058778524 1.3
0.58090168 -0.058778524 1.4
-0.41909829 -0.058778524 1.4
0.58090168 -0.058778524 1.5
-0.41909829 -0.058778524 1.5
0.59510565 -0.0309017 0.050000001
-0.40489435 -0.0309017 0.050000001
0.59510565 -0.0309017 0.15000001
-0.40489435 -0.0309017 0.15000001
0.59510565 -0.0309017 0.25
-0.40489435 -0.0309017 0.25
0.59510565 -0.0309017 0.34999999
-0.40489435 -0.0309017 0.34999999
0.59510565 -0.0309017 0.44999999
-0.40489435 -0.0309017 0.44999999
0.59510565 -0.0309017 0.55000001
-0.40489435 -0.0309017 0.55000001
0.59510565 -0.0309017 0.64999998
-0.40489435 -0.0309017 0.64999998
0.59510565 -0.0309017 0.75
-0.40489435 -0.0309017 0.75
0.59510565 -0.0309017 0.85000002
-0.40489435 -0.0309017 0.85000002
0.59510565 -0.0309017 0.94999999
-0.40489435 -0.0309017 0.94999999
0.59510565 -0.0309017 1.05
-0.40489435 -0.0309017 1.05
0.59510565 -0.0309017 1.15
-0.40489435 -0.0309017 1.15
0.59510565 -0.0309017 1.25
-0.40489435 -0.0309017 1.25
0.59510565 -0.0309017 1.35
-0.40489435 -0.0309017 1.35
0.59510565 -0.0309017 1.45
-0.40489435 -0.0309017 1.45
0.60000002 -2.4492935e-17 0
-0.40000001 -2.4492935e-17 0
0.60000002 -2.4492935e-17 0.1
-0.40000001 -2.4492935e-17 0.1
0.60000002 -2.4492935e-17 0.2
-0.40000001 -2.4492935e-17 0.2
0.60000002 -2.4492935e-17 0.30000001
-0.40000001 -2.4492935e-17 0.30000001
0.60000002 -2.4492935e-17 0.40000001
-0.40000001 -2.4492935e-17 0.40000001
0.60000002 -2.4492935e-17 0.5
-0.40000001 -2.4492935e-17 0.5
0.60000002 -2.4492935e-17 0.60000002
-0.40000001 -2.4492935e-17 0.60000002
0.60000002 -2.4492935e-17 0.69999999
-0.40000001 -2.4492935e-17 0.69999999
0.60000002 -2.4492935e-17 0.80000001
-0.40000001 -2.4492935e-17 0.80000001
0.60000002 -2.4492935e-17 0.89999998
-0.40000001 -2.4492935e-17 0.89999998
0.60000002 -2.4492935e-17 1
-0.40000001 -2.4492935e-17 1
0.60000002 -2.4492935e-17 1.1
-0.40000001 -2.4492935e-17 1.1
0.60000002 -2.4492935e-17 1.2
-0.40000001 -2.4492935e-17 1.2
0.60000002 -2.4492935e-17 1.3
-0.40000001 -2.4492935e-17 1.3
0.60000002 -2.4492935e-17 1.4
-0.40000001 -2.4492935e-17 1.4
0.60000002 -2.4492935e-17 1.5
-0.40000001 -2.4492935e-17 1.5
