# .PCD v0.7 - Point Cloud Data file format
VERSION 0.7
FIELDS x y z
SIZE 4 4 4
TYPE F F F
COUNT 1 1 1
WIDTH 326
HEIGHT 1
VIEWPOINT 0 0 0 1 0 0 0
POINTS 326
DATA ascii
0.1 0 0
0.1 0 0.1
0.1 0 0.2
0.1 0 0.30000001
0.1 0 0.40000001
0.1 0 0.5
0.1 0 0.60000002
0.1 0 0.69999999
0.1 0 0.80000001
0.1 0 0.89999998
0.1 0 1
0.1 0 1.1
0.1 0 1.2
0.1 0 1.3
0.1 0 1.4
0.1 0 1.5
0.095105648 0.0309017 0.050000001
0.095105648 0.0309017 0.15000001
0.095105648 0.0309017 0.25
0.095105648 0.0309017 0.34999999
0.095105648 0.0309017 0.44999999
0.095105648 0.0309017 0.55000001
0.095105648 0.0309017 0.64999998
0.095105648 0.0309017 0.75
0.095105648 0.0309017 0.85000002
0.095105648 0.0309017 0.94999999
0.095105648 0.0309017 1.05
0.095105648 0.0309017 1.15
0.095105648 0.0309017 1.25
0.095105648 0.0309017 1.35
0.095105648 0.0309017 1.45
0.080901697 0.058778524 0
0.080901697 0.058778524 0.1
0.080901697 0.058778524 0.2
0.080901697 0.058778524 0.30000001
0.080901697 0.058778524 0.40000001
0.080901697 0.058778524 0.5
0.080901697 0.058778524 0.60000002
0.080901697 0.058778524 0.69999999
0.080901697 0.058778524 0.80000001
0.080901697 0.058778524 0.89999998
0.080901697 0.058778524 1
0.080901697 0.058778524 1.1
0.080901697 0.058778524 1.2
0.080901697 0.058778524 1.3
0.080901697 0.058778524 1.4
0.080901697 0.058778524 1.5
0.058778524 0.080901697 0.050000001
0.058778524 0.080901697 0.15000001
0.058778524 0.080901697 0.25
0.058778524 0.080901697 0.34999999
0.058778524 0.080901697 0.44999999
0.058778524 0.080901697 0.55000001
0.058778524 0.080901697 0.64999998
0.058778524 0.080901697 0.75
0.058778524 0.080901697 0.85000002
0.058778524 0.080901697 0.94999999
0.058778524 0.080901697 1.05
0.058778524 0.080901697 1.15
0.058778524 0.080901697 1.25
0.058778524 0.080901697 1.35
0.058778524 0.080901697 1.45
0.0309017 0.095105648 0
0.0309017 0.095105648 0.1
0.0309017 0.095105648 0.2
0.0309017 0.095105648 0.30000001
0.0309017 0.095105648 0.40000001
0.0309017 0.095105648 0.5
0.0309017 0.095105648 0.60000002
0.0309017 0.095105648 0.69999999
0.0309017 0.095105648 0.80000001
0.0309017 0.095105648 0.89999998
0.0309017 0.095105648 1
0.0309017 0.095105648 1.1
0.0309017 0.095105648 1.2
0.0309017 0.095105648 1.3
0.0309017 0.095105648 1.4
0.0309017 0.095105648 1.5
6.1232338e-18 0.1 0.050000001
6.1232338e-18 0.1 0.15000001
6.1232338e-18 0.1 0.25
6.1232338e-18 0.1 0.34999999
6.1232338e-18 0.1 0.44999999
6.1232338e-18 0.1 0.55000001
6.1232338e-18 0.1 0.64999998
6.1232338e-18 0.1 0.75
6.1232338e-18 0.1 0.85000002
6.1232338e-18 0.1 0.94999999
6.1232338e-18 0.1 1.05
6.1232338e-18 0.1 1.15
6.1232338e-18 0.1 1.25
6.1232338e-18 0.1 1.35
6.1232338e-18 0.1 1.45
-0.0309017 0.095105648 0
-0.0309017 0.095105648 0.1
-0.0309017 0.095105648 0.2
-0.0309017 0.095105648 0.30000001
-0.0309017 0.095105648 0.40000001
-0.0309017 0.095105648 0.5
-0.0309017 0.095105648 0.60000002
-0.0309017 0.095105648 0.69999999
-0.0309017 0.095105648 0.80000001
-0.0309017 0.095105648 0.89999998
-0.0309017 0.095105648 1
-0.0309017 0.095105648 1.1
-0.0309017 0.095105648 1.2
-0.0309017 0.095105648 1.3
-0.0309017 0.095105648 1.4
-0.0309017 0.095105648 1.5
-0.058778524 0.080901697 0.050000001
-0.058778524 0.080901697 0.15000001
-0.058778524 0.080901697 0.25
-0.058778524 0.080901697 0.34999999
-0.058778524 0.080901697 0.44999999
-0.058778524 0.080901697 0.55000001
-0.058778524 0.080901697 0.64999998
-0.058778524 0.080901697 0.75
-0.058778524 0.080901697 0.85000002
-0.058778524 0.080901697 0.94999999
-0.058778524 0.080901697 1.05
-0.058778524 0.080901697 1.15
-0.058778524 0.080901697 1.25
-0.058778524 0.080901697 1.35
-0.058778524 0.080901697 1.45
-0.080901697 0.058778524 0
-0.080901697 0.058778524 0.1
-0.080901697 0.058778524 0.2
-0.080901697 0.058778524 0.30000001
-0.080901697 0.058778524 0.40000001
-0.080901697 0.058778524 0.5
-0.080901697 0.058778524 0.60000002
-0.080901697 0.058778524 0.69999999
-0.080901697 0.058778524 0.80000001
-0.080901697 0.058778524 0.89999998
-0.080901697 0.058778524 1
-0.080901697 0.058778524 1.1
-0.080901697 0.058778524 1.2
-0.080901697 0.058778524 1.3
-0.080901697 0.058778524 1.4
-0.080901697 0.058778524 1.5
-0.095105648 0.0309017 0.050000001
-0.095105648 0.0309017 0.15000001
-0.095105648 0.0309017 0.25
-0.095105648 0.0309017 0.34999999
-0.095105648 0.0309017 0.44999999
-0.095105648 0.0309017 0.55000001
-0.095105648 0.0309017 0.64999998
-0.095105648 0.0309017 0.75
-0.095105648 0.0309017 0.85000002
-0.095105648 0.0309017 0.94999999
-0.095105648 0.0309017 1.05
-0.095105648 0.0309017 1.15
-0.095105648 0.0309017 1.25
-0.095105648 0.0309017 1.35
-0.095105648 0.0309017 1.45
-0.1 1.2246468e-17 0
-0.1 1.2246468e-17 0.1
-0.1 1.2246468e-17 0.2
-0.1 1.2246468e-17 0.30000001
-0.1 1.2246468e-17 0.40000001
-0.1 1.2246468e-17 0.5
-0.1 1.2246468e-17 0.60000002
-0.1 1.2246468e-17 0.69999999
-0.1 1.2246468e-17 0.80000001
-0.1 1.2246468e-17 0.89999998
-0.1 1.2246468e-17 1
-0.1 1.2246468e-17 1.1
-0.1 1.2246468e-17 1.2
-0.1 1.2246468e-17 1.3
-0.1 1.2246468e-17 1.4
-0.1 1.2246468e-17 1.5
-0.095105648 -0.0309017 0.050000001
-0.095105648 -0.0309017 0.15000001
-0.095105648 -0.0309017 0.25
-0.095105648 -0.0309017 0.34999999
-0.095105648 -0.0309017 0.44999999
-0.095105648 -0.0309017 0.55000001
-0.095105648 -0.0309017 0.64999998
-0.095105648 -0.0309017 0.75
-0.095105648 -0.0309017 0.85000002
-0.095105648 -0.0309017 0.94999999
-0.095105648 -0.0309017 1.05
-0.095105648 -0.0309017 1.15
-0.095105648 -0.0309017 1.25
-0.095105648 -0.0309017 1.35
-0.095105648 -0.0309017 1.45
-0.080901697 -0.058778524 0
-0.080901697 -0.058778524 0.1
-0.080901697 -0.058778524 0.2
-0.080901697 -0.058778524 0.30000001
-0.080901697 -0.058778524 0.40000001
-0.080901697 -0.058778524 0.5
-0.080901697 -0.058778524 0.60000002
-0.080901697 -0.058778524 0.69999999
-0.080901697 -0.058778524 0.80000001
-0.080901697 -0.058778524 0.89999998
-0.080901697 -0.058778524 1
-0.080901697 -0.058778524 1.1
-0.080901697 -0.058778524 1.2
-0.080901697 -0.058778524 1.3
-0.080901697 -0.058778524 1.4
-0.080901697 -0.058778524 1.5
-0.058778524 -0.080901697 0.050000001
-0.058778524 -0.080901697 0.15000001
-0.058778524 -0.080901697 0.25
-0.058778524 -0.080901697 0.34999999
-0.058778524 -0.080901697 0.44999999
-0.058778524 -0.080901697 0.55000001
-0.058778524 -0.080901697 0.64999998
-0.058778524 -0.080901697 0.75
-0.058778524 -0.080901697 0.85000002
-0.058778524 -0.080901697 0.94999999
-0.058778524 -0.080901697 1.05
-0.058778524 -0.080901697 1.15
-0.058778524 -0.080901697 1.25
-0.058778524 -0.080901697 1.35
-0.058778524 -0.080901697 1.45
-0.0309017 -0.095105648 0
-0.0309017 -0.095105648 0.1
-0.0309017 -0.095105648 0.2
-0.0309017 -0.095105648 0.30000001
-0.0309017 -0.095105648 0.40000001
-0.0309017 -0.095105648 0.5
-0.0309017 -0.095105648 0.60000002
-0.0309017 -0.095105648 0.69999999
-0.0309017 -0.095105648 0.80000001
-0.0309017 -0.095105648 0.89999998
-0.0309017 -0.095105648 1
-0.0309017 -0.095105648 1.1
-0.0309017 -0.095105648 1.2
-0.0309017 -0.095105648 1.3
-0.0309017 -0.095105648 1.4
-0.0309017 -0.095105648 1.5
-1.8369703e-17 -0.1 0.050000001
-1.8369703e-17 -0.1 0.15000001
-1.8369703e-17 -0.1 0.25
-1.8369703e-17 -0.1 0.34999999
-1.8369703e-17 -0.1 0.44999999
-1.8369703e-17 -0.1 0.55000001
-1.8369703e-17 -0.1 0.64999998
-1.8369703e-17 -0.1 0.75
-1.8369703e-17 -0.1 0.85000002
-1.8369703e-17 -0.1 0.94999999
-1.8369703e-17 -0.1 1.05
-1.8369703e-17 -0.1 1.15
-1.8369703e-17 -0.1 1.25
-1.8369703e-17 -0.1 1.35
-1.8369703e-17 -0.1 1.45
0.0309017 -0.095105648 0
0.0309017 -0.095105648 0.1
0.0309017 -0.095105648 0.2
0.0309017 -0.095105648 0.30000001
0.0309017 -0.095105648 0.40000001
0.0309017 -0.095105648 0.5
0.0309017 -0.095105648 0.60000002
0.0309017 -0.095105648 0.69999999
0.0309017 -0.095105648 0.80000001
0.0309017 -0.095105648 0.89999998
0.0309017 -0.095105648 1
0.0309017 -0.095105648 1.1
0.0309017 -0.095105648 1.2
0.0309017 -0.095105648 1.3
0.0309017 -0.095105648 1.4
0.0309017 -0.095105648 1.5
0.058778524 -0.080901697 0.050000001
0.058778524 -0.080901697 0.15000001
0.058778524 -0.080901697 0.25
0.058778524 -0.080901697 0.34999999
0.058778524 -0.080901697 0.44999999
0.058778524 -0.080901697 0.55000001
0.058778524 -0.080901697 0.64999998
0.058778524 -0.080901697 0.75
0.058778524 -0.080901697 0.85000002
0.058778524 -0.080901697 0.94999999
0.058778524 -0.080901697 1.05
0.058778524 -0.080901697 1.15
0.058778524 -0.080901697 1.25
0.058778524 -0.080901697 1.35
0.058778524 -0.080901697 1.45
0.080901697 -0.058778524 0
0.080901697 -0.058778524 0.1
0.080901697 -0.058778524 0.2
0.080901697 -0.058778524 0.30000001
0.080901697 -0.058778524 0.40000001
0.080901697 -0.058778524 0.5
0.080901697 -0.058778524 0.60000002
0.080901697 -0.058778524 0.69999999
0.080901697 -0.058778524 0.80000001
0.080901697 -0.058778524 0.89999998
0.080901697 -0.058778524 1
0.080901697 -0.058778524 1.1
0.080901697 -0.058778524 1.2
0.080901697 -0.058778524 1.3
0.080901697 -0.058778524 1.4
0.080901697 -0.058778524 1.5
0.095105648 -0.0309017 0.050000001
0.095105648 -0.0309017 0.15000001
0.095105648 -0.0309017 0.25
0.095105648 -0.0309017 0.34999999
0.095105648 -0.0309017 0.44999999
0.095105648 -0.0309017 0.55000001
0.095105648 -0.0309017 0.64999998
0.095105648 -0.0309017 0.75
0.095105648 -0.0309017 0.85000002
0.095105648 -0.0309017 0.94999999
0.095105648 -0.0309017 1.05
0.095105648 -0.0309017 1.15
0.095105648 -0.0309017 1.25
0.095105648 -0.0309017 1.35
0.095105648 -0.0309017 1.45
0.1 -2.4492935e-17 0
0.1 -2.4492935e-17 0.1
0.1 -2.4492935e-17 0.2
0.1 -2.4492935e-17 0.30000001
0.1 -2.4492935e-17 0.40000001
0.1 -2.4492935e-17 0.5
0.1 -2.4492935e-17 0.60000002
0.1 -2.4492935e-17 0.69999999
0.1 -2.4492935e-17 0.80000001
0.1 -2.4492935e-17 0.89999998
0.1 -2.4492935e-17 1
0.1 -2.4492935e-17 1.1
0.1 -2.4492935e-17 1.2
0.1 -2.4492935e-17 1.3
0.1 -2.4492935e-17 1.4
0.1 -2.4492935e-17 1.5
